<?xml version="1.0" encoding="utf-8" standalone="no"?>
<!DOCTYPE svg PUBLIC "-//W3C//DTD SVG 1.1//EN"
  "http://www.w3.org/Graphics/SVG/1.1/DTD/svg11.dtd">
<!-- Created with matplotlib (https://matplotlib.org/) -->
<svg height="288pt" version="1.1" viewBox="0 0 432 288" width="432pt" xmlns="http://www.w3.org/2000/svg" xmlns:xlink="http://www.w3.org/1999/xlink">
 <defs>
  <style type="text/css">
*{stroke-linecap:butt;stroke-linejoin:round;}
  </style>
 </defs>
 <g id="figure_1">
  <g id="patch_1">
   <path d="M 0 288 
L 432 288 
L 432 0 
L 0 0 
z
" style="fill:#ffffff;"/>
  </g>
  <g id="axes_1">
   <g id="patch_2">
    <path d="M 224.33125 246.2 
L 409.508297 246.2 
L 409.508297 26.8 
L 224.33125 26.8 
z
" style="fill:#ffffff;"/>
   </g>
   <g id="patch_3">
    <path clip-path="url(#p94f4362e9c)" d="M 224.33125 28.994 
L 224.33125 28.994 
L 224.33125 46.546 
L 224.33125 46.546 
z
" style="fill:#374249;"/>
   </g>
   <g id="patch_4">
    <path clip-path="url(#p94f4362e9c)" d="M 224.33125 50.934 
L 354.918188 50.934 
L 354.918188 68.486 
L 224.33125 68.486 
z
" style="fill:#3b5060;"/>
   </g>
   <g id="patch_5">
    <path clip-path="url(#p94f4362e9c)" d="M 224.33125 72.874 
L 362.082675 72.874 
L 362.082675 90.426 
L 224.33125 90.426 
z
" style="fill:#3e5f76;"/>
   </g>
   <g id="patch_6">
    <path clip-path="url(#p94f4362e9c)" d="M 224.33125 94.814 
L 373.395993 94.814 
L 373.395993 112.366 
L 224.33125 112.366 
z
" style="fill:#426e8e;"/>
   </g>
   <g id="patch_7">
    <path clip-path="url(#p94f4362e9c)" d="M 224.33125 116.754 
L 382.799167 116.754 
L 382.799167 134.306 
L 224.33125 134.306 
z
" style="fill:#467da4;"/>
   </g>
   <g id="patch_8">
    <path clip-path="url(#p94f4362e9c)" d="M 224.33125 138.694 
L 387.316043 138.694 
L 387.316043 156.246 
L 224.33125 156.246 
z
" style="fill:#528bb3;"/>
   </g>
   <g id="patch_9">
    <path clip-path="url(#p94f4362e9c)" d="M 224.33125 160.634 
L 388.20438 160.634 
L 388.20438 178.186 
L 224.33125 178.186 
z
" style="fill:#6598bc;"/>
   </g>
   <g id="patch_10">
    <path clip-path="url(#p94f4362e9c)" d="M 224.33125 182.574 
L 397.633656 182.574 
L 397.633656 200.126 
L 224.33125 200.126 
z
" style="fill:#79a6c5;"/>
   </g>
   <g id="patch_11">
    <path clip-path="url(#p94f4362e9c)" d="M 224.33125 204.514 
L 397.858619 204.514 
L 397.858619 222.066 
L 224.33125 222.066 
z
" style="fill:#8cb3cd;"/>
   </g>
   <g id="patch_12">
    <path clip-path="url(#p94f4362e9c)" d="M 224.33125 226.454 
L 400.690343 226.454 
L 400.690343 244.006 
L 224.33125 244.006 
z
" style="fill:#9fc1d6;"/>
   </g>
   <g id="matplotlib.axis_1">
    <g id="xtick_1">
     <g id="line2d_1">
      <defs>
       <path d="M 0 0 
L 0 3.5 
" id="m97ecab0b75" style="stroke:#000000;stroke-width:0.8;"/>
      </defs>
      <g>
       <use style="stroke:#000000;stroke-width:0.8;" x="224.33125" xlink:href="#m97ecab0b75" y="246.2"/>
      </g>
     </g>
     <g id="text_1">
      <!-- 0.00 -->
      <defs>
       <path d="M 31.78125 66.40625 
Q 24.171875 66.40625 20.328125 58.90625 
Q 16.5 51.421875 16.5 36.375 
Q 16.5 21.390625 20.328125 13.890625 
Q 24.171875 6.390625 31.78125 6.390625 
Q 39.453125 6.390625 43.28125 13.890625 
Q 47.125 21.390625 47.125 36.375 
Q 47.125 51.421875 43.28125 58.90625 
Q 39.453125 66.40625 31.78125 66.40625 
z
M 31.78125 74.21875 
Q 44.046875 74.21875 50.515625 64.515625 
Q 56.984375 54.828125 56.984375 36.375 
Q 56.984375 17.96875 50.515625 8.265625 
Q 44.046875 -1.421875 31.78125 -1.421875 
Q 19.53125 -1.421875 13.0625 8.265625 
Q 6.59375 17.96875 6.59375 36.375 
Q 6.59375 54.828125 13.0625 64.515625 
Q 19.53125 74.21875 31.78125 74.21875 
z
" id="DejaVuSans-48"/>
       <path d="M 10.6875 12.40625 
L 21 12.40625 
L 21 0 
L 10.6875 0 
z
" id="DejaVuSans-46"/>
      </defs>
      <g transform="translate(213.198438 260.798437)scale(0.1 -0.1)">
       <use xlink:href="#DejaVuSans-48"/>
       <use x="63.623047" xlink:href="#DejaVuSans-46"/>
       <use x="95.410156" xlink:href="#DejaVuSans-48"/>
       <use x="159.033203" xlink:href="#DejaVuSans-48"/>
      </g>
     </g>
    </g>
    <g id="xtick_2">
     <g id="line2d_2">
      <g>
       <use style="stroke:#000000;stroke-width:0.8;" x="270.280407" xlink:href="#m97ecab0b75" y="246.2"/>
      </g>
     </g>
     <g id="text_2">
      <!-- 0.05 -->
      <defs>
       <path d="M 10.796875 72.90625 
L 49.515625 72.90625 
L 49.515625 64.59375 
L 19.828125 64.59375 
L 19.828125 46.734375 
Q 21.96875 47.46875 24.109375 47.828125 
Q 26.265625 48.1875 28.421875 48.1875 
Q 40.625 48.1875 47.75 41.5 
Q 54.890625 34.8125 54.890625 23.390625 
Q 54.890625 11.625 47.5625 5.09375 
Q 40.234375 -1.421875 26.90625 -1.421875 
Q 22.3125 -1.421875 17.546875 -0.640625 
Q 12.796875 0.140625 7.71875 1.703125 
L 7.71875 11.625 
Q 12.109375 9.234375 16.796875 8.0625 
Q 21.484375 6.890625 26.703125 6.890625 
Q 35.15625 6.890625 40.078125 11.328125 
Q 45.015625 15.765625 45.015625 23.390625 
Q 45.015625 31 40.078125 35.4375 
Q 35.15625 39.890625 26.703125 39.890625 
Q 22.75 39.890625 18.8125 39.015625 
Q 14.890625 38.140625 10.796875 36.28125 
z
" id="DejaVuSans-53"/>
      </defs>
      <g transform="translate(259.147595 260.798437)scale(0.1 -0.1)">
       <use xlink:href="#DejaVuSans-48"/>
       <use x="63.623047" xlink:href="#DejaVuSans-46"/>
       <use x="95.410156" xlink:href="#DejaVuSans-48"/>
       <use x="159.033203" xlink:href="#DejaVuSans-53"/>
      </g>
     </g>
    </g>
    <g id="xtick_3">
     <g id="line2d_3">
      <g>
       <use style="stroke:#000000;stroke-width:0.8;" x="316.229564" xlink:href="#m97ecab0b75" y="246.2"/>
      </g>
     </g>
     <g id="text_3">
      <!-- 0.10 -->
      <defs>
       <path d="M 12.40625 8.296875 
L 28.515625 8.296875 
L 28.515625 63.921875 
L 10.984375 60.40625 
L 10.984375 69.390625 
L 28.421875 72.90625 
L 38.28125 72.90625 
L 38.28125 8.296875 
L 54.390625 8.296875 
L 54.390625 0 
L 12.40625 0 
z
" id="DejaVuSans-49"/>
      </defs>
      <g transform="translate(305.096752 260.798437)scale(0.1 -0.1)">
       <use xlink:href="#DejaVuSans-48"/>
       <use x="63.623047" xlink:href="#DejaVuSans-46"/>
       <use x="95.410156" xlink:href="#DejaVuSans-49"/>
       <use x="159.033203" xlink:href="#DejaVuSans-48"/>
      </g>
     </g>
    </g>
    <g id="xtick_4">
     <g id="line2d_4">
      <g>
       <use style="stroke:#000000;stroke-width:0.8;" x="362.178721" xlink:href="#m97ecab0b75" y="246.2"/>
      </g>
     </g>
     <g id="text_4">
      <!-- 0.15 -->
      <g transform="translate(351.045909 260.798437)scale(0.1 -0.1)">
       <use xlink:href="#DejaVuSans-48"/>
       <use x="63.623047" xlink:href="#DejaVuSans-46"/>
       <use x="95.410156" xlink:href="#DejaVuSans-49"/>
       <use x="159.033203" xlink:href="#DejaVuSans-53"/>
      </g>
     </g>
    </g>
    <g id="xtick_5">
     <g id="line2d_5">
      <g>
       <use style="stroke:#000000;stroke-width:0.8;" x="408.127878" xlink:href="#m97ecab0b75" y="246.2"/>
      </g>
     </g>
     <g id="text_5">
      <!-- 0.20 -->
      <defs>
       <path d="M 19.1875 8.296875 
L 53.609375 8.296875 
L 53.609375 0 
L 7.328125 0 
L 7.328125 8.296875 
Q 12.9375 14.109375 22.625 23.890625 
Q 32.328125 33.6875 34.8125 36.53125 
Q 39.546875 41.84375 41.421875 45.53125 
Q 43.3125 49.21875 43.3125 52.78125 
Q 43.3125 58.59375 39.234375 62.25 
Q 35.15625 65.921875 28.609375 65.921875 
Q 23.96875 65.921875 18.8125 64.3125 
Q 13.671875 62.703125 7.8125 59.421875 
L 7.8125 69.390625 
Q 13.765625 71.78125 18.9375 73 
Q 24.125 74.21875 28.421875 74.21875 
Q 39.75 74.21875 46.484375 68.546875 
Q 53.21875 62.890625 53.21875 53.421875 
Q 53.21875 48.921875 51.53125 44.890625 
Q 49.859375 40.875 45.40625 35.40625 
Q 44.1875 33.984375 37.640625 27.21875 
Q 31.109375 20.453125 19.1875 8.296875 
z
" id="DejaVuSans-50"/>
      </defs>
      <g transform="translate(396.995066 260.798437)scale(0.1 -0.1)">
       <use xlink:href="#DejaVuSans-48"/>
       <use x="63.623047" xlink:href="#DejaVuSans-46"/>
       <use x="95.410156" xlink:href="#DejaVuSans-50"/>
       <use x="159.033203" xlink:href="#DejaVuSans-48"/>
      </g>
     </g>
    </g>
    <g id="text_6">
     <!-- distance -->
     <defs>
      <path d="M 45.40625 46.390625 
L 45.40625 75.984375 
L 54.390625 75.984375 
L 54.390625 0 
L 45.40625 0 
L 45.40625 8.203125 
Q 42.578125 3.328125 38.25 0.953125 
Q 33.9375 -1.421875 27.875 -1.421875 
Q 17.96875 -1.421875 11.734375 6.484375 
Q 5.515625 14.40625 5.515625 27.296875 
Q 5.515625 40.1875 11.734375 48.09375 
Q 17.96875 56 27.875 56 
Q 33.9375 56 38.25 53.625 
Q 42.578125 51.265625 45.40625 46.390625 
z
M 14.796875 27.296875 
Q 14.796875 17.390625 18.875 11.75 
Q 22.953125 6.109375 30.078125 6.109375 
Q 37.203125 6.109375 41.296875 11.75 
Q 45.40625 17.390625 45.40625 27.296875 
Q 45.40625 37.203125 41.296875 42.84375 
Q 37.203125 48.484375 30.078125 48.484375 
Q 22.953125 48.484375 18.875 42.84375 
Q 14.796875 37.203125 14.796875 27.296875 
z
" id="DejaVuSans-100"/>
      <path d="M 9.421875 54.6875 
L 18.40625 54.6875 
L 18.40625 0 
L 9.421875 0 
z
M 9.421875 75.984375 
L 18.40625 75.984375 
L 18.40625 64.59375 
L 9.421875 64.59375 
z
" id="DejaVuSans-105"/>
      <path d="M 44.28125 53.078125 
L 44.28125 44.578125 
Q 40.484375 46.53125 36.375 47.5 
Q 32.28125 48.484375 27.875 48.484375 
Q 21.1875 48.484375 17.84375 46.4375 
Q 14.5 44.390625 14.5 40.28125 
Q 14.5 37.15625 16.890625 35.375 
Q 19.28125 33.59375 26.515625 31.984375 
L 29.59375 31.296875 
Q 39.15625 29.25 43.1875 25.515625 
Q 47.21875 21.78125 47.21875 15.09375 
Q 47.21875 7.46875 41.1875 3.015625 
Q 35.15625 -1.421875 24.609375 -1.421875 
Q 20.21875 -1.421875 15.453125 -0.5625 
Q 10.6875 0.296875 5.421875 2 
L 5.421875 11.28125 
Q 10.40625 8.6875 15.234375 7.390625 
Q 20.0625 6.109375 24.8125 6.109375 
Q 31.15625 6.109375 34.5625 8.28125 
Q 37.984375 10.453125 37.984375 14.40625 
Q 37.984375 18.0625 35.515625 20.015625 
Q 33.0625 21.96875 24.703125 23.78125 
L 21.578125 24.515625 
Q 13.234375 26.265625 9.515625 29.90625 
Q 5.8125 33.546875 5.8125 39.890625 
Q 5.8125 47.609375 11.28125 51.796875 
Q 16.75 56 26.8125 56 
Q 31.78125 56 36.171875 55.265625 
Q 40.578125 54.546875 44.28125 53.078125 
z
" id="DejaVuSans-115"/>
      <path d="M 18.3125 70.21875 
L 18.3125 54.6875 
L 36.8125 54.6875 
L 36.8125 47.703125 
L 18.3125 47.703125 
L 18.3125 18.015625 
Q 18.3125 11.328125 20.140625 9.421875 
Q 21.96875 7.515625 27.59375 7.515625 
L 36.8125 7.515625 
L 36.8125 0 
L 27.59375 0 
Q 17.1875 0 13.234375 3.875 
Q 9.28125 7.765625 9.28125 18.015625 
L 9.28125 47.703125 
L 2.6875 47.703125 
L 2.6875 54.6875 
L 9.28125 54.6875 
L 9.28125 70.21875 
z
" id="DejaVuSans-116"/>
      <path d="M 34.28125 27.484375 
Q 23.390625 27.484375 19.1875 25 
Q 14.984375 22.515625 14.984375 16.5 
Q 14.984375 11.71875 18.140625 8.90625 
Q 21.296875 6.109375 26.703125 6.109375 
Q 34.1875 6.109375 38.703125 11.40625 
Q 43.21875 16.703125 43.21875 25.484375 
L 43.21875 27.484375 
z
M 52.203125 31.203125 
L 52.203125 0 
L 43.21875 0 
L 43.21875 8.296875 
Q 40.140625 3.328125 35.546875 0.953125 
Q 30.953125 -1.421875 24.3125 -1.421875 
Q 15.921875 -1.421875 10.953125 3.296875 
Q 6 8.015625 6 15.921875 
Q 6 25.140625 12.171875 29.828125 
Q 18.359375 34.515625 30.609375 34.515625 
L 43.21875 34.515625 
L 43.21875 35.40625 
Q 43.21875 41.609375 39.140625 45 
Q 35.0625 48.390625 27.6875 48.390625 
Q 23 48.390625 18.546875 47.265625 
Q 14.109375 46.140625 10.015625 43.890625 
L 10.015625 52.203125 
Q 14.9375 54.109375 19.578125 55.046875 
Q 24.21875 56 28.609375 56 
Q 40.484375 56 46.34375 49.84375 
Q 52.203125 43.703125 52.203125 31.203125 
z
" id="DejaVuSans-97"/>
      <path d="M 54.890625 33.015625 
L 54.890625 0 
L 45.90625 0 
L 45.90625 32.71875 
Q 45.90625 40.484375 42.875 44.328125 
Q 39.84375 48.1875 33.796875 48.1875 
Q 26.515625 48.1875 22.3125 43.546875 
Q 18.109375 38.921875 18.109375 30.90625 
L 18.109375 0 
L 9.078125 0 
L 9.078125 54.6875 
L 18.109375 54.6875 
L 18.109375 46.1875 
Q 21.34375 51.125 25.703125 53.5625 
Q 30.078125 56 35.796875 56 
Q 45.21875 56 50.046875 50.171875 
Q 54.890625 44.34375 54.890625 33.015625 
z
" id="DejaVuSans-110"/>
      <path d="M 48.78125 52.59375 
L 48.78125 44.1875 
Q 44.96875 46.296875 41.140625 47.34375 
Q 37.3125 48.390625 33.40625 48.390625 
Q 24.65625 48.390625 19.8125 42.84375 
Q 14.984375 37.3125 14.984375 27.296875 
Q 14.984375 17.28125 19.8125 11.734375 
Q 24.65625 6.203125 33.40625 6.203125 
Q 37.3125 6.203125 41.140625 7.25 
Q 44.96875 8.296875 48.78125 10.40625 
L 48.78125 2.09375 
Q 45.015625 0.34375 40.984375 -0.53125 
Q 36.96875 -1.421875 32.421875 -1.421875 
Q 20.0625 -1.421875 12.78125 6.34375 
Q 5.515625 14.109375 5.515625 27.296875 
Q 5.515625 40.671875 12.859375 48.328125 
Q 20.21875 56 33.015625 56 
Q 37.15625 56 41.109375 55.140625 
Q 45.0625 54.296875 48.78125 52.59375 
z
" id="DejaVuSans-99"/>
      <path d="M 56.203125 29.59375 
L 56.203125 25.203125 
L 14.890625 25.203125 
Q 15.484375 15.921875 20.484375 11.0625 
Q 25.484375 6.203125 34.421875 6.203125 
Q 39.59375 6.203125 44.453125 7.46875 
Q 49.3125 8.734375 54.109375 11.28125 
L 54.109375 2.78125 
Q 49.265625 0.734375 44.1875 -0.34375 
Q 39.109375 -1.421875 33.890625 -1.421875 
Q 20.796875 -1.421875 13.15625 6.1875 
Q 5.515625 13.8125 5.515625 26.8125 
Q 5.515625 40.234375 12.765625 48.109375 
Q 20.015625 56 32.328125 56 
Q 43.359375 56 49.78125 48.890625 
Q 56.203125 41.796875 56.203125 29.59375 
z
M 47.21875 32.234375 
Q 47.125 39.59375 43.09375 43.984375 
Q 39.0625 48.390625 32.421875 48.390625 
Q 24.90625 48.390625 20.390625 44.140625 
Q 15.875 39.890625 15.1875 32.171875 
z
" id="DejaVuSans-101"/>
     </defs>
     <g transform="translate(295.733055 274.476562)scale(0.1 -0.1)">
      <use xlink:href="#DejaVuSans-100"/>
      <use x="63.476562" xlink:href="#DejaVuSans-105"/>
      <use x="91.259766" xlink:href="#DejaVuSans-115"/>
      <use x="143.359375" xlink:href="#DejaVuSans-116"/>
      <use x="182.568359" xlink:href="#DejaVuSans-97"/>
      <use x="243.847656" xlink:href="#DejaVuSans-110"/>
      <use x="307.226562" xlink:href="#DejaVuSans-99"/>
      <use x="362.207031" xlink:href="#DejaVuSans-101"/>
     </g>
    </g>
   </g>
   <g id="matplotlib.axis_2">
    <g id="ytick_1">
     <g id="line2d_6">
      <defs>
       <path d="M 0 0 
L -3.5 0 
" id="m0ed4a26021" style="stroke:#000000;stroke-width:0.8;"/>
      </defs>
      <g>
       <use style="stroke:#000000;stroke-width:0.8;" x="224.33125" xlink:href="#m0ed4a26021" y="37.77"/>
      </g>
     </g>
     <g id="text_7">
      <!-- Kendrick Lamar: Alright -->
      <defs>
       <path d="M 9.8125 72.90625 
L 19.671875 72.90625 
L 19.671875 42.09375 
L 52.390625 72.90625 
L 65.09375 72.90625 
L 28.90625 38.921875 
L 67.671875 0 
L 54.6875 0 
L 19.671875 35.109375 
L 19.671875 0 
L 9.8125 0 
z
" id="DejaVuSans-75"/>
       <path d="M 41.109375 46.296875 
Q 39.59375 47.171875 37.8125 47.578125 
Q 36.03125 48 33.890625 48 
Q 26.265625 48 22.1875 43.046875 
Q 18.109375 38.09375 18.109375 28.8125 
L 18.109375 0 
L 9.078125 0 
L 9.078125 54.6875 
L 18.109375 54.6875 
L 18.109375 46.1875 
Q 20.953125 51.171875 25.484375 53.578125 
Q 30.03125 56 36.53125 56 
Q 37.453125 56 38.578125 55.875 
Q 39.703125 55.765625 41.0625 55.515625 
z
" id="DejaVuSans-114"/>
       <path d="M 9.078125 75.984375 
L 18.109375 75.984375 
L 18.109375 31.109375 
L 44.921875 54.6875 
L 56.390625 54.6875 
L 27.390625 29.109375 
L 57.625 0 
L 45.90625 0 
L 18.109375 26.703125 
L 18.109375 0 
L 9.078125 0 
z
" id="DejaVuSans-107"/>
       <path id="DejaVuSans-32"/>
       <path d="M 9.8125 72.90625 
L 19.671875 72.90625 
L 19.671875 8.296875 
L 55.171875 8.296875 
L 55.171875 0 
L 9.8125 0 
z
" id="DejaVuSans-76"/>
       <path d="M 52 44.1875 
Q 55.375 50.25 60.0625 53.125 
Q 64.75 56 71.09375 56 
Q 79.640625 56 84.28125 50.015625 
Q 88.921875 44.046875 88.921875 33.015625 
L 88.921875 0 
L 79.890625 0 
L 79.890625 32.71875 
Q 79.890625 40.578125 77.09375 44.375 
Q 74.3125 48.1875 68.609375 48.1875 
Q 61.625 48.1875 57.5625 43.546875 
Q 53.515625 38.921875 53.515625 30.90625 
L 53.515625 0 
L 44.484375 0 
L 44.484375 32.71875 
Q 44.484375 40.625 41.703125 44.40625 
Q 38.921875 48.1875 33.109375 48.1875 
Q 26.21875 48.1875 22.15625 43.53125 
Q 18.109375 38.875 18.109375 30.90625 
L 18.109375 0 
L 9.078125 0 
L 9.078125 54.6875 
L 18.109375 54.6875 
L 18.109375 46.1875 
Q 21.1875 51.21875 25.484375 53.609375 
Q 29.78125 56 35.6875 56 
Q 41.65625 56 45.828125 52.96875 
Q 50 49.953125 52 44.1875 
z
" id="DejaVuSans-109"/>
       <path d="M 11.71875 12.40625 
L 22.015625 12.40625 
L 22.015625 0 
L 11.71875 0 
z
M 11.71875 51.703125 
L 22.015625 51.703125 
L 22.015625 39.3125 
L 11.71875 39.3125 
z
" id="DejaVuSans-58"/>
       <path d="M 34.1875 63.1875 
L 20.796875 26.90625 
L 47.609375 26.90625 
z
M 28.609375 72.90625 
L 39.796875 72.90625 
L 67.578125 0 
L 57.328125 0 
L 50.6875 18.703125 
L 17.828125 18.703125 
L 11.1875 0 
L 0.78125 0 
z
" id="DejaVuSans-65"/>
       <path d="M 9.421875 75.984375 
L 18.40625 75.984375 
L 18.40625 0 
L 9.421875 0 
z
" id="DejaVuSans-108"/>
       <path d="M 45.40625 27.984375 
Q 45.40625 37.75 41.375 43.109375 
Q 37.359375 48.484375 30.078125 48.484375 
Q 22.859375 48.484375 18.828125 43.109375 
Q 14.796875 37.75 14.796875 27.984375 
Q 14.796875 18.265625 18.828125 12.890625 
Q 22.859375 7.515625 30.078125 7.515625 
Q 37.359375 7.515625 41.375 12.890625 
Q 45.40625 18.265625 45.40625 27.984375 
z
M 54.390625 6.78125 
Q 54.390625 -7.171875 48.1875 -13.984375 
Q 42 -20.796875 29.203125 -20.796875 
Q 24.46875 -20.796875 20.265625 -20.09375 
Q 16.0625 -19.390625 12.109375 -17.921875 
L 12.109375 -9.1875 
Q 16.0625 -11.328125 19.921875 -12.34375 
Q 23.78125 -13.375 27.78125 -13.375 
Q 36.625 -13.375 41.015625 -8.765625 
Q 45.40625 -4.15625 45.40625 5.171875 
L 45.40625 9.625 
Q 42.625 4.78125 38.28125 2.390625 
Q 33.9375 0 27.875 0 
Q 17.828125 0 11.671875 7.65625 
Q 5.515625 15.328125 5.515625 27.984375 
Q 5.515625 40.671875 11.671875 48.328125 
Q 17.828125 56 27.875 56 
Q 33.9375 56 38.28125 53.609375 
Q 42.625 51.21875 45.40625 46.390625 
L 45.40625 54.6875 
L 54.390625 54.6875 
z
" id="DejaVuSans-103"/>
       <path d="M 54.890625 33.015625 
L 54.890625 0 
L 45.90625 0 
L 45.90625 32.71875 
Q 45.90625 40.484375 42.875 44.328125 
Q 39.84375 48.1875 33.796875 48.1875 
Q 26.515625 48.1875 22.3125 43.546875 
Q 18.109375 38.921875 18.109375 30.90625 
L 18.109375 0 
L 9.078125 0 
L 9.078125 75.984375 
L 18.109375 75.984375 
L 18.109375 46.1875 
Q 21.34375 51.125 25.703125 53.5625 
Q 30.078125 56 35.796875 56 
Q 45.21875 56 50.046875 50.171875 
Q 54.890625 44.34375 54.890625 33.015625 
z
" id="DejaVuSans-104"/>
      </defs>
      <g transform="translate(99.246875 41.569219)scale(0.1 -0.1)">
       <use xlink:href="#DejaVuSans-75"/>
       <use x="65.498047" xlink:href="#DejaVuSans-101"/>
       <use x="127.021484" xlink:href="#DejaVuSans-110"/>
       <use x="190.400391" xlink:href="#DejaVuSans-100"/>
       <use x="253.876953" xlink:href="#DejaVuSans-114"/>
       <use x="294.990234" xlink:href="#DejaVuSans-105"/>
       <use x="322.773438" xlink:href="#DejaVuSans-99"/>
       <use x="377.753906" xlink:href="#DejaVuSans-107"/>
       <use x="435.664062" xlink:href="#DejaVuSans-32"/>
       <use x="467.451172" xlink:href="#DejaVuSans-76"/>
       <use x="523.164062" xlink:href="#DejaVuSans-97"/>
       <use x="584.443359" xlink:href="#DejaVuSans-109"/>
       <use x="681.855469" xlink:href="#DejaVuSans-97"/>
       <use x="743.134766" xlink:href="#DejaVuSans-114"/>
       <use x="784.232422" xlink:href="#DejaVuSans-58"/>
       <use x="817.923828" xlink:href="#DejaVuSans-32"/>
       <use x="849.710938" xlink:href="#DejaVuSans-65"/>
       <use x="918.119141" xlink:href="#DejaVuSans-108"/>
       <use x="945.902344" xlink:href="#DejaVuSans-114"/>
       <use x="987.015625" xlink:href="#DejaVuSans-105"/>
       <use x="1014.798828" xlink:href="#DejaVuSans-103"/>
       <use x="1078.275391" xlink:href="#DejaVuSans-104"/>
       <use x="1141.654297" xlink:href="#DejaVuSans-116"/>
      </g>
     </g>
    </g>
    <g id="ytick_2">
     <g id="line2d_7">
      <g>
       <use style="stroke:#000000;stroke-width:0.8;" x="224.33125" xlink:href="#m0ed4a26021" y="59.71"/>
      </g>
     </g>
     <g id="text_8">
      <!-- Lexxmatiq: Squat -->
      <defs>
       <path d="M 54.890625 54.6875 
L 35.109375 28.078125 
L 55.90625 0 
L 45.3125 0 
L 29.390625 21.484375 
L 13.484375 0 
L 2.875 0 
L 24.125 28.609375 
L 4.6875 54.6875 
L 15.28125 54.6875 
L 29.78125 35.203125 
L 44.28125 54.6875 
z
" id="DejaVuSans-120"/>
       <path d="M 14.796875 27.296875 
Q 14.796875 17.390625 18.875 11.75 
Q 22.953125 6.109375 30.078125 6.109375 
Q 37.203125 6.109375 41.296875 11.75 
Q 45.40625 17.390625 45.40625 27.296875 
Q 45.40625 37.203125 41.296875 42.84375 
Q 37.203125 48.484375 30.078125 48.484375 
Q 22.953125 48.484375 18.875 42.84375 
Q 14.796875 37.203125 14.796875 27.296875 
z
M 45.40625 8.203125 
Q 42.578125 3.328125 38.25 0.953125 
Q 33.9375 -1.421875 27.875 -1.421875 
Q 17.96875 -1.421875 11.734375 6.484375 
Q 5.515625 14.40625 5.515625 27.296875 
Q 5.515625 40.1875 11.734375 48.09375 
Q 17.96875 56 27.875 56 
Q 33.9375 56 38.25 53.625 
Q 42.578125 51.265625 45.40625 46.390625 
L 45.40625 54.6875 
L 54.390625 54.6875 
L 54.390625 -20.796875 
L 45.40625 -20.796875 
z
" id="DejaVuSans-113"/>
       <path d="M 53.515625 70.515625 
L 53.515625 60.890625 
Q 47.90625 63.578125 42.921875 64.890625 
Q 37.9375 66.21875 33.296875 66.21875 
Q 25.25 66.21875 20.875 63.09375 
Q 16.5 59.96875 16.5 54.203125 
Q 16.5 49.359375 19.40625 46.890625 
Q 22.3125 44.4375 30.421875 42.921875 
L 36.375 41.703125 
Q 47.40625 39.59375 52.65625 34.296875 
Q 57.90625 29 57.90625 20.125 
Q 57.90625 9.515625 50.796875 4.046875 
Q 43.703125 -1.421875 29.984375 -1.421875 
Q 24.8125 -1.421875 18.96875 -0.25 
Q 13.140625 0.921875 6.890625 3.21875 
L 6.890625 13.375 
Q 12.890625 10.015625 18.65625 8.296875 
Q 24.421875 6.59375 29.984375 6.59375 
Q 38.421875 6.59375 43.015625 9.90625 
Q 47.609375 13.234375 47.609375 19.390625 
Q 47.609375 24.75 44.3125 27.78125 
Q 41.015625 30.8125 33.5 32.328125 
L 27.484375 33.5 
Q 16.453125 35.6875 11.515625 40.375 
Q 6.59375 45.0625 6.59375 53.421875 
Q 6.59375 63.09375 13.40625 68.65625 
Q 20.21875 74.21875 32.171875 74.21875 
Q 37.3125 74.21875 42.625 73.28125 
Q 47.953125 72.359375 53.515625 70.515625 
z
" id="DejaVuSans-83"/>
       <path d="M 8.5 21.578125 
L 8.5 54.6875 
L 17.484375 54.6875 
L 17.484375 21.921875 
Q 17.484375 14.15625 20.5 10.265625 
Q 23.53125 6.390625 29.59375 6.390625 
Q 36.859375 6.390625 41.078125 11.03125 
Q 45.3125 15.671875 45.3125 23.6875 
L 45.3125 54.6875 
L 54.296875 54.6875 
L 54.296875 0 
L 45.3125 0 
L 45.3125 8.40625 
Q 42.046875 3.421875 37.71875 1 
Q 33.40625 -1.421875 27.6875 -1.421875 
Q 18.265625 -1.421875 13.375 4.4375 
Q 8.5 10.296875 8.5 21.578125 
z
M 31.109375 56 
z
" id="DejaVuSans-117"/>
      </defs>
      <g transform="translate(129.226562 63.509219)scale(0.1 -0.1)">
       <use xlink:href="#DejaVuSans-76"/>
       <use x="55.697266" xlink:href="#DejaVuSans-101"/>
       <use x="117.205078" xlink:href="#DejaVuSans-120"/>
       <use x="176.384766" xlink:href="#DejaVuSans-120"/>
       <use x="235.564453" xlink:href="#DejaVuSans-109"/>
       <use x="332.976562" xlink:href="#DejaVuSans-97"/>
       <use x="394.255859" xlink:href="#DejaVuSans-116"/>
       <use x="433.464844" xlink:href="#DejaVuSans-105"/>
       <use x="461.248047" xlink:href="#DejaVuSans-113"/>
       <use x="524.724609" xlink:href="#DejaVuSans-58"/>
       <use x="558.416016" xlink:href="#DejaVuSans-32"/>
       <use x="590.203125" xlink:href="#DejaVuSans-83"/>
       <use x="653.679688" xlink:href="#DejaVuSans-113"/>
       <use x="717.15625" xlink:href="#DejaVuSans-117"/>
       <use x="780.535156" xlink:href="#DejaVuSans-97"/>
       <use x="841.814453" xlink:href="#DejaVuSans-116"/>
      </g>
     </g>
    </g>
    <g id="ytick_3">
     <g id="line2d_8">
      <g>
       <use style="stroke:#000000;stroke-width:0.8;" x="224.33125" xlink:href="#m0ed4a26021" y="81.65"/>
      </g>
     </g>
     <g id="text_9">
      <!-- Priceless Da Roc: Lil Booties Matter -->
      <defs>
       <path d="M 19.671875 64.796875 
L 19.671875 37.40625 
L 32.078125 37.40625 
Q 38.96875 37.40625 42.71875 40.96875 
Q 46.484375 44.53125 46.484375 51.125 
Q 46.484375 57.671875 42.71875 61.234375 
Q 38.96875 64.796875 32.078125 64.796875 
z
M 9.8125 72.90625 
L 32.078125 72.90625 
Q 44.34375 72.90625 50.609375 67.359375 
Q 56.890625 61.8125 56.890625 51.125 
Q 56.890625 40.328125 50.609375 34.8125 
Q 44.34375 29.296875 32.078125 29.296875 
L 19.671875 29.296875 
L 19.671875 0 
L 9.8125 0 
z
" id="DejaVuSans-80"/>
       <path d="M 19.671875 64.796875 
L 19.671875 8.109375 
L 31.59375 8.109375 
Q 46.6875 8.109375 53.6875 14.9375 
Q 60.6875 21.78125 60.6875 36.53125 
Q 60.6875 51.171875 53.6875 57.984375 
Q 46.6875 64.796875 31.59375 64.796875 
z
M 9.8125 72.90625 
L 30.078125 72.90625 
Q 51.265625 72.90625 61.171875 64.09375 
Q 71.09375 55.28125 71.09375 36.53125 
Q 71.09375 17.671875 61.125 8.828125 
Q 51.171875 0 30.078125 0 
L 9.8125 0 
z
" id="DejaVuSans-68"/>
       <path d="M 44.390625 34.1875 
Q 47.5625 33.109375 50.5625 29.59375 
Q 53.5625 26.078125 56.59375 19.921875 
L 66.609375 0 
L 56 0 
L 46.6875 18.703125 
Q 43.0625 26.03125 39.671875 28.421875 
Q 36.28125 30.8125 30.421875 30.8125 
L 19.671875 30.8125 
L 19.671875 0 
L 9.8125 0 
L 9.8125 72.90625 
L 32.078125 72.90625 
Q 44.578125 72.90625 50.734375 67.671875 
Q 56.890625 62.453125 56.890625 51.90625 
Q 56.890625 45.015625 53.6875 40.46875 
Q 50.484375 35.9375 44.390625 34.1875 
z
M 19.671875 64.796875 
L 19.671875 38.921875 
L 32.078125 38.921875 
Q 39.203125 38.921875 42.84375 42.21875 
Q 46.484375 45.515625 46.484375 51.90625 
Q 46.484375 58.296875 42.84375 61.546875 
Q 39.203125 64.796875 32.078125 64.796875 
z
" id="DejaVuSans-82"/>
       <path d="M 30.609375 48.390625 
Q 23.390625 48.390625 19.1875 42.75 
Q 14.984375 37.109375 14.984375 27.296875 
Q 14.984375 17.484375 19.15625 11.84375 
Q 23.34375 6.203125 30.609375 6.203125 
Q 37.796875 6.203125 41.984375 11.859375 
Q 46.1875 17.53125 46.1875 27.296875 
Q 46.1875 37.015625 41.984375 42.703125 
Q 37.796875 48.390625 30.609375 48.390625 
z
M 30.609375 56 
Q 42.328125 56 49.015625 48.375 
Q 55.71875 40.765625 55.71875 27.296875 
Q 55.71875 13.875 49.015625 6.21875 
Q 42.328125 -1.421875 30.609375 -1.421875 
Q 18.84375 -1.421875 12.171875 6.21875 
Q 5.515625 13.875 5.515625 27.296875 
Q 5.515625 40.765625 12.171875 48.375 
Q 18.84375 56 30.609375 56 
z
" id="DejaVuSans-111"/>
       <path d="M 19.671875 34.8125 
L 19.671875 8.109375 
L 35.5 8.109375 
Q 43.453125 8.109375 47.28125 11.40625 
Q 51.125 14.703125 51.125 21.484375 
Q 51.125 28.328125 47.28125 31.5625 
Q 43.453125 34.8125 35.5 34.8125 
z
M 19.671875 64.796875 
L 19.671875 42.828125 
L 34.28125 42.828125 
Q 41.5 42.828125 45.03125 45.53125 
Q 48.578125 48.25 48.578125 53.8125 
Q 48.578125 59.328125 45.03125 62.0625 
Q 41.5 64.796875 34.28125 64.796875 
z
M 9.8125 72.90625 
L 35.015625 72.90625 
Q 46.296875 72.90625 52.390625 68.21875 
Q 58.5 63.53125 58.5 54.890625 
Q 58.5 48.1875 55.375 44.234375 
Q 52.25 40.28125 46.1875 39.3125 
Q 53.46875 37.75 57.5 32.78125 
Q 61.53125 27.828125 61.53125 20.40625 
Q 61.53125 10.640625 54.890625 5.3125 
Q 48.25 0 35.984375 0 
L 9.8125 0 
z
" id="DejaVuSans-66"/>
       <path d="M 9.8125 72.90625 
L 24.515625 72.90625 
L 43.109375 23.296875 
L 61.8125 72.90625 
L 76.515625 72.90625 
L 76.515625 0 
L 66.890625 0 
L 66.890625 64.015625 
L 48.09375 14.015625 
L 38.1875 14.015625 
L 19.390625 64.015625 
L 19.390625 0 
L 9.8125 0 
z
" id="DejaVuSans-77"/>
      </defs>
      <g transform="translate(40.617188 85.449219)scale(0.1 -0.1)">
       <use xlink:href="#DejaVuSans-80"/>
       <use x="60.287109" xlink:href="#DejaVuSans-114"/>
       <use x="101.400391" xlink:href="#DejaVuSans-105"/>
       <use x="129.183594" xlink:href="#DejaVuSans-99"/>
       <use x="184.164062" xlink:href="#DejaVuSans-101"/>
       <use x="245.6875" xlink:href="#DejaVuSans-108"/>
       <use x="273.470703" xlink:href="#DejaVuSans-101"/>
       <use x="334.994141" xlink:href="#DejaVuSans-115"/>
       <use x="387.09375" xlink:href="#DejaVuSans-115"/>
       <use x="439.193359" xlink:href="#DejaVuSans-32"/>
       <use x="470.980469" xlink:href="#DejaVuSans-68"/>
       <use x="547.982422" xlink:href="#DejaVuSans-97"/>
       <use x="609.261719" xlink:href="#DejaVuSans-32"/>
       <use x="641.048828" xlink:href="#DejaVuSans-82"/>
       <use x="710.46875" xlink:href="#DejaVuSans-111"/>
       <use x="771.650391" xlink:href="#DejaVuSans-99"/>
       <use x="826.630859" xlink:href="#DejaVuSans-58"/>
       <use x="860.322266" xlink:href="#DejaVuSans-32"/>
       <use x="892.109375" xlink:href="#DejaVuSans-76"/>
       <use x="947.822266" xlink:href="#DejaVuSans-105"/>
       <use x="975.605469" xlink:href="#DejaVuSans-108"/>
       <use x="1003.388672" xlink:href="#DejaVuSans-32"/>
       <use x="1035.175781" xlink:href="#DejaVuSans-66"/>
       <use x="1103.779297" xlink:href="#DejaVuSans-111"/>
       <use x="1164.960938" xlink:href="#DejaVuSans-111"/>
       <use x="1226.142578" xlink:href="#DejaVuSans-116"/>
       <use x="1265.351562" xlink:href="#DejaVuSans-105"/>
       <use x="1293.134766" xlink:href="#DejaVuSans-101"/>
       <use x="1354.658203" xlink:href="#DejaVuSans-115"/>
       <use x="1406.757812" xlink:href="#DejaVuSans-32"/>
       <use x="1438.544922" xlink:href="#DejaVuSans-77"/>
       <use x="1524.824219" xlink:href="#DejaVuSans-97"/>
       <use x="1586.103516" xlink:href="#DejaVuSans-116"/>
       <use x="1625.3125" xlink:href="#DejaVuSans-116"/>
       <use x="1664.521484" xlink:href="#DejaVuSans-101"/>
       <use x="1726.044922" xlink:href="#DejaVuSans-114"/>
      </g>
     </g>
    </g>
    <g id="ytick_4">
     <g id="line2d_9">
      <g>
       <use style="stroke:#000000;stroke-width:0.8;" x="224.33125" xlink:href="#m0ed4a26021" y="103.59"/>
      </g>
     </g>
     <g id="text_10">
      <!-- Geoffrey Golden: Expectation -->
      <defs>
       <path d="M 59.515625 10.40625 
L 59.515625 29.984375 
L 43.40625 29.984375 
L 43.40625 38.09375 
L 69.28125 38.09375 
L 69.28125 6.78125 
Q 63.578125 2.734375 56.6875 0.65625 
Q 49.8125 -1.421875 42 -1.421875 
Q 24.90625 -1.421875 15.25 8.5625 
Q 5.609375 18.5625 5.609375 36.375 
Q 5.609375 54.25 15.25 64.234375 
Q 24.90625 74.21875 42 74.21875 
Q 49.125 74.21875 55.546875 72.453125 
Q 61.96875 70.703125 67.390625 67.28125 
L 67.390625 56.78125 
Q 61.921875 61.421875 55.765625 63.765625 
Q 49.609375 66.109375 42.828125 66.109375 
Q 29.4375 66.109375 22.71875 58.640625 
Q 16.015625 51.171875 16.015625 36.375 
Q 16.015625 21.625 22.71875 14.15625 
Q 29.4375 6.6875 42.828125 6.6875 
Q 48.046875 6.6875 52.140625 7.59375 
Q 56.25 8.5 59.515625 10.40625 
z
" id="DejaVuSans-71"/>
       <path d="M 37.109375 75.984375 
L 37.109375 68.5 
L 28.515625 68.5 
Q 23.6875 68.5 21.796875 66.546875 
Q 19.921875 64.59375 19.921875 59.515625 
L 19.921875 54.6875 
L 34.71875 54.6875 
L 34.71875 47.703125 
L 19.921875 47.703125 
L 19.921875 0 
L 10.890625 0 
L 10.890625 47.703125 
L 2.296875 47.703125 
L 2.296875 54.6875 
L 10.890625 54.6875 
L 10.890625 58.5 
Q 10.890625 67.625 15.140625 71.796875 
Q 19.390625 75.984375 28.609375 75.984375 
z
" id="DejaVuSans-102"/>
       <path d="M 32.171875 -5.078125 
Q 28.375 -14.84375 24.75 -17.8125 
Q 21.140625 -20.796875 15.09375 -20.796875 
L 7.90625 -20.796875 
L 7.90625 -13.28125 
L 13.1875 -13.28125 
Q 16.890625 -13.28125 18.9375 -11.515625 
Q 21 -9.765625 23.484375 -3.21875 
L 25.09375 0.875 
L 2.984375 54.6875 
L 12.5 54.6875 
L 29.59375 11.921875 
L 46.6875 54.6875 
L 56.203125 54.6875 
z
" id="DejaVuSans-121"/>
       <path d="M 9.8125 72.90625 
L 55.90625 72.90625 
L 55.90625 64.59375 
L 19.671875 64.59375 
L 19.671875 43.015625 
L 54.390625 43.015625 
L 54.390625 34.71875 
L 19.671875 34.71875 
L 19.671875 8.296875 
L 56.78125 8.296875 
L 56.78125 0 
L 9.8125 0 
z
" id="DejaVuSans-69"/>
       <path d="M 18.109375 8.203125 
L 18.109375 -20.796875 
L 9.078125 -20.796875 
L 9.078125 54.6875 
L 18.109375 54.6875 
L 18.109375 46.390625 
Q 20.953125 51.265625 25.265625 53.625 
Q 29.59375 56 35.59375 56 
Q 45.5625 56 51.78125 48.09375 
Q 58.015625 40.1875 58.015625 27.296875 
Q 58.015625 14.40625 51.78125 6.484375 
Q 45.5625 -1.421875 35.59375 -1.421875 
Q 29.59375 -1.421875 25.265625 0.953125 
Q 20.953125 3.328125 18.109375 8.203125 
z
M 48.6875 27.296875 
Q 48.6875 37.203125 44.609375 42.84375 
Q 40.53125 48.484375 33.40625 48.484375 
Q 26.265625 48.484375 22.1875 42.84375 
Q 18.109375 37.203125 18.109375 27.296875 
Q 18.109375 17.390625 22.1875 11.75 
Q 26.265625 6.109375 33.40625 6.109375 
Q 40.53125 6.109375 44.609375 11.75 
Q 48.6875 17.390625 48.6875 27.296875 
z
" id="DejaVuSans-112"/>
      </defs>
      <g transform="translate(69.440625 107.389219)scale(0.1 -0.1)">
       <use xlink:href="#DejaVuSans-71"/>
       <use x="77.490234" xlink:href="#DejaVuSans-101"/>
       <use x="139.013672" xlink:href="#DejaVuSans-111"/>
       <use x="200.195312" xlink:href="#DejaVuSans-102"/>
       <use x="235.400391" xlink:href="#DejaVuSans-102"/>
       <use x="270.605469" xlink:href="#DejaVuSans-114"/>
       <use x="311.6875" xlink:href="#DejaVuSans-101"/>
       <use x="373.210938" xlink:href="#DejaVuSans-121"/>
       <use x="432.390625" xlink:href="#DejaVuSans-32"/>
       <use x="464.177734" xlink:href="#DejaVuSans-71"/>
       <use x="541.667969" xlink:href="#DejaVuSans-111"/>
       <use x="602.849609" xlink:href="#DejaVuSans-108"/>
       <use x="630.632812" xlink:href="#DejaVuSans-100"/>
       <use x="694.109375" xlink:href="#DejaVuSans-101"/>
       <use x="755.632812" xlink:href="#DejaVuSans-110"/>
       <use x="819.011719" xlink:href="#DejaVuSans-58"/>
       <use x="852.703125" xlink:href="#DejaVuSans-32"/>
       <use x="884.490234" xlink:href="#DejaVuSans-69"/>
       <use x="947.673828" xlink:href="#DejaVuSans-120"/>
       <use x="1006.853516" xlink:href="#DejaVuSans-112"/>
       <use x="1070.330078" xlink:href="#DejaVuSans-101"/>
       <use x="1131.853516" xlink:href="#DejaVuSans-99"/>
       <use x="1186.833984" xlink:href="#DejaVuSans-116"/>
       <use x="1226.042969" xlink:href="#DejaVuSans-97"/>
       <use x="1287.322266" xlink:href="#DejaVuSans-116"/>
       <use x="1326.53125" xlink:href="#DejaVuSans-105"/>
       <use x="1354.314453" xlink:href="#DejaVuSans-111"/>
       <use x="1415.496094" xlink:href="#DejaVuSans-110"/>
      </g>
     </g>
    </g>
    <g id="ytick_5">
     <g id="line2d_10">
      <g>
       <use style="stroke:#000000;stroke-width:0.8;" x="224.33125" xlink:href="#m0ed4a26021" y="125.53"/>
      </g>
     </g>
     <g id="text_11">
      <!-- Sepideh Vaziri: I Will Survive -->
      <defs>
       <path d="M 28.609375 0 
L 0.78125 72.90625 
L 11.078125 72.90625 
L 34.1875 11.53125 
L 57.328125 72.90625 
L 67.578125 72.90625 
L 39.796875 0 
z
" id="DejaVuSans-86"/>
       <path d="M 5.515625 54.6875 
L 48.1875 54.6875 
L 48.1875 46.484375 
L 14.40625 7.171875 
L 48.1875 7.171875 
L 48.1875 0 
L 4.296875 0 
L 4.296875 8.203125 
L 38.09375 47.515625 
L 5.515625 47.515625 
z
" id="DejaVuSans-122"/>
       <path d="M 9.8125 72.90625 
L 19.671875 72.90625 
L 19.671875 0 
L 9.8125 0 
z
" id="DejaVuSans-73"/>
       <path d="M 3.328125 72.90625 
L 13.28125 72.90625 
L 28.609375 11.28125 
L 43.890625 72.90625 
L 54.984375 72.90625 
L 70.3125 11.28125 
L 85.59375 72.90625 
L 95.609375 72.90625 
L 77.296875 0 
L 64.890625 0 
L 49.515625 63.28125 
L 33.984375 0 
L 21.578125 0 
z
" id="DejaVuSans-87"/>
       <path d="M 2.984375 54.6875 
L 12.5 54.6875 
L 29.59375 8.796875 
L 46.6875 54.6875 
L 56.203125 54.6875 
L 35.6875 0 
L 23.484375 0 
z
" id="DejaVuSans-118"/>
      </defs>
      <g transform="translate(74.175 129.329219)scale(0.1 -0.1)">
       <use xlink:href="#DejaVuSans-83"/>
       <use x="63.476562" xlink:href="#DejaVuSans-101"/>
       <use x="125" xlink:href="#DejaVuSans-112"/>
       <use x="188.476562" xlink:href="#DejaVuSans-105"/>
       <use x="216.259766" xlink:href="#DejaVuSans-100"/>
       <use x="279.736328" xlink:href="#DejaVuSans-101"/>
       <use x="341.259766" xlink:href="#DejaVuSans-104"/>
       <use x="404.638672" xlink:href="#DejaVuSans-32"/>
       <use x="436.425781" xlink:href="#DejaVuSans-86"/>
       <use x="504.724609" xlink:href="#DejaVuSans-97"/>
       <use x="566.003906" xlink:href="#DejaVuSans-122"/>
       <use x="618.494141" xlink:href="#DejaVuSans-105"/>
       <use x="646.277344" xlink:href="#DejaVuSans-114"/>
       <use x="687.390625" xlink:href="#DejaVuSans-105"/>
       <use x="715.173828" xlink:href="#DejaVuSans-58"/>
       <use x="748.865234" xlink:href="#DejaVuSans-32"/>
       <use x="780.652344" xlink:href="#DejaVuSans-73"/>
       <use x="810.144531" xlink:href="#DejaVuSans-32"/>
       <use x="841.931641" xlink:href="#DejaVuSans-87"/>
       <use x="940.777344" xlink:href="#DejaVuSans-105"/>
       <use x="968.560547" xlink:href="#DejaVuSans-108"/>
       <use x="996.34375" xlink:href="#DejaVuSans-108"/>
       <use x="1024.126953" xlink:href="#DejaVuSans-32"/>
       <use x="1055.914062" xlink:href="#DejaVuSans-83"/>
       <use x="1119.390625" xlink:href="#DejaVuSans-117"/>
       <use x="1182.769531" xlink:href="#DejaVuSans-114"/>
       <use x="1223.882812" xlink:href="#DejaVuSans-118"/>
       <use x="1283.0625" xlink:href="#DejaVuSans-105"/>
       <use x="1310.845703" xlink:href="#DejaVuSans-118"/>
       <use x="1370.025391" xlink:href="#DejaVuSans-101"/>
      </g>
     </g>
    </g>
    <g id="ytick_6">
     <g id="line2d_11">
      <g>
       <use style="stroke:#000000;stroke-width:0.8;" x="224.33125" xlink:href="#m0ed4a26021" y="147.47"/>
      </g>
     </g>
     <g id="text_12">
      <!-- Will Sparks: Gorilla -->
      <g transform="translate(123.010938 151.269219)scale(0.1 -0.1)">
       <use xlink:href="#DejaVuSans-87"/>
       <use x="98.845703" xlink:href="#DejaVuSans-105"/>
       <use x="126.628906" xlink:href="#DejaVuSans-108"/>
       <use x="154.412109" xlink:href="#DejaVuSans-108"/>
       <use x="182.195312" xlink:href="#DejaVuSans-32"/>
       <use x="213.982422" xlink:href="#DejaVuSans-83"/>
       <use x="277.458984" xlink:href="#DejaVuSans-112"/>
       <use x="340.935547" xlink:href="#DejaVuSans-97"/>
       <use x="402.214844" xlink:href="#DejaVuSans-114"/>
       <use x="443.328125" xlink:href="#DejaVuSans-107"/>
       <use x="501.238281" xlink:href="#DejaVuSans-115"/>
       <use x="553.337891" xlink:href="#DejaVuSans-58"/>
       <use x="587.029297" xlink:href="#DejaVuSans-32"/>
       <use x="618.816406" xlink:href="#DejaVuSans-71"/>
       <use x="696.306641" xlink:href="#DejaVuSans-111"/>
       <use x="757.488281" xlink:href="#DejaVuSans-114"/>
       <use x="798.601562" xlink:href="#DejaVuSans-105"/>
       <use x="826.384766" xlink:href="#DejaVuSans-108"/>
       <use x="854.167969" xlink:href="#DejaVuSans-108"/>
       <use x="881.951172" xlink:href="#DejaVuSans-97"/>
      </g>
     </g>
    </g>
    <g id="ytick_7">
     <g id="line2d_12">
      <g>
       <use style="stroke:#000000;stroke-width:0.8;" x="224.33125" xlink:href="#m0ed4a26021" y="169.41"/>
      </g>
     </g>
     <g id="text_13">
      <!-- Lil Jon: Toma -->
      <defs>
       <path d="M 9.8125 72.90625 
L 19.671875 72.90625 
L 19.671875 5.078125 
Q 19.671875 -8.109375 14.671875 -14.0625 
Q 9.671875 -20.015625 -1.421875 -20.015625 
L -5.171875 -20.015625 
L -5.171875 -11.71875 
L -2.09375 -11.71875 
Q 4.4375 -11.71875 7.125 -8.046875 
Q 9.8125 -4.390625 9.8125 5.078125 
z
" id="DejaVuSans-74"/>
       <path d="M -0.296875 72.90625 
L 61.375 72.90625 
L 61.375 64.59375 
L 35.5 64.59375 
L 35.5 0 
L 25.59375 0 
L 25.59375 64.59375 
L -0.296875 64.59375 
z
" id="DejaVuSans-84"/>
      </defs>
      <g transform="translate(153.003125 173.209219)scale(0.1 -0.1)">
       <use xlink:href="#DejaVuSans-76"/>
       <use x="55.712891" xlink:href="#DejaVuSans-105"/>
       <use x="83.496094" xlink:href="#DejaVuSans-108"/>
       <use x="111.279297" xlink:href="#DejaVuSans-32"/>
       <use x="143.066406" xlink:href="#DejaVuSans-74"/>
       <use x="172.558594" xlink:href="#DejaVuSans-111"/>
       <use x="233.740234" xlink:href="#DejaVuSans-110"/>
       <use x="297.119141" xlink:href="#DejaVuSans-58"/>
       <use x="330.810547" xlink:href="#DejaVuSans-32"/>
       <use x="362.597656" xlink:href="#DejaVuSans-84"/>
       <use x="423.416016" xlink:href="#DejaVuSans-111"/>
       <use x="484.597656" xlink:href="#DejaVuSans-109"/>
       <use x="582.009766" xlink:href="#DejaVuSans-97"/>
      </g>
     </g>
    </g>
    <g id="ytick_8">
     <g id="line2d_13">
      <g>
       <use style="stroke:#000000;stroke-width:0.8;" x="224.33125" xlink:href="#m0ed4a26021" y="191.35"/>
      </g>
     </g>
     <g id="text_14">
      <!-- Brillz: Fuzzy Peach - LOUDPVCK Remix -->
      <defs>
       <path d="M 9.8125 72.90625 
L 51.703125 72.90625 
L 51.703125 64.59375 
L 19.671875 64.59375 
L 19.671875 43.109375 
L 48.578125 43.109375 
L 48.578125 34.8125 
L 19.671875 34.8125 
L 19.671875 0 
L 9.8125 0 
z
" id="DejaVuSans-70"/>
       <path d="M 4.890625 31.390625 
L 31.203125 31.390625 
L 31.203125 23.390625 
L 4.890625 23.390625 
z
" id="DejaVuSans-45"/>
       <path d="M 39.40625 66.21875 
Q 28.65625 66.21875 22.328125 58.203125 
Q 16.015625 50.203125 16.015625 36.375 
Q 16.015625 22.609375 22.328125 14.59375 
Q 28.65625 6.59375 39.40625 6.59375 
Q 50.140625 6.59375 56.421875 14.59375 
Q 62.703125 22.609375 62.703125 36.375 
Q 62.703125 50.203125 56.421875 58.203125 
Q 50.140625 66.21875 39.40625 66.21875 
z
M 39.40625 74.21875 
Q 54.734375 74.21875 63.90625 63.9375 
Q 73.09375 53.65625 73.09375 36.375 
Q 73.09375 19.140625 63.90625 8.859375 
Q 54.734375 -1.421875 39.40625 -1.421875 
Q 24.03125 -1.421875 14.8125 8.828125 
Q 5.609375 19.09375 5.609375 36.375 
Q 5.609375 53.65625 14.8125 63.9375 
Q 24.03125 74.21875 39.40625 74.21875 
z
" id="DejaVuSans-79"/>
       <path d="M 8.6875 72.90625 
L 18.609375 72.90625 
L 18.609375 28.609375 
Q 18.609375 16.890625 22.84375 11.734375 
Q 27.09375 6.59375 36.625 6.59375 
Q 46.09375 6.59375 50.34375 11.734375 
Q 54.59375 16.890625 54.59375 28.609375 
L 54.59375 72.90625 
L 64.5 72.90625 
L 64.5 27.390625 
Q 64.5 13.140625 57.4375 5.859375 
Q 50.390625 -1.421875 36.625 -1.421875 
Q 22.796875 -1.421875 15.734375 5.859375 
Q 8.6875 13.140625 8.6875 27.390625 
z
" id="DejaVuSans-85"/>
       <path d="M 64.40625 67.28125 
L 64.40625 56.890625 
Q 59.421875 61.53125 53.78125 63.8125 
Q 48.140625 66.109375 41.796875 66.109375 
Q 29.296875 66.109375 22.65625 58.46875 
Q 16.015625 50.828125 16.015625 36.375 
Q 16.015625 21.96875 22.65625 14.328125 
Q 29.296875 6.6875 41.796875 6.6875 
Q 48.140625 6.6875 53.78125 8.984375 
Q 59.421875 11.28125 64.40625 15.921875 
L 64.40625 5.609375 
Q 59.234375 2.09375 53.4375 0.328125 
Q 47.65625 -1.421875 41.21875 -1.421875 
Q 24.65625 -1.421875 15.125 8.703125 
Q 5.609375 18.84375 5.609375 36.375 
Q 5.609375 53.953125 15.125 64.078125 
Q 24.65625 74.21875 41.21875 74.21875 
Q 47.75 74.21875 53.53125 72.484375 
Q 59.328125 70.75 64.40625 67.28125 
z
" id="DejaVuSans-67"/>
      </defs>
      <g transform="translate(24.86875 195.149219)scale(0.1 -0.1)">
       <use xlink:href="#DejaVuSans-66"/>
       <use x="68.603516" xlink:href="#DejaVuSans-114"/>
       <use x="109.716797" xlink:href="#DejaVuSans-105"/>
       <use x="137.5" xlink:href="#DejaVuSans-108"/>
       <use x="165.283203" xlink:href="#DejaVuSans-108"/>
       <use x="193.066406" xlink:href="#DejaVuSans-122"/>
       <use x="245.556641" xlink:href="#DejaVuSans-58"/>
       <use x="279.248047" xlink:href="#DejaVuSans-32"/>
       <use x="311.035156" xlink:href="#DejaVuSans-70"/>
       <use x="368.476562" xlink:href="#DejaVuSans-117"/>
       <use x="431.855469" xlink:href="#DejaVuSans-122"/>
       <use x="484.345703" xlink:href="#DejaVuSans-122"/>
       <use x="536.835938" xlink:href="#DejaVuSans-121"/>
       <use x="596.015625" xlink:href="#DejaVuSans-32"/>
       <use x="627.802734" xlink:href="#DejaVuSans-80"/>
       <use x="688.058594" xlink:href="#DejaVuSans-101"/>
       <use x="749.582031" xlink:href="#DejaVuSans-97"/>
       <use x="810.861328" xlink:href="#DejaVuSans-99"/>
       <use x="865.841797" xlink:href="#DejaVuSans-104"/>
       <use x="929.220703" xlink:href="#DejaVuSans-32"/>
       <use x="961.007812" xlink:href="#DejaVuSans-45"/>
       <use x="997.091797" xlink:href="#DejaVuSans-32"/>
       <use x="1028.878906" xlink:href="#DejaVuSans-76"/>
       <use x="1084.544922" xlink:href="#DejaVuSans-79"/>
       <use x="1163.255859" xlink:href="#DejaVuSans-85"/>
       <use x="1236.449219" xlink:href="#DejaVuSans-68"/>
       <use x="1313.451172" xlink:href="#DejaVuSans-80"/>
       <use x="1373.753906" xlink:href="#DejaVuSans-86"/>
       <use x="1442.162109" xlink:href="#DejaVuSans-67"/>
       <use x="1511.986328" xlink:href="#DejaVuSans-75"/>
       <use x="1577.5625" xlink:href="#DejaVuSans-32"/>
       <use x="1609.349609" xlink:href="#DejaVuSans-82"/>
       <use x="1678.769531" xlink:href="#DejaVuSans-101"/>
       <use x="1740.292969" xlink:href="#DejaVuSans-109"/>
       <use x="1837.705078" xlink:href="#DejaVuSans-105"/>
       <use x="1865.488281" xlink:href="#DejaVuSans-120"/>
      </g>
     </g>
    </g>
    <g id="ytick_9">
     <g id="line2d_14">
      <g>
       <use style="stroke:#000000;stroke-width:0.8;" x="224.33125" xlink:href="#m0ed4a26021" y="213.29"/>
      </g>
     </g>
     <g id="text_15">
      <!-- Makaveli: Just Like Daddy -->
      <g transform="translate(88.976562 217.089219)scale(0.1 -0.1)">
       <use xlink:href="#DejaVuSans-77"/>
       <use x="86.279297" xlink:href="#DejaVuSans-97"/>
       <use x="147.558594" xlink:href="#DejaVuSans-107"/>
       <use x="205.453125" xlink:href="#DejaVuSans-97"/>
       <use x="266.732422" xlink:href="#DejaVuSans-118"/>
       <use x="325.912109" xlink:href="#DejaVuSans-101"/>
       <use x="387.435547" xlink:href="#DejaVuSans-108"/>
       <use x="415.21875" xlink:href="#DejaVuSans-105"/>
       <use x="443.001953" xlink:href="#DejaVuSans-58"/>
       <use x="476.693359" xlink:href="#DejaVuSans-32"/>
       <use x="508.480469" xlink:href="#DejaVuSans-74"/>
       <use x="537.972656" xlink:href="#DejaVuSans-117"/>
       <use x="601.351562" xlink:href="#DejaVuSans-115"/>
       <use x="653.451172" xlink:href="#DejaVuSans-116"/>
       <use x="692.660156" xlink:href="#DejaVuSans-32"/>
       <use x="724.447266" xlink:href="#DejaVuSans-76"/>
       <use x="780.160156" xlink:href="#DejaVuSans-105"/>
       <use x="807.943359" xlink:href="#DejaVuSans-107"/>
       <use x="865.806641" xlink:href="#DejaVuSans-101"/>
       <use x="927.330078" xlink:href="#DejaVuSans-32"/>
       <use x="959.117188" xlink:href="#DejaVuSans-68"/>
       <use x="1036.119141" xlink:href="#DejaVuSans-97"/>
       <use x="1097.398438" xlink:href="#DejaVuSans-100"/>
       <use x="1160.875" xlink:href="#DejaVuSans-100"/>
       <use x="1224.351562" xlink:href="#DejaVuSans-121"/>
      </g>
     </g>
    </g>
    <g id="ytick_10">
     <g id="line2d_15">
      <g>
       <use style="stroke:#000000;stroke-width:0.8;" x="224.33125" xlink:href="#m0ed4a26021" y="235.23"/>
      </g>
     </g>
     <g id="text_16">
      <!-- The Notorious B.I.G.: Who Shot Ya -->
      <defs>
       <path d="M 9.8125 72.90625 
L 23.09375 72.90625 
L 55.421875 11.921875 
L 55.421875 72.90625 
L 64.984375 72.90625 
L 64.984375 0 
L 51.703125 0 
L 19.390625 60.984375 
L 19.390625 0 
L 9.8125 0 
z
" id="DejaVuSans-78"/>
       <path d="M -0.203125 72.90625 
L 10.40625 72.90625 
L 30.609375 42.921875 
L 50.6875 72.90625 
L 61.28125 72.90625 
L 35.5 34.71875 
L 35.5 0 
L 25.59375 0 
L 25.59375 34.71875 
z
" id="DejaVuSans-89"/>
      </defs>
      <g transform="translate(46.901563 239.029219)scale(0.1 -0.1)">
       <use xlink:href="#DejaVuSans-84"/>
       <use x="61.083984" xlink:href="#DejaVuSans-104"/>
       <use x="124.462891" xlink:href="#DejaVuSans-101"/>
       <use x="185.986328" xlink:href="#DejaVuSans-32"/>
       <use x="217.773438" xlink:href="#DejaVuSans-78"/>
       <use x="292.578125" xlink:href="#DejaVuSans-111"/>
       <use x="353.759766" xlink:href="#DejaVuSans-116"/>
       <use x="392.96875" xlink:href="#DejaVuSans-111"/>
       <use x="454.150391" xlink:href="#DejaVuSans-114"/>
       <use x="495.263672" xlink:href="#DejaVuSans-105"/>
       <use x="523.046875" xlink:href="#DejaVuSans-111"/>
       <use x="584.228516" xlink:href="#DejaVuSans-117"/>
       <use x="647.607422" xlink:href="#DejaVuSans-115"/>
       <use x="699.707031" xlink:href="#DejaVuSans-32"/>
       <use x="731.494141" xlink:href="#DejaVuSans-66"/>
       <use x="800.097656" xlink:href="#DejaVuSans-46"/>
       <use x="831.884766" xlink:href="#DejaVuSans-73"/>
       <use x="861.376953" xlink:href="#DejaVuSans-46"/>
       <use x="893.164062" xlink:href="#DejaVuSans-71"/>
       <use x="970.654297" xlink:href="#DejaVuSans-46"/>
       <use x="1002.441406" xlink:href="#DejaVuSans-58"/>
       <use x="1036.132812" xlink:href="#DejaVuSans-32"/>
       <use x="1067.919922" xlink:href="#DejaVuSans-87"/>
       <use x="1166.796875" xlink:href="#DejaVuSans-104"/>
       <use x="1230.175781" xlink:href="#DejaVuSans-111"/>
       <use x="1291.357422" xlink:href="#DejaVuSans-32"/>
       <use x="1323.144531" xlink:href="#DejaVuSans-83"/>
       <use x="1386.621094" xlink:href="#DejaVuSans-104"/>
       <use x="1450" xlink:href="#DejaVuSans-111"/>
       <use x="1511.181641" xlink:href="#DejaVuSans-116"/>
       <use x="1550.390625" xlink:href="#DejaVuSans-32"/>
       <use x="1582.177734" xlink:href="#DejaVuSans-89"/>
       <use x="1643.058594" xlink:href="#DejaVuSans-97"/>
      </g>
     </g>
    </g>
    <g id="text_17">
     <!-- artist_track -->
     <defs>
      <path d="M 50.984375 -16.609375 
L 50.984375 -23.578125 
L -0.984375 -23.578125 
L -0.984375 -16.609375 
z
" id="DejaVuSans-95"/>
     </defs>
     <g transform="translate(18.510938 164.757812)rotate(-90)scale(0.1 -0.1)">
      <use xlink:href="#DejaVuSans-97"/>
      <use x="61.279297" xlink:href="#DejaVuSans-114"/>
      <use x="102.392578" xlink:href="#DejaVuSans-116"/>
      <use x="141.601562" xlink:href="#DejaVuSans-105"/>
      <use x="169.384766" xlink:href="#DejaVuSans-115"/>
      <use x="221.484375" xlink:href="#DejaVuSans-116"/>
      <use x="260.693359" xlink:href="#DejaVuSans-95"/>
      <use x="310.693359" xlink:href="#DejaVuSans-116"/>
      <use x="349.902344" xlink:href="#DejaVuSans-114"/>
      <use x="391.015625" xlink:href="#DejaVuSans-97"/>
      <use x="452.294922" xlink:href="#DejaVuSans-99"/>
      <use x="507.275391" xlink:href="#DejaVuSans-107"/>
     </g>
    </g>
   </g>
   <g id="line2d_16">
    <path clip-path="url(#p94f4362e9c)" d="M 0 0 
" style="fill:none;stroke:#424242;stroke-linecap:square;stroke-width:2.7;"/>
   </g>
   <g id="line2d_17">
    <path clip-path="url(#p94f4362e9c)" d="M 0 0 
" style="fill:none;stroke:#424242;stroke-linecap:square;stroke-width:2.7;"/>
   </g>
   <g id="line2d_18">
    <path clip-path="url(#p94f4362e9c)" d="M 0 0 
" style="fill:none;stroke:#424242;stroke-linecap:square;stroke-width:2.7;"/>
   </g>
   <g id="line2d_19">
    <path clip-path="url(#p94f4362e9c)" d="M 0 0 
" style="fill:none;stroke:#424242;stroke-linecap:square;stroke-width:2.7;"/>
   </g>
   <g id="line2d_20">
    <path clip-path="url(#p94f4362e9c)" d="M 0 0 
" style="fill:none;stroke:#424242;stroke-linecap:square;stroke-width:2.7;"/>
   </g>
   <g id="line2d_21">
    <path clip-path="url(#p94f4362e9c)" d="M 0 0 
" style="fill:none;stroke:#424242;stroke-linecap:square;stroke-width:2.7;"/>
   </g>
   <g id="line2d_22">
    <path clip-path="url(#p94f4362e9c)" d="M 0 0 
" style="fill:none;stroke:#424242;stroke-linecap:square;stroke-width:2.7;"/>
   </g>
   <g id="line2d_23">
    <path clip-path="url(#p94f4362e9c)" d="M 0 0 
" style="fill:none;stroke:#424242;stroke-linecap:square;stroke-width:2.7;"/>
   </g>
   <g id="line2d_24">
    <path clip-path="url(#p94f4362e9c)" d="M 0 0 
" style="fill:none;stroke:#424242;stroke-linecap:square;stroke-width:2.7;"/>
   </g>
   <g id="line2d_25">
    <path clip-path="url(#p94f4362e9c)" d="M 0 0 
" style="fill:none;stroke:#424242;stroke-linecap:square;stroke-width:2.7;"/>
   </g>
   <g id="patch_13">
    <path d="M 224.33125 246.2 
L 224.33125 26.8 
" style="fill:none;stroke:#000000;stroke-linecap:square;stroke-linejoin:miter;stroke-width:0.8;"/>
   </g>
   <g id="patch_14">
    <path d="M 409.508297 246.2 
L 409.508297 26.8 
" style="fill:none;stroke:#000000;stroke-linecap:square;stroke-linejoin:miter;stroke-width:0.8;"/>
   </g>
   <g id="patch_15">
    <path d="M 224.33125 246.2 
L 409.508297 246.2 
" style="fill:none;stroke:#000000;stroke-linecap:square;stroke-linejoin:miter;stroke-width:0.8;"/>
   </g>
   <g id="patch_16">
    <path d="M 224.33125 26.8 
L 409.508297 26.8 
" style="fill:none;stroke:#000000;stroke-linecap:square;stroke-linejoin:miter;stroke-width:0.8;"/>
   </g>
   <g id="text_18">
    <!-- Kendrick Lamar: alright -->
    <g transform="translate(246.496649 20.8)scale(0.12 -0.12)">
     <use xlink:href="#DejaVuSans-75"/>
     <use x="65.498047" xlink:href="#DejaVuSans-101"/>
     <use x="127.021484" xlink:href="#DejaVuSans-110"/>
     <use x="190.400391" xlink:href="#DejaVuSans-100"/>
     <use x="253.876953" xlink:href="#DejaVuSans-114"/>
     <use x="294.990234" xlink:href="#DejaVuSans-105"/>
     <use x="322.773438" xlink:href="#DejaVuSans-99"/>
     <use x="377.753906" xlink:href="#DejaVuSans-107"/>
     <use x="435.664062" xlink:href="#DejaVuSans-32"/>
     <use x="467.451172" xlink:href="#DejaVuSans-76"/>
     <use x="523.164062" xlink:href="#DejaVuSans-97"/>
     <use x="584.443359" xlink:href="#DejaVuSans-109"/>
     <use x="681.855469" xlink:href="#DejaVuSans-97"/>
     <use x="743.134766" xlink:href="#DejaVuSans-114"/>
     <use x="784.232422" xlink:href="#DejaVuSans-58"/>
     <use x="817.923828" xlink:href="#DejaVuSans-32"/>
     <use x="849.710938" xlink:href="#DejaVuSans-97"/>
     <use x="910.990234" xlink:href="#DejaVuSans-108"/>
     <use x="938.773438" xlink:href="#DejaVuSans-114"/>
     <use x="979.886719" xlink:href="#DejaVuSans-105"/>
     <use x="1007.669922" xlink:href="#DejaVuSans-103"/>
     <use x="1071.146484" xlink:href="#DejaVuSans-104"/>
     <use x="1134.525391" xlink:href="#DejaVuSans-116"/>
    </g>
   </g>
  </g>
 </g>
 <defs>
  <clipPath id="p94f4362e9c">
   <rect height="219.4" width="185.177047" x="224.33125" y="26.8"/>
  </clipPath>
 </defs>
</svg>
