<?xml version="1.0" encoding="utf-8" standalone="no"?>
<!DOCTYPE svg PUBLIC "-//W3C//DTD SVG 1.1//EN"
  "http://www.w3.org/Graphics/SVG/1.1/DTD/svg11.dtd">
<!-- Created with matplotlib (https://matplotlib.org/) -->
<svg height="288pt" version="1.1" viewBox="0 0 432 288" width="432pt" xmlns="http://www.w3.org/2000/svg" xmlns:xlink="http://www.w3.org/1999/xlink">
 <defs>
  <style type="text/css">
*{stroke-linecap:butt;stroke-linejoin:round;}
  </style>
 </defs>
 <g id="figure_1">
  <g id="patch_1">
   <path d="M 0 288 
L 432 288 
L 432 0 
L 0 0 
z
" style="fill:#ffffff;"/>
  </g>
  <g id="axes_1">
   <g id="patch_2">
    <path d="M 54 252 
L 388.8 252 
L 388.8 34.56 
L 54 34.56 
z
" style="fill:#ffffff;"/>
   </g>
   <g id="patch_3">
    <path clip-path="url(#p3aba551e4d)" d="M 54 36.7344 
L 316.571648 36.7344 
L 316.571648 54.1296 
L 54 54.1296 
z
" style="fill:#374249;"/>
   </g>
   <g id="patch_4">
    <path clip-path="url(#p3aba551e4d)" d="M 54 58.4784 
L 319.966599 58.4784 
L 319.966599 75.8736 
L 54 75.8736 
z
" style="fill:#3b5060;"/>
   </g>
   <g id="patch_5">
    <path clip-path="url(#p3aba551e4d)" d="M 54 80.2224 
L 320.091108 80.2224 
L 320.091108 97.6176 
L 54 97.6176 
z
" style="fill:#3e5f76;"/>
   </g>
   <g id="patch_6">
    <path clip-path="url(#p3aba551e4d)" d="M 54 101.9664 
L 330.028538 101.9664 
L 330.028538 119.3616 
L 54 119.3616 
z
" style="fill:#426e8e;"/>
   </g>
   <g id="patch_7">
    <path clip-path="url(#p3aba551e4d)" d="M 54 123.7104 
L 334.771628 123.7104 
L 334.771628 141.1056 
L 54 141.1056 
z
" style="fill:#467da4;"/>
   </g>
   <g id="patch_8">
    <path clip-path="url(#p3aba551e4d)" d="M 54 145.4544 
L 337.004293 145.4544 
L 337.004293 162.8496 
L 54 162.8496 
z
" style="fill:#528bb3;"/>
   </g>
   <g id="patch_9">
    <path clip-path="url(#p3aba551e4d)" d="M 54 167.1984 
L 341.247433 167.1984 
L 341.247433 184.5936 
L 54 184.5936 
z
" style="fill:#6598bc;"/>
   </g>
   <g id="patch_10">
    <path clip-path="url(#p3aba551e4d)" d="M 54 188.9424 
L 354.345999 188.9424 
L 354.345999 206.3376 
L 54 206.3376 
z
" style="fill:#79a6c5;"/>
   </g>
   <g id="patch_11">
    <path clip-path="url(#p3aba551e4d)" d="M 54 210.6864 
L 357.699565 210.6864 
L 357.699565 228.0816 
L 54 228.0816 
z
" style="fill:#8cb3cd;"/>
   </g>
   <g id="patch_12">
    <path clip-path="url(#p3aba551e4d)" d="M 54 232.4304 
L 372.857143 232.4304 
L 372.857143 249.8256 
L 54 249.8256 
z
" style="fill:#9fc1d6;"/>
   </g>
   <g id="matplotlib.axis_1">
    <g id="xtick_1">
     <g id="line2d_1">
      <defs>
       <path d="M 0 0 
L 0 3.5 
" id="mdfd1975b91" style="stroke:#000000;stroke-width:0.8;"/>
      </defs>
      <g>
       <use style="stroke:#000000;stroke-width:0.8;" x="54" xlink:href="#mdfd1975b91" y="252"/>
      </g>
     </g>
     <g id="text_1">
      <!-- 0.000 -->
      <defs>
       <path d="M 31.78125 66.40625 
Q 24.171875 66.40625 20.328125 58.90625 
Q 16.5 51.421875 16.5 36.375 
Q 16.5 21.390625 20.328125 13.890625 
Q 24.171875 6.390625 31.78125 6.390625 
Q 39.453125 6.390625 43.28125 13.890625 
Q 47.125 21.390625 47.125 36.375 
Q 47.125 51.421875 43.28125 58.90625 
Q 39.453125 66.40625 31.78125 66.40625 
z
M 31.78125 74.21875 
Q 44.046875 74.21875 50.515625 64.515625 
Q 56.984375 54.828125 56.984375 36.375 
Q 56.984375 17.96875 50.515625 8.265625 
Q 44.046875 -1.421875 31.78125 -1.421875 
Q 19.53125 -1.421875 13.0625 8.265625 
Q 6.59375 17.96875 6.59375 36.375 
Q 6.59375 54.828125 13.0625 64.515625 
Q 19.53125 74.21875 31.78125 74.21875 
z
" id="DejaVuSans-48"/>
       <path d="M 10.6875 12.40625 
L 21 12.40625 
L 21 0 
L 10.6875 0 
z
" id="DejaVuSans-46"/>
      </defs>
      <g transform="translate(39.685938 266.598437)scale(0.1 -0.1)">
       <use xlink:href="#DejaVuSans-48"/>
       <use x="63.623047" xlink:href="#DejaVuSans-46"/>
       <use x="95.410156" xlink:href="#DejaVuSans-48"/>
       <use x="159.033203" xlink:href="#DejaVuSans-48"/>
       <use x="222.65625" xlink:href="#DejaVuSans-48"/>
      </g>
     </g>
    </g>
    <g id="xtick_2">
     <g id="line2d_2">
      <g>
       <use style="stroke:#000000;stroke-width:0.8;" x="93.446237" xlink:href="#mdfd1975b91" y="252"/>
      </g>
     </g>
     <g id="text_2">
      <!-- 0.025 -->
      <defs>
       <path d="M 19.1875 8.296875 
L 53.609375 8.296875 
L 53.609375 0 
L 7.328125 0 
L 7.328125 8.296875 
Q 12.9375 14.109375 22.625 23.890625 
Q 32.328125 33.6875 34.8125 36.53125 
Q 39.546875 41.84375 41.421875 45.53125 
Q 43.3125 49.21875 43.3125 52.78125 
Q 43.3125 58.59375 39.234375 62.25 
Q 35.15625 65.921875 28.609375 65.921875 
Q 23.96875 65.921875 18.8125 64.3125 
Q 13.671875 62.703125 7.8125 59.421875 
L 7.8125 69.390625 
Q 13.765625 71.78125 18.9375 73 
Q 24.125 74.21875 28.421875 74.21875 
Q 39.75 74.21875 46.484375 68.546875 
Q 53.21875 62.890625 53.21875 53.421875 
Q 53.21875 48.921875 51.53125 44.890625 
Q 49.859375 40.875 45.40625 35.40625 
Q 44.1875 33.984375 37.640625 27.21875 
Q 31.109375 20.453125 19.1875 8.296875 
z
" id="DejaVuSans-50"/>
       <path d="M 10.796875 72.90625 
L 49.515625 72.90625 
L 49.515625 64.59375 
L 19.828125 64.59375 
L 19.828125 46.734375 
Q 21.96875 47.46875 24.109375 47.828125 
Q 26.265625 48.1875 28.421875 48.1875 
Q 40.625 48.1875 47.75 41.5 
Q 54.890625 34.8125 54.890625 23.390625 
Q 54.890625 11.625 47.5625 5.09375 
Q 40.234375 -1.421875 26.90625 -1.421875 
Q 22.3125 -1.421875 17.546875 -0.640625 
Q 12.796875 0.140625 7.71875 1.703125 
L 7.71875 11.625 
Q 12.109375 9.234375 16.796875 8.0625 
Q 21.484375 6.890625 26.703125 6.890625 
Q 35.15625 6.890625 40.078125 11.328125 
Q 45.015625 15.765625 45.015625 23.390625 
Q 45.015625 31 40.078125 35.4375 
Q 35.15625 39.890625 26.703125 39.890625 
Q 22.75 39.890625 18.8125 39.015625 
Q 14.890625 38.140625 10.796875 36.28125 
z
" id="DejaVuSans-53"/>
      </defs>
      <g transform="translate(79.132175 266.598437)scale(0.1 -0.1)">
       <use xlink:href="#DejaVuSans-48"/>
       <use x="63.623047" xlink:href="#DejaVuSans-46"/>
       <use x="95.410156" xlink:href="#DejaVuSans-48"/>
       <use x="159.033203" xlink:href="#DejaVuSans-50"/>
       <use x="222.65625" xlink:href="#DejaVuSans-53"/>
      </g>
     </g>
    </g>
    <g id="xtick_3">
     <g id="line2d_3">
      <g>
       <use style="stroke:#000000;stroke-width:0.8;" x="132.892474" xlink:href="#mdfd1975b91" y="252"/>
      </g>
     </g>
     <g id="text_3">
      <!-- 0.050 -->
      <g transform="translate(118.578412 266.598437)scale(0.1 -0.1)">
       <use xlink:href="#DejaVuSans-48"/>
       <use x="63.623047" xlink:href="#DejaVuSans-46"/>
       <use x="95.410156" xlink:href="#DejaVuSans-48"/>
       <use x="159.033203" xlink:href="#DejaVuSans-53"/>
       <use x="222.65625" xlink:href="#DejaVuSans-48"/>
      </g>
     </g>
    </g>
    <g id="xtick_4">
     <g id="line2d_4">
      <g>
       <use style="stroke:#000000;stroke-width:0.8;" x="172.338711" xlink:href="#mdfd1975b91" y="252"/>
      </g>
     </g>
     <g id="text_4">
      <!-- 0.075 -->
      <defs>
       <path d="M 8.203125 72.90625 
L 55.078125 72.90625 
L 55.078125 68.703125 
L 28.609375 0 
L 18.3125 0 
L 43.21875 64.59375 
L 8.203125 64.59375 
z
" id="DejaVuSans-55"/>
      </defs>
      <g transform="translate(158.024649 266.598437)scale(0.1 -0.1)">
       <use xlink:href="#DejaVuSans-48"/>
       <use x="63.623047" xlink:href="#DejaVuSans-46"/>
       <use x="95.410156" xlink:href="#DejaVuSans-48"/>
       <use x="159.033203" xlink:href="#DejaVuSans-55"/>
       <use x="222.65625" xlink:href="#DejaVuSans-53"/>
      </g>
     </g>
    </g>
    <g id="xtick_5">
     <g id="line2d_5">
      <g>
       <use style="stroke:#000000;stroke-width:0.8;" x="211.784948" xlink:href="#mdfd1975b91" y="252"/>
      </g>
     </g>
     <g id="text_5">
      <!-- 0.100 -->
      <defs>
       <path d="M 12.40625 8.296875 
L 28.515625 8.296875 
L 28.515625 63.921875 
L 10.984375 60.40625 
L 10.984375 69.390625 
L 28.421875 72.90625 
L 38.28125 72.90625 
L 38.28125 8.296875 
L 54.390625 8.296875 
L 54.390625 0 
L 12.40625 0 
z
" id="DejaVuSans-49"/>
      </defs>
      <g transform="translate(197.470886 266.598437)scale(0.1 -0.1)">
       <use xlink:href="#DejaVuSans-48"/>
       <use x="63.623047" xlink:href="#DejaVuSans-46"/>
       <use x="95.410156" xlink:href="#DejaVuSans-49"/>
       <use x="159.033203" xlink:href="#DejaVuSans-48"/>
       <use x="222.65625" xlink:href="#DejaVuSans-48"/>
      </g>
     </g>
    </g>
    <g id="xtick_6">
     <g id="line2d_6">
      <g>
       <use style="stroke:#000000;stroke-width:0.8;" x="251.231185" xlink:href="#mdfd1975b91" y="252"/>
      </g>
     </g>
     <g id="text_6">
      <!-- 0.125 -->
      <g transform="translate(236.917123 266.598437)scale(0.1 -0.1)">
       <use xlink:href="#DejaVuSans-48"/>
       <use x="63.623047" xlink:href="#DejaVuSans-46"/>
       <use x="95.410156" xlink:href="#DejaVuSans-49"/>
       <use x="159.033203" xlink:href="#DejaVuSans-50"/>
       <use x="222.65625" xlink:href="#DejaVuSans-53"/>
      </g>
     </g>
    </g>
    <g id="xtick_7">
     <g id="line2d_7">
      <g>
       <use style="stroke:#000000;stroke-width:0.8;" x="290.677422" xlink:href="#mdfd1975b91" y="252"/>
      </g>
     </g>
     <g id="text_7">
      <!-- 0.150 -->
      <g transform="translate(276.36336 266.598437)scale(0.1 -0.1)">
       <use xlink:href="#DejaVuSans-48"/>
       <use x="63.623047" xlink:href="#DejaVuSans-46"/>
       <use x="95.410156" xlink:href="#DejaVuSans-49"/>
       <use x="159.033203" xlink:href="#DejaVuSans-53"/>
       <use x="222.65625" xlink:href="#DejaVuSans-48"/>
      </g>
     </g>
    </g>
    <g id="xtick_8">
     <g id="line2d_8">
      <g>
       <use style="stroke:#000000;stroke-width:0.8;" x="330.123659" xlink:href="#mdfd1975b91" y="252"/>
      </g>
     </g>
     <g id="text_8">
      <!-- 0.175 -->
      <g transform="translate(315.809597 266.598437)scale(0.1 -0.1)">
       <use xlink:href="#DejaVuSans-48"/>
       <use x="63.623047" xlink:href="#DejaVuSans-46"/>
       <use x="95.410156" xlink:href="#DejaVuSans-49"/>
       <use x="159.033203" xlink:href="#DejaVuSans-55"/>
       <use x="222.65625" xlink:href="#DejaVuSans-53"/>
      </g>
     </g>
    </g>
    <g id="xtick_9">
     <g id="line2d_9">
      <g>
       <use style="stroke:#000000;stroke-width:0.8;" x="369.569896" xlink:href="#mdfd1975b91" y="252"/>
      </g>
     </g>
     <g id="text_9">
      <!-- 0.200 -->
      <g transform="translate(355.255834 266.598437)scale(0.1 -0.1)">
       <use xlink:href="#DejaVuSans-48"/>
       <use x="63.623047" xlink:href="#DejaVuSans-46"/>
       <use x="95.410156" xlink:href="#DejaVuSans-50"/>
       <use x="159.033203" xlink:href="#DejaVuSans-48"/>
       <use x="222.65625" xlink:href="#DejaVuSans-48"/>
      </g>
     </g>
    </g>
    <g id="text_10">
     <!-- distance -->
     <defs>
      <path d="M 45.40625 46.390625 
L 45.40625 75.984375 
L 54.390625 75.984375 
L 54.390625 0 
L 45.40625 0 
L 45.40625 8.203125 
Q 42.578125 3.328125 38.25 0.953125 
Q 33.9375 -1.421875 27.875 -1.421875 
Q 17.96875 -1.421875 11.734375 6.484375 
Q 5.515625 14.40625 5.515625 27.296875 
Q 5.515625 40.1875 11.734375 48.09375 
Q 17.96875 56 27.875 56 
Q 33.9375 56 38.25 53.625 
Q 42.578125 51.265625 45.40625 46.390625 
z
M 14.796875 27.296875 
Q 14.796875 17.390625 18.875 11.75 
Q 22.953125 6.109375 30.078125 6.109375 
Q 37.203125 6.109375 41.296875 11.75 
Q 45.40625 17.390625 45.40625 27.296875 
Q 45.40625 37.203125 41.296875 42.84375 
Q 37.203125 48.484375 30.078125 48.484375 
Q 22.953125 48.484375 18.875 42.84375 
Q 14.796875 37.203125 14.796875 27.296875 
z
" id="DejaVuSans-100"/>
      <path d="M 9.421875 54.6875 
L 18.40625 54.6875 
L 18.40625 0 
L 9.421875 0 
z
M 9.421875 75.984375 
L 18.40625 75.984375 
L 18.40625 64.59375 
L 9.421875 64.59375 
z
" id="DejaVuSans-105"/>
      <path d="M 44.28125 53.078125 
L 44.28125 44.578125 
Q 40.484375 46.53125 36.375 47.5 
Q 32.28125 48.484375 27.875 48.484375 
Q 21.1875 48.484375 17.84375 46.4375 
Q 14.5 44.390625 14.5 40.28125 
Q 14.5 37.15625 16.890625 35.375 
Q 19.28125 33.59375 26.515625 31.984375 
L 29.59375 31.296875 
Q 39.15625 29.25 43.1875 25.515625 
Q 47.21875 21.78125 47.21875 15.09375 
Q 47.21875 7.46875 41.1875 3.015625 
Q 35.15625 -1.421875 24.609375 -1.421875 
Q 20.21875 -1.421875 15.453125 -0.5625 
Q 10.6875 0.296875 5.421875 2 
L 5.421875 11.28125 
Q 10.40625 8.6875 15.234375 7.390625 
Q 20.0625 6.109375 24.8125 6.109375 
Q 31.15625 6.109375 34.5625 8.28125 
Q 37.984375 10.453125 37.984375 14.40625 
Q 37.984375 18.0625 35.515625 20.015625 
Q 33.0625 21.96875 24.703125 23.78125 
L 21.578125 24.515625 
Q 13.234375 26.265625 9.515625 29.90625 
Q 5.8125 33.546875 5.8125 39.890625 
Q 5.8125 47.609375 11.28125 51.796875 
Q 16.75 56 26.8125 56 
Q 31.78125 56 36.171875 55.265625 
Q 40.578125 54.546875 44.28125 53.078125 
z
" id="DejaVuSans-115"/>
      <path d="M 18.3125 70.21875 
L 18.3125 54.6875 
L 36.8125 54.6875 
L 36.8125 47.703125 
L 18.3125 47.703125 
L 18.3125 18.015625 
Q 18.3125 11.328125 20.140625 9.421875 
Q 21.96875 7.515625 27.59375 7.515625 
L 36.8125 7.515625 
L 36.8125 0 
L 27.59375 0 
Q 17.1875 0 13.234375 3.875 
Q 9.28125 7.765625 9.28125 18.015625 
L 9.28125 47.703125 
L 2.6875 47.703125 
L 2.6875 54.6875 
L 9.28125 54.6875 
L 9.28125 70.21875 
z
" id="DejaVuSans-116"/>
      <path d="M 34.28125 27.484375 
Q 23.390625 27.484375 19.1875 25 
Q 14.984375 22.515625 14.984375 16.5 
Q 14.984375 11.71875 18.140625 8.90625 
Q 21.296875 6.109375 26.703125 6.109375 
Q 34.1875 6.109375 38.703125 11.40625 
Q 43.21875 16.703125 43.21875 25.484375 
L 43.21875 27.484375 
z
M 52.203125 31.203125 
L 52.203125 0 
L 43.21875 0 
L 43.21875 8.296875 
Q 40.140625 3.328125 35.546875 0.953125 
Q 30.953125 -1.421875 24.3125 -1.421875 
Q 15.921875 -1.421875 10.953125 3.296875 
Q 6 8.015625 6 15.921875 
Q 6 25.140625 12.171875 29.828125 
Q 18.359375 34.515625 30.609375 34.515625 
L 43.21875 34.515625 
L 43.21875 35.40625 
Q 43.21875 41.609375 39.140625 45 
Q 35.0625 48.390625 27.6875 48.390625 
Q 23 48.390625 18.546875 47.265625 
Q 14.109375 46.140625 10.015625 43.890625 
L 10.015625 52.203125 
Q 14.9375 54.109375 19.578125 55.046875 
Q 24.21875 56 28.609375 56 
Q 40.484375 56 46.34375 49.84375 
Q 52.203125 43.703125 52.203125 31.203125 
z
" id="DejaVuSans-97"/>
      <path d="M 54.890625 33.015625 
L 54.890625 0 
L 45.90625 0 
L 45.90625 32.71875 
Q 45.90625 40.484375 42.875 44.328125 
Q 39.84375 48.1875 33.796875 48.1875 
Q 26.515625 48.1875 22.3125 43.546875 
Q 18.109375 38.921875 18.109375 30.90625 
L 18.109375 0 
L 9.078125 0 
L 9.078125 54.6875 
L 18.109375 54.6875 
L 18.109375 46.1875 
Q 21.34375 51.125 25.703125 53.5625 
Q 30.078125 56 35.796875 56 
Q 45.21875 56 50.046875 50.171875 
Q 54.890625 44.34375 54.890625 33.015625 
z
" id="DejaVuSans-110"/>
      <path d="M 48.78125 52.59375 
L 48.78125 44.1875 
Q 44.96875 46.296875 41.140625 47.34375 
Q 37.3125 48.390625 33.40625 48.390625 
Q 24.65625 48.390625 19.8125 42.84375 
Q 14.984375 37.3125 14.984375 27.296875 
Q 14.984375 17.28125 19.8125 11.734375 
Q 24.65625 6.203125 33.40625 6.203125 
Q 37.3125 6.203125 41.140625 7.25 
Q 44.96875 8.296875 48.78125 10.40625 
L 48.78125 2.09375 
Q 45.015625 0.34375 40.984375 -0.53125 
Q 36.96875 -1.421875 32.421875 -1.421875 
Q 20.0625 -1.421875 12.78125 6.34375 
Q 5.515625 14.109375 5.515625 27.296875 
Q 5.515625 40.671875 12.859375 48.328125 
Q 20.21875 56 33.015625 56 
Q 37.15625 56 41.109375 55.140625 
Q 45.0625 54.296875 48.78125 52.59375 
z
" id="DejaVuSans-99"/>
      <path d="M 56.203125 29.59375 
L 56.203125 25.203125 
L 14.890625 25.203125 
Q 15.484375 15.921875 20.484375 11.0625 
Q 25.484375 6.203125 34.421875 6.203125 
Q 39.59375 6.203125 44.453125 7.46875 
Q 49.3125 8.734375 54.109375 11.28125 
L 54.109375 2.78125 
Q 49.265625 0.734375 44.1875 -0.34375 
Q 39.109375 -1.421875 33.890625 -1.421875 
Q 20.796875 -1.421875 13.15625 6.1875 
Q 5.515625 13.8125 5.515625 26.8125 
Q 5.515625 40.234375 12.765625 48.109375 
Q 20.015625 56 32.328125 56 
Q 43.359375 56 49.78125 48.890625 
Q 56.203125 41.796875 56.203125 29.59375 
z
M 47.21875 32.234375 
Q 47.125 39.59375 43.09375 43.984375 
Q 39.0625 48.390625 32.421875 48.390625 
Q 24.90625 48.390625 20.390625 44.140625 
Q 15.875 39.890625 15.1875 32.171875 
z
" id="DejaVuSans-101"/>
     </defs>
     <g transform="translate(200.213281 280.276563)scale(0.1 -0.1)">
      <use xlink:href="#DejaVuSans-100"/>
      <use x="63.476562" xlink:href="#DejaVuSans-105"/>
      <use x="91.259766" xlink:href="#DejaVuSans-115"/>
      <use x="143.359375" xlink:href="#DejaVuSans-116"/>
      <use x="182.568359" xlink:href="#DejaVuSans-97"/>
      <use x="243.847656" xlink:href="#DejaVuSans-110"/>
      <use x="307.226562" xlink:href="#DejaVuSans-99"/>
      <use x="362.207031" xlink:href="#DejaVuSans-101"/>
     </g>
    </g>
   </g>
   <g id="matplotlib.axis_2">
    <g id="ytick_1">
     <g id="line2d_10">
      <defs>
       <path d="M 0 0 
L -3.5 0 
" id="ma14d5538ca" style="stroke:#000000;stroke-width:0.8;"/>
      </defs>
      <g>
       <use style="stroke:#000000;stroke-width:0.8;" x="54" xlink:href="#ma14d5538ca" y="45.432"/>
      </g>
     </g>
     <g id="text_11">
      <!-- John Debney: The Man Village -->
      <defs>
       <path d="M 9.8125 72.90625 
L 19.671875 72.90625 
L 19.671875 5.078125 
Q 19.671875 -8.109375 14.671875 -14.0625 
Q 9.671875 -20.015625 -1.421875 -20.015625 
L -5.171875 -20.015625 
L -5.171875 -11.71875 
L -2.09375 -11.71875 
Q 4.4375 -11.71875 7.125 -8.046875 
Q 9.8125 -4.390625 9.8125 5.078125 
z
" id="DejaVuSans-74"/>
       <path d="M 30.609375 48.390625 
Q 23.390625 48.390625 19.1875 42.75 
Q 14.984375 37.109375 14.984375 27.296875 
Q 14.984375 17.484375 19.15625 11.84375 
Q 23.34375 6.203125 30.609375 6.203125 
Q 37.796875 6.203125 41.984375 11.859375 
Q 46.1875 17.53125 46.1875 27.296875 
Q 46.1875 37.015625 41.984375 42.703125 
Q 37.796875 48.390625 30.609375 48.390625 
z
M 30.609375 56 
Q 42.328125 56 49.015625 48.375 
Q 55.71875 40.765625 55.71875 27.296875 
Q 55.71875 13.875 49.015625 6.21875 
Q 42.328125 -1.421875 30.609375 -1.421875 
Q 18.84375 -1.421875 12.171875 6.21875 
Q 5.515625 13.875 5.515625 27.296875 
Q 5.515625 40.765625 12.171875 48.375 
Q 18.84375 56 30.609375 56 
z
" id="DejaVuSans-111"/>
       <path d="M 54.890625 33.015625 
L 54.890625 0 
L 45.90625 0 
L 45.90625 32.71875 
Q 45.90625 40.484375 42.875 44.328125 
Q 39.84375 48.1875 33.796875 48.1875 
Q 26.515625 48.1875 22.3125 43.546875 
Q 18.109375 38.921875 18.109375 30.90625 
L 18.109375 0 
L 9.078125 0 
L 9.078125 75.984375 
L 18.109375 75.984375 
L 18.109375 46.1875 
Q 21.34375 51.125 25.703125 53.5625 
Q 30.078125 56 35.796875 56 
Q 45.21875 56 50.046875 50.171875 
Q 54.890625 44.34375 54.890625 33.015625 
z
" id="DejaVuSans-104"/>
       <path id="DejaVuSans-32"/>
       <path d="M 19.671875 64.796875 
L 19.671875 8.109375 
L 31.59375 8.109375 
Q 46.6875 8.109375 53.6875 14.9375 
Q 60.6875 21.78125 60.6875 36.53125 
Q 60.6875 51.171875 53.6875 57.984375 
Q 46.6875 64.796875 31.59375 64.796875 
z
M 9.8125 72.90625 
L 30.078125 72.90625 
Q 51.265625 72.90625 61.171875 64.09375 
Q 71.09375 55.28125 71.09375 36.53125 
Q 71.09375 17.671875 61.125 8.828125 
Q 51.171875 0 30.078125 0 
L 9.8125 0 
z
" id="DejaVuSans-68"/>
       <path d="M 48.6875 27.296875 
Q 48.6875 37.203125 44.609375 42.84375 
Q 40.53125 48.484375 33.40625 48.484375 
Q 26.265625 48.484375 22.1875 42.84375 
Q 18.109375 37.203125 18.109375 27.296875 
Q 18.109375 17.390625 22.1875 11.75 
Q 26.265625 6.109375 33.40625 6.109375 
Q 40.53125 6.109375 44.609375 11.75 
Q 48.6875 17.390625 48.6875 27.296875 
z
M 18.109375 46.390625 
Q 20.953125 51.265625 25.265625 53.625 
Q 29.59375 56 35.59375 56 
Q 45.5625 56 51.78125 48.09375 
Q 58.015625 40.1875 58.015625 27.296875 
Q 58.015625 14.40625 51.78125 6.484375 
Q 45.5625 -1.421875 35.59375 -1.421875 
Q 29.59375 -1.421875 25.265625 0.953125 
Q 20.953125 3.328125 18.109375 8.203125 
L 18.109375 0 
L 9.078125 0 
L 9.078125 75.984375 
L 18.109375 75.984375 
z
" id="DejaVuSans-98"/>
       <path d="M 32.171875 -5.078125 
Q 28.375 -14.84375 24.75 -17.8125 
Q 21.140625 -20.796875 15.09375 -20.796875 
L 7.90625 -20.796875 
L 7.90625 -13.28125 
L 13.1875 -13.28125 
Q 16.890625 -13.28125 18.9375 -11.515625 
Q 21 -9.765625 23.484375 -3.21875 
L 25.09375 0.875 
L 2.984375 54.6875 
L 12.5 54.6875 
L 29.59375 11.921875 
L 46.6875 54.6875 
L 56.203125 54.6875 
z
" id="DejaVuSans-121"/>
       <path d="M 11.71875 12.40625 
L 22.015625 12.40625 
L 22.015625 0 
L 11.71875 0 
z
M 11.71875 51.703125 
L 22.015625 51.703125 
L 22.015625 39.3125 
L 11.71875 39.3125 
z
" id="DejaVuSans-58"/>
       <path d="M -0.296875 72.90625 
L 61.375 72.90625 
L 61.375 64.59375 
L 35.5 64.59375 
L 35.5 0 
L 25.59375 0 
L 25.59375 64.59375 
L -0.296875 64.59375 
z
" id="DejaVuSans-84"/>
       <path d="M 9.8125 72.90625 
L 24.515625 72.90625 
L 43.109375 23.296875 
L 61.8125 72.90625 
L 76.515625 72.90625 
L 76.515625 0 
L 66.890625 0 
L 66.890625 64.015625 
L 48.09375 14.015625 
L 38.1875 14.015625 
L 19.390625 64.015625 
L 19.390625 0 
L 9.8125 0 
z
" id="DejaVuSans-77"/>
       <path d="M 28.609375 0 
L 0.78125 72.90625 
L 11.078125 72.90625 
L 34.1875 11.53125 
L 57.328125 72.90625 
L 67.578125 72.90625 
L 39.796875 0 
z
" id="DejaVuSans-86"/>
       <path d="M 9.421875 75.984375 
L 18.40625 75.984375 
L 18.40625 0 
L 9.421875 0 
z
" id="DejaVuSans-108"/>
       <path d="M 45.40625 27.984375 
Q 45.40625 37.75 41.375 43.109375 
Q 37.359375 48.484375 30.078125 48.484375 
Q 22.859375 48.484375 18.828125 43.109375 
Q 14.796875 37.75 14.796875 27.984375 
Q 14.796875 18.265625 18.828125 12.890625 
Q 22.859375 7.515625 30.078125 7.515625 
Q 37.359375 7.515625 41.375 12.890625 
Q 45.40625 18.265625 45.40625 27.984375 
z
M 54.390625 6.78125 
Q 54.390625 -7.171875 48.1875 -13.984375 
Q 42 -20.796875 29.203125 -20.796875 
Q 24.46875 -20.796875 20.265625 -20.09375 
Q 16.0625 -19.390625 12.109375 -17.921875 
L 12.109375 -9.1875 
Q 16.0625 -11.328125 19.921875 -12.34375 
Q 23.78125 -13.375 27.78125 -13.375 
Q 36.625 -13.375 41.015625 -8.765625 
Q 45.40625 -4.15625 45.40625 5.171875 
L 45.40625 9.625 
Q 42.625 4.78125 38.28125 2.390625 
Q 33.9375 0 27.875 0 
Q 17.828125 0 11.671875 7.65625 
Q 5.515625 15.328125 5.515625 27.984375 
Q 5.515625 40.671875 11.671875 48.328125 
Q 17.828125 56 27.875 56 
Q 33.9375 56 38.28125 53.609375 
Q 42.625 51.21875 45.40625 46.390625 
L 45.40625 54.6875 
L 54.390625 54.6875 
z
" id="DejaVuSans-103"/>
      </defs>
      <g transform="translate(-102.91875 49.231219)scale(0.1 -0.1)">
       <use xlink:href="#DejaVuSans-74"/>
       <use x="29.492188" xlink:href="#DejaVuSans-111"/>
       <use x="90.673828" xlink:href="#DejaVuSans-104"/>
       <use x="154.052734" xlink:href="#DejaVuSans-110"/>
       <use x="217.431641" xlink:href="#DejaVuSans-32"/>
       <use x="249.21875" xlink:href="#DejaVuSans-68"/>
       <use x="326.220703" xlink:href="#DejaVuSans-101"/>
       <use x="387.744141" xlink:href="#DejaVuSans-98"/>
       <use x="451.220703" xlink:href="#DejaVuSans-110"/>
       <use x="514.599609" xlink:href="#DejaVuSans-101"/>
       <use x="576.123047" xlink:href="#DejaVuSans-121"/>
       <use x="635.193359" xlink:href="#DejaVuSans-58"/>
       <use x="668.884766" xlink:href="#DejaVuSans-32"/>
       <use x="700.671875" xlink:href="#DejaVuSans-84"/>
       <use x="761.755859" xlink:href="#DejaVuSans-104"/>
       <use x="825.134766" xlink:href="#DejaVuSans-101"/>
       <use x="886.658203" xlink:href="#DejaVuSans-32"/>
       <use x="918.445312" xlink:href="#DejaVuSans-77"/>
       <use x="1004.724609" xlink:href="#DejaVuSans-97"/>
       <use x="1066.003906" xlink:href="#DejaVuSans-110"/>
       <use x="1129.382812" xlink:href="#DejaVuSans-32"/>
       <use x="1161.169922" xlink:href="#DejaVuSans-86"/>
       <use x="1229.546875" xlink:href="#DejaVuSans-105"/>
       <use x="1257.330078" xlink:href="#DejaVuSans-108"/>
       <use x="1285.113281" xlink:href="#DejaVuSans-108"/>
       <use x="1312.896484" xlink:href="#DejaVuSans-97"/>
       <use x="1374.175781" xlink:href="#DejaVuSans-103"/>
       <use x="1437.652344" xlink:href="#DejaVuSans-101"/>
      </g>
     </g>
    </g>
    <g id="ytick_2">
     <g id="line2d_11">
      <g>
       <use style="stroke:#000000;stroke-width:0.8;" x="54" xlink:href="#ma14d5538ca" y="67.176"/>
      </g>
     </g>
     <g id="text_12">
      <!-- Ludovico Einaudi: Canzone Africana IV -->
      <defs>
       <path d="M 9.8125 72.90625 
L 19.671875 72.90625 
L 19.671875 8.296875 
L 55.171875 8.296875 
L 55.171875 0 
L 9.8125 0 
z
" id="DejaVuSans-76"/>
       <path d="M 8.5 21.578125 
L 8.5 54.6875 
L 17.484375 54.6875 
L 17.484375 21.921875 
Q 17.484375 14.15625 20.5 10.265625 
Q 23.53125 6.390625 29.59375 6.390625 
Q 36.859375 6.390625 41.078125 11.03125 
Q 45.3125 15.671875 45.3125 23.6875 
L 45.3125 54.6875 
L 54.296875 54.6875 
L 54.296875 0 
L 45.3125 0 
L 45.3125 8.40625 
Q 42.046875 3.421875 37.71875 1 
Q 33.40625 -1.421875 27.6875 -1.421875 
Q 18.265625 -1.421875 13.375 4.4375 
Q 8.5 10.296875 8.5 21.578125 
z
M 31.109375 56 
z
" id="DejaVuSans-117"/>
       <path d="M 2.984375 54.6875 
L 12.5 54.6875 
L 29.59375 8.796875 
L 46.6875 54.6875 
L 56.203125 54.6875 
L 35.6875 0 
L 23.484375 0 
z
" id="DejaVuSans-118"/>
       <path d="M 9.8125 72.90625 
L 55.90625 72.90625 
L 55.90625 64.59375 
L 19.671875 64.59375 
L 19.671875 43.015625 
L 54.390625 43.015625 
L 54.390625 34.71875 
L 19.671875 34.71875 
L 19.671875 8.296875 
L 56.78125 8.296875 
L 56.78125 0 
L 9.8125 0 
z
" id="DejaVuSans-69"/>
       <path d="M 64.40625 67.28125 
L 64.40625 56.890625 
Q 59.421875 61.53125 53.78125 63.8125 
Q 48.140625 66.109375 41.796875 66.109375 
Q 29.296875 66.109375 22.65625 58.46875 
Q 16.015625 50.828125 16.015625 36.375 
Q 16.015625 21.96875 22.65625 14.328125 
Q 29.296875 6.6875 41.796875 6.6875 
Q 48.140625 6.6875 53.78125 8.984375 
Q 59.421875 11.28125 64.40625 15.921875 
L 64.40625 5.609375 
Q 59.234375 2.09375 53.4375 0.328125 
Q 47.65625 -1.421875 41.21875 -1.421875 
Q 24.65625 -1.421875 15.125 8.703125 
Q 5.609375 18.84375 5.609375 36.375 
Q 5.609375 53.953125 15.125 64.078125 
Q 24.65625 74.21875 41.21875 74.21875 
Q 47.75 74.21875 53.53125 72.484375 
Q 59.328125 70.75 64.40625 67.28125 
z
" id="DejaVuSans-67"/>
       <path d="M 5.515625 54.6875 
L 48.1875 54.6875 
L 48.1875 46.484375 
L 14.40625 7.171875 
L 48.1875 7.171875 
L 48.1875 0 
L 4.296875 0 
L 4.296875 8.203125 
L 38.09375 47.515625 
L 5.515625 47.515625 
z
" id="DejaVuSans-122"/>
       <path d="M 34.1875 63.1875 
L 20.796875 26.90625 
L 47.609375 26.90625 
z
M 28.609375 72.90625 
L 39.796875 72.90625 
L 67.578125 0 
L 57.328125 0 
L 50.6875 18.703125 
L 17.828125 18.703125 
L 11.1875 0 
L 0.78125 0 
z
" id="DejaVuSans-65"/>
       <path d="M 37.109375 75.984375 
L 37.109375 68.5 
L 28.515625 68.5 
Q 23.6875 68.5 21.796875 66.546875 
Q 19.921875 64.59375 19.921875 59.515625 
L 19.921875 54.6875 
L 34.71875 54.6875 
L 34.71875 47.703125 
L 19.921875 47.703125 
L 19.921875 0 
L 10.890625 0 
L 10.890625 47.703125 
L 2.296875 47.703125 
L 2.296875 54.6875 
L 10.890625 54.6875 
L 10.890625 58.5 
Q 10.890625 67.625 15.140625 71.796875 
Q 19.390625 75.984375 28.609375 75.984375 
z
" id="DejaVuSans-102"/>
       <path d="M 41.109375 46.296875 
Q 39.59375 47.171875 37.8125 47.578125 
Q 36.03125 48 33.890625 48 
Q 26.265625 48 22.1875 43.046875 
Q 18.109375 38.09375 18.109375 28.8125 
L 18.109375 0 
L 9.078125 0 
L 9.078125 54.6875 
L 18.109375 54.6875 
L 18.109375 46.1875 
Q 20.953125 51.171875 25.484375 53.578125 
Q 30.03125 56 36.53125 56 
Q 37.453125 56 38.578125 55.875 
Q 39.703125 55.765625 41.0625 55.515625 
z
" id="DejaVuSans-114"/>
       <path d="M 9.8125 72.90625 
L 19.671875 72.90625 
L 19.671875 0 
L 9.8125 0 
z
" id="DejaVuSans-73"/>
      </defs>
      <g transform="translate(-145.23125 70.975219)scale(0.1 -0.1)">
       <use xlink:href="#DejaVuSans-76"/>
       <use x="55.697266" xlink:href="#DejaVuSans-117"/>
       <use x="119.076172" xlink:href="#DejaVuSans-100"/>
       <use x="182.552734" xlink:href="#DejaVuSans-111"/>
       <use x="243.734375" xlink:href="#DejaVuSans-118"/>
       <use x="302.914062" xlink:href="#DejaVuSans-105"/>
       <use x="330.697266" xlink:href="#DejaVuSans-99"/>
       <use x="385.677734" xlink:href="#DejaVuSans-111"/>
       <use x="446.859375" xlink:href="#DejaVuSans-32"/>
       <use x="478.646484" xlink:href="#DejaVuSans-69"/>
       <use x="541.830078" xlink:href="#DejaVuSans-105"/>
       <use x="569.613281" xlink:href="#DejaVuSans-110"/>
       <use x="632.992188" xlink:href="#DejaVuSans-97"/>
       <use x="694.271484" xlink:href="#DejaVuSans-117"/>
       <use x="757.650391" xlink:href="#DejaVuSans-100"/>
       <use x="821.126953" xlink:href="#DejaVuSans-105"/>
       <use x="848.910156" xlink:href="#DejaVuSans-58"/>
       <use x="882.601562" xlink:href="#DejaVuSans-32"/>
       <use x="914.388672" xlink:href="#DejaVuSans-67"/>
       <use x="984.212891" xlink:href="#DejaVuSans-97"/>
       <use x="1045.492188" xlink:href="#DejaVuSans-110"/>
       <use x="1108.871094" xlink:href="#DejaVuSans-122"/>
       <use x="1161.361328" xlink:href="#DejaVuSans-111"/>
       <use x="1222.542969" xlink:href="#DejaVuSans-110"/>
       <use x="1285.921875" xlink:href="#DejaVuSans-101"/>
       <use x="1347.445312" xlink:href="#DejaVuSans-32"/>
       <use x="1379.232422" xlink:href="#DejaVuSans-65"/>
       <use x="1447.59375" xlink:href="#DejaVuSans-102"/>
       <use x="1482.798828" xlink:href="#DejaVuSans-114"/>
       <use x="1523.912109" xlink:href="#DejaVuSans-105"/>
       <use x="1551.695312" xlink:href="#DejaVuSans-99"/>
       <use x="1606.675781" xlink:href="#DejaVuSans-97"/>
       <use x="1667.955078" xlink:href="#DejaVuSans-110"/>
       <use x="1731.333984" xlink:href="#DejaVuSans-97"/>
       <use x="1792.613281" xlink:href="#DejaVuSans-32"/>
       <use x="1824.400391" xlink:href="#DejaVuSans-73"/>
       <use x="1853.892578" xlink:href="#DejaVuSans-86"/>
      </g>
     </g>
    </g>
    <g id="ytick_3">
     <g id="line2d_12">
      <g>
       <use style="stroke:#000000;stroke-width:0.8;" x="54" xlink:href="#ma14d5538ca" y="88.92"/>
      </g>
     </g>
     <g id="text_13">
      <!-- Josh Brill: Savasana -->
      <defs>
       <path d="M 19.671875 34.8125 
L 19.671875 8.109375 
L 35.5 8.109375 
Q 43.453125 8.109375 47.28125 11.40625 
Q 51.125 14.703125 51.125 21.484375 
Q 51.125 28.328125 47.28125 31.5625 
Q 43.453125 34.8125 35.5 34.8125 
z
M 19.671875 64.796875 
L 19.671875 42.828125 
L 34.28125 42.828125 
Q 41.5 42.828125 45.03125 45.53125 
Q 48.578125 48.25 48.578125 53.8125 
Q 48.578125 59.328125 45.03125 62.0625 
Q 41.5 64.796875 34.28125 64.796875 
z
M 9.8125 72.90625 
L 35.015625 72.90625 
Q 46.296875 72.90625 52.390625 68.21875 
Q 58.5 63.53125 58.5 54.890625 
Q 58.5 48.1875 55.375 44.234375 
Q 52.25 40.28125 46.1875 39.3125 
Q 53.46875 37.75 57.5 32.78125 
Q 61.53125 27.828125 61.53125 20.40625 
Q 61.53125 10.640625 54.890625 5.3125 
Q 48.25 0 35.984375 0 
L 9.8125 0 
z
" id="DejaVuSans-66"/>
       <path d="M 53.515625 70.515625 
L 53.515625 60.890625 
Q 47.90625 63.578125 42.921875 64.890625 
Q 37.9375 66.21875 33.296875 66.21875 
Q 25.25 66.21875 20.875 63.09375 
Q 16.5 59.96875 16.5 54.203125 
Q 16.5 49.359375 19.40625 46.890625 
Q 22.3125 44.4375 30.421875 42.921875 
L 36.375 41.703125 
Q 47.40625 39.59375 52.65625 34.296875 
Q 57.90625 29 57.90625 20.125 
Q 57.90625 9.515625 50.796875 4.046875 
Q 43.703125 -1.421875 29.984375 -1.421875 
Q 24.8125 -1.421875 18.96875 -0.25 
Q 13.140625 0.921875 6.890625 3.21875 
L 6.890625 13.375 
Q 12.890625 10.015625 18.65625 8.296875 
Q 24.421875 6.59375 29.984375 6.59375 
Q 38.421875 6.59375 43.015625 9.90625 
Q 47.609375 13.234375 47.609375 19.390625 
Q 47.609375 24.75 44.3125 27.78125 
Q 41.015625 30.8125 33.5 32.328125 
L 27.484375 33.5 
Q 16.453125 35.6875 11.515625 40.375 
Q 6.59375 45.0625 6.59375 53.421875 
Q 6.59375 63.09375 13.40625 68.65625 
Q 20.21875 74.21875 32.171875 74.21875 
Q 37.3125 74.21875 42.625 73.28125 
Q 47.953125 72.359375 53.515625 70.515625 
z
" id="DejaVuSans-83"/>
      </defs>
      <g transform="translate(-50.973438 92.719219)scale(0.1 -0.1)">
       <use xlink:href="#DejaVuSans-74"/>
       <use x="29.492188" xlink:href="#DejaVuSans-111"/>
       <use x="90.673828" xlink:href="#DejaVuSans-115"/>
       <use x="142.773438" xlink:href="#DejaVuSans-104"/>
       <use x="206.152344" xlink:href="#DejaVuSans-32"/>
       <use x="237.939453" xlink:href="#DejaVuSans-66"/>
       <use x="306.542969" xlink:href="#DejaVuSans-114"/>
       <use x="347.65625" xlink:href="#DejaVuSans-105"/>
       <use x="375.439453" xlink:href="#DejaVuSans-108"/>
       <use x="403.222656" xlink:href="#DejaVuSans-108"/>
       <use x="431.005859" xlink:href="#DejaVuSans-58"/>
       <use x="464.697266" xlink:href="#DejaVuSans-32"/>
       <use x="496.484375" xlink:href="#DejaVuSans-83"/>
       <use x="559.960938" xlink:href="#DejaVuSans-97"/>
       <use x="621.240234" xlink:href="#DejaVuSans-118"/>
       <use x="680.419922" xlink:href="#DejaVuSans-97"/>
       <use x="741.699219" xlink:href="#DejaVuSans-115"/>
       <use x="793.798828" xlink:href="#DejaVuSans-97"/>
       <use x="855.078125" xlink:href="#DejaVuSans-110"/>
       <use x="918.457031" xlink:href="#DejaVuSans-97"/>
      </g>
     </g>
    </g>
    <g id="ytick_4">
     <g id="line2d_13">
      <g>
       <use style="stroke:#000000;stroke-width:0.8;" x="54" xlink:href="#ma14d5538ca" y="110.664"/>
      </g>
     </g>
     <g id="text_14">
      <!-- Anthony Burr: In Memoriam Stuart Marshall (1993) -->
      <defs>
       <path d="M 52 44.1875 
Q 55.375 50.25 60.0625 53.125 
Q 64.75 56 71.09375 56 
Q 79.640625 56 84.28125 50.015625 
Q 88.921875 44.046875 88.921875 33.015625 
L 88.921875 0 
L 79.890625 0 
L 79.890625 32.71875 
Q 79.890625 40.578125 77.09375 44.375 
Q 74.3125 48.1875 68.609375 48.1875 
Q 61.625 48.1875 57.5625 43.546875 
Q 53.515625 38.921875 53.515625 30.90625 
L 53.515625 0 
L 44.484375 0 
L 44.484375 32.71875 
Q 44.484375 40.625 41.703125 44.40625 
Q 38.921875 48.1875 33.109375 48.1875 
Q 26.21875 48.1875 22.15625 43.53125 
Q 18.109375 38.875 18.109375 30.90625 
L 18.109375 0 
L 9.078125 0 
L 9.078125 54.6875 
L 18.109375 54.6875 
L 18.109375 46.1875 
Q 21.1875 51.21875 25.484375 53.609375 
Q 29.78125 56 35.6875 56 
Q 41.65625 56 45.828125 52.96875 
Q 50 49.953125 52 44.1875 
z
" id="DejaVuSans-109"/>
       <path d="M 31 75.875 
Q 24.46875 64.65625 21.28125 53.65625 
Q 18.109375 42.671875 18.109375 31.390625 
Q 18.109375 20.125 21.3125 9.0625 
Q 24.515625 -2 31 -13.1875 
L 23.1875 -13.1875 
Q 15.875 -1.703125 12.234375 9.375 
Q 8.59375 20.453125 8.59375 31.390625 
Q 8.59375 42.28125 12.203125 53.3125 
Q 15.828125 64.359375 23.1875 75.875 
z
" id="DejaVuSans-40"/>
       <path d="M 10.984375 1.515625 
L 10.984375 10.5 
Q 14.703125 8.734375 18.5 7.8125 
Q 22.3125 6.890625 25.984375 6.890625 
Q 35.75 6.890625 40.890625 13.453125 
Q 46.046875 20.015625 46.78125 33.40625 
Q 43.953125 29.203125 39.59375 26.953125 
Q 35.25 24.703125 29.984375 24.703125 
Q 19.046875 24.703125 12.671875 31.3125 
Q 6.296875 37.9375 6.296875 49.421875 
Q 6.296875 60.640625 12.9375 67.421875 
Q 19.578125 74.21875 30.609375 74.21875 
Q 43.265625 74.21875 49.921875 64.515625 
Q 56.59375 54.828125 56.59375 36.375 
Q 56.59375 19.140625 48.40625 8.859375 
Q 40.234375 -1.421875 26.421875 -1.421875 
Q 22.703125 -1.421875 18.890625 -0.6875 
Q 15.09375 0.046875 10.984375 1.515625 
z
M 30.609375 32.421875 
Q 37.25 32.421875 41.125 36.953125 
Q 45.015625 41.5 45.015625 49.421875 
Q 45.015625 57.28125 41.125 61.84375 
Q 37.25 66.40625 30.609375 66.40625 
Q 23.96875 66.40625 20.09375 61.84375 
Q 16.21875 57.28125 16.21875 49.421875 
Q 16.21875 41.5 20.09375 36.953125 
Q 23.96875 32.421875 30.609375 32.421875 
z
" id="DejaVuSans-57"/>
       <path d="M 40.578125 39.3125 
Q 47.65625 37.796875 51.625 33 
Q 55.609375 28.21875 55.609375 21.1875 
Q 55.609375 10.40625 48.1875 4.484375 
Q 40.765625 -1.421875 27.09375 -1.421875 
Q 22.515625 -1.421875 17.65625 -0.515625 
Q 12.796875 0.390625 7.625 2.203125 
L 7.625 11.71875 
Q 11.71875 9.328125 16.59375 8.109375 
Q 21.484375 6.890625 26.8125 6.890625 
Q 36.078125 6.890625 40.9375 10.546875 
Q 45.796875 14.203125 45.796875 21.1875 
Q 45.796875 27.640625 41.28125 31.265625 
Q 36.765625 34.90625 28.71875 34.90625 
L 20.21875 34.90625 
L 20.21875 43.015625 
L 29.109375 43.015625 
Q 36.375 43.015625 40.234375 45.921875 
Q 44.09375 48.828125 44.09375 54.296875 
Q 44.09375 59.90625 40.109375 62.90625 
Q 36.140625 65.921875 28.71875 65.921875 
Q 24.65625 65.921875 20.015625 65.03125 
Q 15.375 64.15625 9.8125 62.3125 
L 9.8125 71.09375 
Q 15.4375 72.65625 20.34375 73.4375 
Q 25.25 74.21875 29.59375 74.21875 
Q 40.828125 74.21875 47.359375 69.109375 
Q 53.90625 64.015625 53.90625 55.328125 
Q 53.90625 49.265625 50.4375 45.09375 
Q 46.96875 40.921875 40.578125 39.3125 
z
" id="DejaVuSans-51"/>
       <path d="M 8.015625 75.875 
L 15.828125 75.875 
Q 23.140625 64.359375 26.78125 53.3125 
Q 30.421875 42.28125 30.421875 31.390625 
Q 30.421875 20.453125 26.78125 9.375 
Q 23.140625 -1.703125 15.828125 -13.1875 
L 8.015625 -13.1875 
Q 14.5 -2 17.703125 9.0625 
Q 20.90625 20.125 20.90625 31.390625 
Q 20.90625 42.671875 17.703125 53.65625 
Q 14.5 64.65625 8.015625 75.875 
z
" id="DejaVuSans-41"/>
      </defs>
      <g transform="translate(-207.46875 114.463219)scale(0.1 -0.1)">
       <use xlink:href="#DejaVuSans-65"/>
       <use x="68.408203" xlink:href="#DejaVuSans-110"/>
       <use x="131.787109" xlink:href="#DejaVuSans-116"/>
       <use x="170.996094" xlink:href="#DejaVuSans-104"/>
       <use x="234.375" xlink:href="#DejaVuSans-111"/>
       <use x="295.556641" xlink:href="#DejaVuSans-110"/>
       <use x="358.935547" xlink:href="#DejaVuSans-121"/>
       <use x="418.115234" xlink:href="#DejaVuSans-32"/>
       <use x="449.902344" xlink:href="#DejaVuSans-66"/>
       <use x="518.505859" xlink:href="#DejaVuSans-117"/>
       <use x="581.884766" xlink:href="#DejaVuSans-114"/>
       <use x="622.982422" xlink:href="#DejaVuSans-114"/>
       <use x="664.080078" xlink:href="#DejaVuSans-58"/>
       <use x="697.771484" xlink:href="#DejaVuSans-32"/>
       <use x="729.558594" xlink:href="#DejaVuSans-73"/>
       <use x="759.050781" xlink:href="#DejaVuSans-110"/>
       <use x="822.429688" xlink:href="#DejaVuSans-32"/>
       <use x="854.216797" xlink:href="#DejaVuSans-77"/>
       <use x="940.496094" xlink:href="#DejaVuSans-101"/>
       <use x="1002.019531" xlink:href="#DejaVuSans-109"/>
       <use x="1099.431641" xlink:href="#DejaVuSans-111"/>
       <use x="1160.613281" xlink:href="#DejaVuSans-114"/>
       <use x="1201.726562" xlink:href="#DejaVuSans-105"/>
       <use x="1229.509766" xlink:href="#DejaVuSans-97"/>
       <use x="1290.789062" xlink:href="#DejaVuSans-109"/>
       <use x="1388.201172" xlink:href="#DejaVuSans-32"/>
       <use x="1419.988281" xlink:href="#DejaVuSans-83"/>
       <use x="1483.464844" xlink:href="#DejaVuSans-116"/>
       <use x="1522.673828" xlink:href="#DejaVuSans-117"/>
       <use x="1586.052734" xlink:href="#DejaVuSans-97"/>
       <use x="1647.332031" xlink:href="#DejaVuSans-114"/>
       <use x="1688.445312" xlink:href="#DejaVuSans-116"/>
       <use x="1727.654297" xlink:href="#DejaVuSans-32"/>
       <use x="1759.441406" xlink:href="#DejaVuSans-77"/>
       <use x="1845.720703" xlink:href="#DejaVuSans-97"/>
       <use x="1907" xlink:href="#DejaVuSans-114"/>
       <use x="1948.113281" xlink:href="#DejaVuSans-115"/>
       <use x="2000.212891" xlink:href="#DejaVuSans-104"/>
       <use x="2063.591797" xlink:href="#DejaVuSans-97"/>
       <use x="2124.871094" xlink:href="#DejaVuSans-108"/>
       <use x="2152.654297" xlink:href="#DejaVuSans-108"/>
       <use x="2180.4375" xlink:href="#DejaVuSans-32"/>
       <use x="2212.224609" xlink:href="#DejaVuSans-40"/>
       <use x="2251.238281" xlink:href="#DejaVuSans-49"/>
       <use x="2314.861328" xlink:href="#DejaVuSans-57"/>
       <use x="2378.484375" xlink:href="#DejaVuSans-57"/>
       <use x="2442.107422" xlink:href="#DejaVuSans-51"/>
       <use x="2505.730469" xlink:href="#DejaVuSans-41"/>
      </g>
     </g>
    </g>
    <g id="ytick_5">
     <g id="line2d_14">
      <g>
       <use style="stroke:#000000;stroke-width:0.8;" x="54" xlink:href="#ma14d5538ca" y="132.408"/>
      </g>
     </g>
     <g id="text_15">
      <!-- Franz Schubert: Impromptu No. 3 in G-flat Major (Andante) -->
      <defs>
       <path d="M 9.8125 72.90625 
L 51.703125 72.90625 
L 51.703125 64.59375 
L 19.671875 64.59375 
L 19.671875 43.109375 
L 48.578125 43.109375 
L 48.578125 34.8125 
L 19.671875 34.8125 
L 19.671875 0 
L 9.8125 0 
z
" id="DejaVuSans-70"/>
       <path d="M 18.109375 8.203125 
L 18.109375 -20.796875 
L 9.078125 -20.796875 
L 9.078125 54.6875 
L 18.109375 54.6875 
L 18.109375 46.390625 
Q 20.953125 51.265625 25.265625 53.625 
Q 29.59375 56 35.59375 56 
Q 45.5625 56 51.78125 48.09375 
Q 58.015625 40.1875 58.015625 27.296875 
Q 58.015625 14.40625 51.78125 6.484375 
Q 45.5625 -1.421875 35.59375 -1.421875 
Q 29.59375 -1.421875 25.265625 0.953125 
Q 20.953125 3.328125 18.109375 8.203125 
z
M 48.6875 27.296875 
Q 48.6875 37.203125 44.609375 42.84375 
Q 40.53125 48.484375 33.40625 48.484375 
Q 26.265625 48.484375 22.1875 42.84375 
Q 18.109375 37.203125 18.109375 27.296875 
Q 18.109375 17.390625 22.1875 11.75 
Q 26.265625 6.109375 33.40625 6.109375 
Q 40.53125 6.109375 44.609375 11.75 
Q 48.6875 17.390625 48.6875 27.296875 
z
" id="DejaVuSans-112"/>
       <path d="M 9.8125 72.90625 
L 23.09375 72.90625 
L 55.421875 11.921875 
L 55.421875 72.90625 
L 64.984375 72.90625 
L 64.984375 0 
L 51.703125 0 
L 19.390625 60.984375 
L 19.390625 0 
L 9.8125 0 
z
" id="DejaVuSans-78"/>
       <path d="M 59.515625 10.40625 
L 59.515625 29.984375 
L 43.40625 29.984375 
L 43.40625 38.09375 
L 69.28125 38.09375 
L 69.28125 6.78125 
Q 63.578125 2.734375 56.6875 0.65625 
Q 49.8125 -1.421875 42 -1.421875 
Q 24.90625 -1.421875 15.25 8.5625 
Q 5.609375 18.5625 5.609375 36.375 
Q 5.609375 54.25 15.25 64.234375 
Q 24.90625 74.21875 42 74.21875 
Q 49.125 74.21875 55.546875 72.453125 
Q 61.96875 70.703125 67.390625 67.28125 
L 67.390625 56.78125 
Q 61.921875 61.421875 55.765625 63.765625 
Q 49.609375 66.109375 42.828125 66.109375 
Q 29.4375 66.109375 22.71875 58.640625 
Q 16.015625 51.171875 16.015625 36.375 
Q 16.015625 21.625 22.71875 14.15625 
Q 29.4375 6.6875 42.828125 6.6875 
Q 48.046875 6.6875 52.140625 7.59375 
Q 56.25 8.5 59.515625 10.40625 
z
" id="DejaVuSans-71"/>
       <path d="M 4.890625 31.390625 
L 31.203125 31.390625 
L 31.203125 23.390625 
L 4.890625 23.390625 
z
" id="DejaVuSans-45"/>
       <path d="M 9.421875 54.6875 
L 18.40625 54.6875 
L 18.40625 -0.984375 
Q 18.40625 -11.421875 14.421875 -16.109375 
Q 10.453125 -20.796875 1.609375 -20.796875 
L -1.8125 -20.796875 
L -1.8125 -13.1875 
L 0.59375 -13.1875 
Q 5.71875 -13.1875 7.5625 -10.8125 
Q 9.421875 -8.453125 9.421875 -0.984375 
z
M 9.421875 75.984375 
L 18.40625 75.984375 
L 18.40625 64.59375 
L 9.421875 64.59375 
z
" id="DejaVuSans-106"/>
      </defs>
      <g transform="translate(-247.617188 136.207219)scale(0.1 -0.1)">
       <use xlink:href="#DejaVuSans-70"/>
       <use x="57.410156" xlink:href="#DejaVuSans-114"/>
       <use x="98.523438" xlink:href="#DejaVuSans-97"/>
       <use x="159.802734" xlink:href="#DejaVuSans-110"/>
       <use x="223.181641" xlink:href="#DejaVuSans-122"/>
       <use x="275.671875" xlink:href="#DejaVuSans-32"/>
       <use x="307.458984" xlink:href="#DejaVuSans-83"/>
       <use x="370.935547" xlink:href="#DejaVuSans-99"/>
       <use x="425.916016" xlink:href="#DejaVuSans-104"/>
       <use x="489.294922" xlink:href="#DejaVuSans-117"/>
       <use x="552.673828" xlink:href="#DejaVuSans-98"/>
       <use x="616.150391" xlink:href="#DejaVuSans-101"/>
       <use x="677.673828" xlink:href="#DejaVuSans-114"/>
       <use x="718.787109" xlink:href="#DejaVuSans-116"/>
       <use x="757.996094" xlink:href="#DejaVuSans-58"/>
       <use x="791.6875" xlink:href="#DejaVuSans-32"/>
       <use x="823.474609" xlink:href="#DejaVuSans-73"/>
       <use x="852.966797" xlink:href="#DejaVuSans-109"/>
       <use x="950.378906" xlink:href="#DejaVuSans-112"/>
       <use x="1013.855469" xlink:href="#DejaVuSans-114"/>
       <use x="1054.9375" xlink:href="#DejaVuSans-111"/>
       <use x="1116.119141" xlink:href="#DejaVuSans-109"/>
       <use x="1213.53125" xlink:href="#DejaVuSans-112"/>
       <use x="1277.007812" xlink:href="#DejaVuSans-116"/>
       <use x="1316.216797" xlink:href="#DejaVuSans-117"/>
       <use x="1379.595703" xlink:href="#DejaVuSans-32"/>
       <use x="1411.382812" xlink:href="#DejaVuSans-78"/>
       <use x="1486.1875" xlink:href="#DejaVuSans-111"/>
       <use x="1547.353516" xlink:href="#DejaVuSans-46"/>
       <use x="1579.140625" xlink:href="#DejaVuSans-32"/>
       <use x="1610.927734" xlink:href="#DejaVuSans-51"/>
       <use x="1674.550781" xlink:href="#DejaVuSans-32"/>
       <use x="1706.337891" xlink:href="#DejaVuSans-105"/>
       <use x="1734.121094" xlink:href="#DejaVuSans-110"/>
       <use x="1797.5" xlink:href="#DejaVuSans-32"/>
       <use x="1829.287109" xlink:href="#DejaVuSans-71"/>
       <use x="1906.777344" xlink:href="#DejaVuSans-45"/>
       <use x="1942.861328" xlink:href="#DejaVuSans-102"/>
       <use x="1978.066406" xlink:href="#DejaVuSans-108"/>
       <use x="2005.849609" xlink:href="#DejaVuSans-97"/>
       <use x="2067.128906" xlink:href="#DejaVuSans-116"/>
       <use x="2106.337891" xlink:href="#DejaVuSans-32"/>
       <use x="2138.125" xlink:href="#DejaVuSans-77"/>
       <use x="2224.404297" xlink:href="#DejaVuSans-97"/>
       <use x="2285.683594" xlink:href="#DejaVuSans-106"/>
       <use x="2313.466797" xlink:href="#DejaVuSans-111"/>
       <use x="2374.648438" xlink:href="#DejaVuSans-114"/>
       <use x="2415.761719" xlink:href="#DejaVuSans-32"/>
       <use x="2447.548828" xlink:href="#DejaVuSans-40"/>
       <use x="2486.5625" xlink:href="#DejaVuSans-65"/>
       <use x="2554.970703" xlink:href="#DejaVuSans-110"/>
       <use x="2618.349609" xlink:href="#DejaVuSans-100"/>
       <use x="2681.826172" xlink:href="#DejaVuSans-97"/>
       <use x="2743.105469" xlink:href="#DejaVuSans-110"/>
       <use x="2806.484375" xlink:href="#DejaVuSans-116"/>
       <use x="2845.693359" xlink:href="#DejaVuSans-101"/>
       <use x="2907.216797" xlink:href="#DejaVuSans-41"/>
      </g>
     </g>
    </g>
    <g id="ytick_6">
     <g id="line2d_15">
      <g>
       <use style="stroke:#000000;stroke-width:0.8;" x="54" xlink:href="#ma14d5538ca" y="154.152"/>
      </g>
     </g>
     <g id="text_16">
      <!-- Franz Schubert: Sonate pour arpeggione [violoncelle] et piano en la mineur, D. 821: II. Adagio -->
      <defs>
       <path d="M 8.59375 75.984375 
L 29.296875 75.984375 
L 29.296875 69 
L 17.578125 69 
L 17.578125 -6.203125 
L 29.296875 -6.203125 
L 29.296875 -13.1875 
L 8.59375 -13.1875 
z
" id="DejaVuSans-91"/>
       <path d="M 30.421875 75.984375 
L 30.421875 -13.1875 
L 9.71875 -13.1875 
L 9.71875 -6.203125 
L 21.390625 -6.203125 
L 21.390625 69 
L 9.71875 69 
L 9.71875 75.984375 
z
" id="DejaVuSans-93"/>
       <path d="M 11.71875 12.40625 
L 22.015625 12.40625 
L 22.015625 4 
L 14.015625 -11.625 
L 7.71875 -11.625 
L 11.71875 4 
z
" id="DejaVuSans-44"/>
       <path d="M 31.78125 34.625 
Q 24.75 34.625 20.71875 30.859375 
Q 16.703125 27.09375 16.703125 20.515625 
Q 16.703125 13.921875 20.71875 10.15625 
Q 24.75 6.390625 31.78125 6.390625 
Q 38.8125 6.390625 42.859375 10.171875 
Q 46.921875 13.96875 46.921875 20.515625 
Q 46.921875 27.09375 42.890625 30.859375 
Q 38.875 34.625 31.78125 34.625 
z
M 21.921875 38.8125 
Q 15.578125 40.375 12.03125 44.71875 
Q 8.5 49.078125 8.5 55.328125 
Q 8.5 64.0625 14.71875 69.140625 
Q 20.953125 74.21875 31.78125 74.21875 
Q 42.671875 74.21875 48.875 69.140625 
Q 55.078125 64.0625 55.078125 55.328125 
Q 55.078125 49.078125 51.53125 44.71875 
Q 48 40.375 41.703125 38.8125 
Q 48.828125 37.15625 52.796875 32.3125 
Q 56.78125 27.484375 56.78125 20.515625 
Q 56.78125 9.90625 50.3125 4.234375 
Q 43.84375 -1.421875 31.78125 -1.421875 
Q 19.734375 -1.421875 13.25 4.234375 
Q 6.78125 9.90625 6.78125 20.515625 
Q 6.78125 27.484375 10.78125 32.3125 
Q 14.796875 37.15625 21.921875 38.8125 
z
M 18.3125 54.390625 
Q 18.3125 48.734375 21.84375 45.5625 
Q 25.390625 42.390625 31.78125 42.390625 
Q 38.140625 42.390625 41.71875 45.5625 
Q 45.3125 48.734375 45.3125 54.390625 
Q 45.3125 60.0625 41.71875 63.234375 
Q 38.140625 66.40625 31.78125 66.40625 
Q 25.390625 66.40625 21.84375 63.234375 
Q 18.3125 60.0625 18.3125 54.390625 
z
" id="DejaVuSans-56"/>
      </defs>
      <g transform="translate(-424.234375 157.951219)scale(0.1 -0.1)">
       <use xlink:href="#DejaVuSans-70"/>
       <use x="57.410156" xlink:href="#DejaVuSans-114"/>
       <use x="98.523438" xlink:href="#DejaVuSans-97"/>
       <use x="159.802734" xlink:href="#DejaVuSans-110"/>
       <use x="223.181641" xlink:href="#DejaVuSans-122"/>
       <use x="275.671875" xlink:href="#DejaVuSans-32"/>
       <use x="307.458984" xlink:href="#DejaVuSans-83"/>
       <use x="370.935547" xlink:href="#DejaVuSans-99"/>
       <use x="425.916016" xlink:href="#DejaVuSans-104"/>
       <use x="489.294922" xlink:href="#DejaVuSans-117"/>
       <use x="552.673828" xlink:href="#DejaVuSans-98"/>
       <use x="616.150391" xlink:href="#DejaVuSans-101"/>
       <use x="677.673828" xlink:href="#DejaVuSans-114"/>
       <use x="718.787109" xlink:href="#DejaVuSans-116"/>
       <use x="757.996094" xlink:href="#DejaVuSans-58"/>
       <use x="791.6875" xlink:href="#DejaVuSans-32"/>
       <use x="823.474609" xlink:href="#DejaVuSans-83"/>
       <use x="886.951172" xlink:href="#DejaVuSans-111"/>
       <use x="948.132812" xlink:href="#DejaVuSans-110"/>
       <use x="1011.511719" xlink:href="#DejaVuSans-97"/>
       <use x="1072.791016" xlink:href="#DejaVuSans-116"/>
       <use x="1112" xlink:href="#DejaVuSans-101"/>
       <use x="1173.523438" xlink:href="#DejaVuSans-32"/>
       <use x="1205.310547" xlink:href="#DejaVuSans-112"/>
       <use x="1268.787109" xlink:href="#DejaVuSans-111"/>
       <use x="1329.96875" xlink:href="#DejaVuSans-117"/>
       <use x="1393.347656" xlink:href="#DejaVuSans-114"/>
       <use x="1434.460938" xlink:href="#DejaVuSans-32"/>
       <use x="1466.248047" xlink:href="#DejaVuSans-97"/>
       <use x="1527.527344" xlink:href="#DejaVuSans-114"/>
       <use x="1568.640625" xlink:href="#DejaVuSans-112"/>
       <use x="1632.117188" xlink:href="#DejaVuSans-101"/>
       <use x="1693.640625" xlink:href="#DejaVuSans-103"/>
       <use x="1757.117188" xlink:href="#DejaVuSans-103"/>
       <use x="1820.59375" xlink:href="#DejaVuSans-105"/>
       <use x="1848.376953" xlink:href="#DejaVuSans-111"/>
       <use x="1909.558594" xlink:href="#DejaVuSans-110"/>
       <use x="1972.9375" xlink:href="#DejaVuSans-101"/>
       <use x="2034.460938" xlink:href="#DejaVuSans-32"/>
       <use x="2066.248047" xlink:href="#DejaVuSans-91"/>
       <use x="2105.261719" xlink:href="#DejaVuSans-118"/>
       <use x="2164.441406" xlink:href="#DejaVuSans-105"/>
       <use x="2192.224609" xlink:href="#DejaVuSans-111"/>
       <use x="2253.40625" xlink:href="#DejaVuSans-108"/>
       <use x="2281.189453" xlink:href="#DejaVuSans-111"/>
       <use x="2342.371094" xlink:href="#DejaVuSans-110"/>
       <use x="2405.75" xlink:href="#DejaVuSans-99"/>
       <use x="2460.730469" xlink:href="#DejaVuSans-101"/>
       <use x="2522.253906" xlink:href="#DejaVuSans-108"/>
       <use x="2550.037109" xlink:href="#DejaVuSans-108"/>
       <use x="2577.820312" xlink:href="#DejaVuSans-101"/>
       <use x="2639.34375" xlink:href="#DejaVuSans-93"/>
       <use x="2678.357422" xlink:href="#DejaVuSans-32"/>
       <use x="2710.144531" xlink:href="#DejaVuSans-101"/>
       <use x="2771.667969" xlink:href="#DejaVuSans-116"/>
       <use x="2810.876953" xlink:href="#DejaVuSans-32"/>
       <use x="2842.664062" xlink:href="#DejaVuSans-112"/>
       <use x="2906.140625" xlink:href="#DejaVuSans-105"/>
       <use x="2933.923828" xlink:href="#DejaVuSans-97"/>
       <use x="2995.203125" xlink:href="#DejaVuSans-110"/>
       <use x="3058.582031" xlink:href="#DejaVuSans-111"/>
       <use x="3119.763672" xlink:href="#DejaVuSans-32"/>
       <use x="3151.550781" xlink:href="#DejaVuSans-101"/>
       <use x="3213.074219" xlink:href="#DejaVuSans-110"/>
       <use x="3276.453125" xlink:href="#DejaVuSans-32"/>
       <use x="3308.240234" xlink:href="#DejaVuSans-108"/>
       <use x="3336.023438" xlink:href="#DejaVuSans-97"/>
       <use x="3397.302734" xlink:href="#DejaVuSans-32"/>
       <use x="3429.089844" xlink:href="#DejaVuSans-109"/>
       <use x="3526.501953" xlink:href="#DejaVuSans-105"/>
       <use x="3554.285156" xlink:href="#DejaVuSans-110"/>
       <use x="3617.664062" xlink:href="#DejaVuSans-101"/>
       <use x="3679.1875" xlink:href="#DejaVuSans-117"/>
       <use x="3742.566406" xlink:href="#DejaVuSans-114"/>
       <use x="3783.679688" xlink:href="#DejaVuSans-44"/>
       <use x="3815.466797" xlink:href="#DejaVuSans-32"/>
       <use x="3847.253906" xlink:href="#DejaVuSans-68"/>
       <use x="3924.255859" xlink:href="#DejaVuSans-46"/>
       <use x="3956.042969" xlink:href="#DejaVuSans-32"/>
       <use x="3987.830078" xlink:href="#DejaVuSans-56"/>
       <use x="4051.453125" xlink:href="#DejaVuSans-50"/>
       <use x="4115.076172" xlink:href="#DejaVuSans-49"/>
       <use x="4178.699219" xlink:href="#DejaVuSans-58"/>
       <use x="4212.390625" xlink:href="#DejaVuSans-32"/>
       <use x="4244.177734" xlink:href="#DejaVuSans-73"/>
       <use x="4273.669922" xlink:href="#DejaVuSans-73"/>
       <use x="4303.162109" xlink:href="#DejaVuSans-46"/>
       <use x="4334.949219" xlink:href="#DejaVuSans-32"/>
       <use x="4366.736328" xlink:href="#DejaVuSans-65"/>
       <use x="4435.128906" xlink:href="#DejaVuSans-100"/>
       <use x="4498.605469" xlink:href="#DejaVuSans-97"/>
       <use x="4559.884766" xlink:href="#DejaVuSans-103"/>
       <use x="4623.361328" xlink:href="#DejaVuSans-105"/>
       <use x="4651.144531" xlink:href="#DejaVuSans-111"/>
      </g>
     </g>
    </g>
    <g id="ytick_7">
     <g id="line2d_16">
      <g>
       <use style="stroke:#000000;stroke-width:0.8;" x="54" xlink:href="#ma14d5538ca" y="175.896"/>
      </g>
     </g>
     <g id="text_17">
      <!-- Gustav Holst: The Planets, Op. 32: Neptune, the Mystic -->
      <defs>
       <path d="M 9.8125 72.90625 
L 19.671875 72.90625 
L 19.671875 43.015625 
L 55.515625 43.015625 
L 55.515625 72.90625 
L 65.375 72.90625 
L 65.375 0 
L 55.515625 0 
L 55.515625 34.71875 
L 19.671875 34.71875 
L 19.671875 0 
L 9.8125 0 
z
" id="DejaVuSans-72"/>
       <path d="M 19.671875 64.796875 
L 19.671875 37.40625 
L 32.078125 37.40625 
Q 38.96875 37.40625 42.71875 40.96875 
Q 46.484375 44.53125 46.484375 51.125 
Q 46.484375 57.671875 42.71875 61.234375 
Q 38.96875 64.796875 32.078125 64.796875 
z
M 9.8125 72.90625 
L 32.078125 72.90625 
Q 44.34375 72.90625 50.609375 67.359375 
Q 56.890625 61.8125 56.890625 51.125 
Q 56.890625 40.328125 50.609375 34.8125 
Q 44.34375 29.296875 32.078125 29.296875 
L 19.671875 29.296875 
L 19.671875 0 
L 9.8125 0 
z
" id="DejaVuSans-80"/>
       <path d="M 39.40625 66.21875 
Q 28.65625 66.21875 22.328125 58.203125 
Q 16.015625 50.203125 16.015625 36.375 
Q 16.015625 22.609375 22.328125 14.59375 
Q 28.65625 6.59375 39.40625 6.59375 
Q 50.140625 6.59375 56.421875 14.59375 
Q 62.703125 22.609375 62.703125 36.375 
Q 62.703125 50.203125 56.421875 58.203125 
Q 50.140625 66.21875 39.40625 66.21875 
z
M 39.40625 74.21875 
Q 54.734375 74.21875 63.90625 63.9375 
Q 73.09375 53.65625 73.09375 36.375 
Q 73.09375 19.140625 63.90625 8.859375 
Q 54.734375 -1.421875 39.40625 -1.421875 
Q 24.03125 -1.421875 14.8125 8.828125 
Q 5.609375 19.09375 5.609375 36.375 
Q 5.609375 53.65625 14.8125 63.9375 
Q 24.03125 74.21875 39.40625 74.21875 
z
" id="DejaVuSans-79"/>
      </defs>
      <g transform="translate(-228.701563 179.695219)scale(0.1 -0.1)">
       <use xlink:href="#DejaVuSans-71"/>
       <use x="77.490234" xlink:href="#DejaVuSans-117"/>
       <use x="140.869141" xlink:href="#DejaVuSans-115"/>
       <use x="192.96875" xlink:href="#DejaVuSans-116"/>
       <use x="232.177734" xlink:href="#DejaVuSans-97"/>
       <use x="293.457031" xlink:href="#DejaVuSans-118"/>
       <use x="352.636719" xlink:href="#DejaVuSans-32"/>
       <use x="384.423828" xlink:href="#DejaVuSans-72"/>
       <use x="459.619141" xlink:href="#DejaVuSans-111"/>
       <use x="520.800781" xlink:href="#DejaVuSans-108"/>
       <use x="548.583984" xlink:href="#DejaVuSans-115"/>
       <use x="600.683594" xlink:href="#DejaVuSans-116"/>
       <use x="639.892578" xlink:href="#DejaVuSans-58"/>
       <use x="673.583984" xlink:href="#DejaVuSans-32"/>
       <use x="705.371094" xlink:href="#DejaVuSans-84"/>
       <use x="766.455078" xlink:href="#DejaVuSans-104"/>
       <use x="829.833984" xlink:href="#DejaVuSans-101"/>
       <use x="891.357422" xlink:href="#DejaVuSans-32"/>
       <use x="923.144531" xlink:href="#DejaVuSans-80"/>
       <use x="983.447266" xlink:href="#DejaVuSans-108"/>
       <use x="1011.230469" xlink:href="#DejaVuSans-97"/>
       <use x="1072.509766" xlink:href="#DejaVuSans-110"/>
       <use x="1135.888672" xlink:href="#DejaVuSans-101"/>
       <use x="1197.412109" xlink:href="#DejaVuSans-116"/>
       <use x="1236.621094" xlink:href="#DejaVuSans-115"/>
       <use x="1288.720703" xlink:href="#DejaVuSans-44"/>
       <use x="1320.507812" xlink:href="#DejaVuSans-32"/>
       <use x="1352.294922" xlink:href="#DejaVuSans-79"/>
       <use x="1431.005859" xlink:href="#DejaVuSans-112"/>
       <use x="1494.482422" xlink:href="#DejaVuSans-46"/>
       <use x="1526.269531" xlink:href="#DejaVuSans-32"/>
       <use x="1558.056641" xlink:href="#DejaVuSans-51"/>
       <use x="1621.679688" xlink:href="#DejaVuSans-50"/>
       <use x="1685.302734" xlink:href="#DejaVuSans-58"/>
       <use x="1718.994141" xlink:href="#DejaVuSans-32"/>
       <use x="1750.78125" xlink:href="#DejaVuSans-78"/>
       <use x="1825.585938" xlink:href="#DejaVuSans-101"/>
       <use x="1887.109375" xlink:href="#DejaVuSans-112"/>
       <use x="1950.585938" xlink:href="#DejaVuSans-116"/>
       <use x="1989.794922" xlink:href="#DejaVuSans-117"/>
       <use x="2053.173828" xlink:href="#DejaVuSans-110"/>
       <use x="2116.552734" xlink:href="#DejaVuSans-101"/>
       <use x="2178.076172" xlink:href="#DejaVuSans-44"/>
       <use x="2209.863281" xlink:href="#DejaVuSans-32"/>
       <use x="2241.650391" xlink:href="#DejaVuSans-116"/>
       <use x="2280.859375" xlink:href="#DejaVuSans-104"/>
       <use x="2344.238281" xlink:href="#DejaVuSans-101"/>
       <use x="2405.761719" xlink:href="#DejaVuSans-32"/>
       <use x="2437.548828" xlink:href="#DejaVuSans-77"/>
       <use x="2523.828125" xlink:href="#DejaVuSans-121"/>
       <use x="2583.007812" xlink:href="#DejaVuSans-115"/>
       <use x="2635.107422" xlink:href="#DejaVuSans-116"/>
       <use x="2674.316406" xlink:href="#DejaVuSans-105"/>
       <use x="2702.099609" xlink:href="#DejaVuSans-99"/>
      </g>
     </g>
    </g>
    <g id="ytick_8">
     <g id="line2d_17">
      <g>
       <use style="stroke:#000000;stroke-width:0.8;" x="54" xlink:href="#ma14d5538ca" y="197.64"/>
      </g>
     </g>
     <g id="text_18">
      <!-- A Fine Frenzy: Dance Of The Gray Whales -->
      <defs>
       <path d="M 3.328125 72.90625 
L 13.28125 72.90625 
L 28.609375 11.28125 
L 43.890625 72.90625 
L 54.984375 72.90625 
L 70.3125 11.28125 
L 85.59375 72.90625 
L 95.609375 72.90625 
L 77.296875 0 
L 64.890625 0 
L 49.515625 63.28125 
L 33.984375 0 
L 21.578125 0 
z
" id="DejaVuSans-87"/>
      </defs>
      <g transform="translate(-162.16875 201.439219)scale(0.1 -0.1)">
       <use xlink:href="#DejaVuSans-65"/>
       <use x="68.408203" xlink:href="#DejaVuSans-32"/>
       <use x="100.195312" xlink:href="#DejaVuSans-70"/>
       <use x="157.605469" xlink:href="#DejaVuSans-105"/>
       <use x="185.388672" xlink:href="#DejaVuSans-110"/>
       <use x="248.767578" xlink:href="#DejaVuSans-101"/>
       <use x="310.291016" xlink:href="#DejaVuSans-32"/>
       <use x="342.078125" xlink:href="#DejaVuSans-70"/>
       <use x="399.488281" xlink:href="#DejaVuSans-114"/>
       <use x="440.570312" xlink:href="#DejaVuSans-101"/>
       <use x="502.09375" xlink:href="#DejaVuSans-110"/>
       <use x="565.472656" xlink:href="#DejaVuSans-122"/>
       <use x="617.962891" xlink:href="#DejaVuSans-121"/>
       <use x="677.033203" xlink:href="#DejaVuSans-58"/>
       <use x="710.724609" xlink:href="#DejaVuSans-32"/>
       <use x="742.511719" xlink:href="#DejaVuSans-68"/>
       <use x="819.513672" xlink:href="#DejaVuSans-97"/>
       <use x="880.792969" xlink:href="#DejaVuSans-110"/>
       <use x="944.171875" xlink:href="#DejaVuSans-99"/>
       <use x="999.152344" xlink:href="#DejaVuSans-101"/>
       <use x="1060.675781" xlink:href="#DejaVuSans-32"/>
       <use x="1092.462891" xlink:href="#DejaVuSans-79"/>
       <use x="1171.173828" xlink:href="#DejaVuSans-102"/>
       <use x="1206.378906" xlink:href="#DejaVuSans-32"/>
       <use x="1238.166016" xlink:href="#DejaVuSans-84"/>
       <use x="1299.25" xlink:href="#DejaVuSans-104"/>
       <use x="1362.628906" xlink:href="#DejaVuSans-101"/>
       <use x="1424.152344" xlink:href="#DejaVuSans-32"/>
       <use x="1455.939453" xlink:href="#DejaVuSans-71"/>
       <use x="1533.429688" xlink:href="#DejaVuSans-114"/>
       <use x="1574.542969" xlink:href="#DejaVuSans-97"/>
       <use x="1635.822266" xlink:href="#DejaVuSans-121"/>
       <use x="1695.001953" xlink:href="#DejaVuSans-32"/>
       <use x="1726.789062" xlink:href="#DejaVuSans-87"/>
       <use x="1825.666016" xlink:href="#DejaVuSans-104"/>
       <use x="1889.044922" xlink:href="#DejaVuSans-97"/>
       <use x="1950.324219" xlink:href="#DejaVuSans-108"/>
       <use x="1978.107422" xlink:href="#DejaVuSans-101"/>
       <use x="2039.630859" xlink:href="#DejaVuSans-115"/>
      </g>
     </g>
    </g>
    <g id="ytick_9">
     <g id="line2d_18">
      <g>
       <use style="stroke:#000000;stroke-width:0.8;" x="54" xlink:href="#ma14d5538ca" y="219.384"/>
      </g>
     </g>
     <g id="text_19">
      <!-- James Horner: The Gift Of Mortality - Instrumental -->
      <g transform="translate(-202.934375 223.183219)scale(0.1 -0.1)">
       <use xlink:href="#DejaVuSans-74"/>
       <use x="29.492188" xlink:href="#DejaVuSans-97"/>
       <use x="90.771484" xlink:href="#DejaVuSans-109"/>
       <use x="188.183594" xlink:href="#DejaVuSans-101"/>
       <use x="249.707031" xlink:href="#DejaVuSans-115"/>
       <use x="301.806641" xlink:href="#DejaVuSans-32"/>
       <use x="333.59375" xlink:href="#DejaVuSans-72"/>
       <use x="408.789062" xlink:href="#DejaVuSans-111"/>
       <use x="469.970703" xlink:href="#DejaVuSans-114"/>
       <use x="511.068359" xlink:href="#DejaVuSans-110"/>
       <use x="574.447266" xlink:href="#DejaVuSans-101"/>
       <use x="635.970703" xlink:href="#DejaVuSans-114"/>
       <use x="677.068359" xlink:href="#DejaVuSans-58"/>
       <use x="710.759766" xlink:href="#DejaVuSans-32"/>
       <use x="742.546875" xlink:href="#DejaVuSans-84"/>
       <use x="803.630859" xlink:href="#DejaVuSans-104"/>
       <use x="867.009766" xlink:href="#DejaVuSans-101"/>
       <use x="928.533203" xlink:href="#DejaVuSans-32"/>
       <use x="960.320312" xlink:href="#DejaVuSans-71"/>
       <use x="1037.810547" xlink:href="#DejaVuSans-105"/>
       <use x="1065.59375" xlink:href="#DejaVuSans-102"/>
       <use x="1100.783203" xlink:href="#DejaVuSans-116"/>
       <use x="1139.992188" xlink:href="#DejaVuSans-32"/>
       <use x="1171.779297" xlink:href="#DejaVuSans-79"/>
       <use x="1250.490234" xlink:href="#DejaVuSans-102"/>
       <use x="1285.695312" xlink:href="#DejaVuSans-32"/>
       <use x="1317.482422" xlink:href="#DejaVuSans-77"/>
       <use x="1403.761719" xlink:href="#DejaVuSans-111"/>
       <use x="1464.943359" xlink:href="#DejaVuSans-114"/>
       <use x="1506.056641" xlink:href="#DejaVuSans-116"/>
       <use x="1545.265625" xlink:href="#DejaVuSans-97"/>
       <use x="1606.544922" xlink:href="#DejaVuSans-108"/>
       <use x="1634.328125" xlink:href="#DejaVuSans-105"/>
       <use x="1662.111328" xlink:href="#DejaVuSans-116"/>
       <use x="1701.320312" xlink:href="#DejaVuSans-121"/>
       <use x="1760.5" xlink:href="#DejaVuSans-32"/>
       <use x="1792.287109" xlink:href="#DejaVuSans-45"/>
       <use x="1828.371094" xlink:href="#DejaVuSans-32"/>
       <use x="1860.158203" xlink:href="#DejaVuSans-73"/>
       <use x="1889.650391" xlink:href="#DejaVuSans-110"/>
       <use x="1953.029297" xlink:href="#DejaVuSans-115"/>
       <use x="2005.128906" xlink:href="#DejaVuSans-116"/>
       <use x="2044.337891" xlink:href="#DejaVuSans-114"/>
       <use x="2085.451172" xlink:href="#DejaVuSans-117"/>
       <use x="2148.830078" xlink:href="#DejaVuSans-109"/>
       <use x="2246.242188" xlink:href="#DejaVuSans-101"/>
       <use x="2307.765625" xlink:href="#DejaVuSans-110"/>
       <use x="2371.144531" xlink:href="#DejaVuSans-116"/>
       <use x="2410.353516" xlink:href="#DejaVuSans-97"/>
       <use x="2471.632812" xlink:href="#DejaVuSans-108"/>
      </g>
     </g>
    </g>
    <g id="ytick_10">
     <g id="line2d_19">
      <g>
       <use style="stroke:#000000;stroke-width:0.8;" x="54" xlink:href="#ma14d5538ca" y="241.128"/>
      </g>
     </g>
     <g id="text_20">
      <!-- Antonn Dvok: Dvorak: Czech Suite, Op. 39, B. 93 : IV. Romanza (Andante con moto) -->
      <defs>
       <path d="M 20.703125 79.984375 
L 30.421875 79.984375 
L 14.5 61.625 
L 7.03125 61.625 
z
M 9.421875 54.6875 
L 18.40625 54.6875 
L 18.40625 0 
L 9.421875 0 
z
M 13.921875 56 
z
" id="DejaVuSans-237"/>
       <path d="M 41.109375 46.296875 
Q 39.59375 47.171875 37.8125 47.578125 
Q 36.03125 48 33.890625 48 
Q 26.265625 48 22.1875 43.046875 
Q 18.109375 38.09375 18.109375 28.8125 
L 18.109375 0 
L 9.078125 0 
L 9.078125 54.6875 
L 18.109375 54.6875 
L 18.109375 46.1875 
Q 20.953125 51.171875 25.484375 53.578125 
Q 30.03125 56 36.53125 56 
Q 37.453125 56 38.578125 55.875 
Q 39.703125 55.765625 41.0625 55.515625 
z
M 22.703125 61.625 
L 10.75 79.984375 
L 17.53125 79.984375 
L 26.3125 68.015625 
L 35.109375 79.984375 
L 41.890625 79.984375 
L 29.9375 61.625 
z
" id="DejaVuSans-345"/>
       <path d="M 34.28125 27.484375 
Q 23.390625 27.484375 19.1875 25 
Q 14.984375 22.515625 14.984375 16.5 
Q 14.984375 11.71875 18.140625 8.90625 
Q 21.296875 6.109375 26.703125 6.109375 
Q 34.1875 6.109375 38.703125 11.40625 
Q 43.21875 16.703125 43.21875 25.484375 
L 43.21875 27.484375 
z
M 52.203125 31.203125 
L 52.203125 0 
L 43.21875 0 
L 43.21875 8.296875 
Q 40.140625 3.328125 35.546875 0.953125 
Q 30.953125 -1.421875 24.3125 -1.421875 
Q 15.921875 -1.421875 10.953125 3.296875 
Q 6 8.015625 6 15.921875 
Q 6 25.140625 12.171875 29.828125 
Q 18.359375 34.515625 30.609375 34.515625 
L 43.21875 34.515625 
L 43.21875 35.40625 
Q 43.21875 41.609375 39.140625 45 
Q 35.0625 48.390625 27.6875 48.390625 
Q 23 48.390625 18.546875 47.265625 
Q 14.109375 46.140625 10.015625 43.890625 
L 10.015625 52.203125 
Q 14.9375 54.109375 19.578125 55.046875 
Q 24.21875 56 28.609375 56 
Q 40.484375 56 46.34375 49.84375 
Q 52.203125 43.703125 52.203125 31.203125 
z
M 35.796875 79.984375 
L 45.515625 79.984375 
L 29.59375 61.625 
L 22.125 61.625 
z
" id="DejaVuSans-225"/>
       <path d="M 9.078125 75.984375 
L 18.109375 75.984375 
L 18.109375 31.109375 
L 44.921875 54.6875 
L 56.390625 54.6875 
L 27.390625 29.109375 
L 57.625 0 
L 45.90625 0 
L 18.109375 26.703125 
L 18.109375 0 
L 9.078125 0 
z
" id="DejaVuSans-107"/>
       <path d="M 44.390625 34.1875 
Q 47.5625 33.109375 50.5625 29.59375 
Q 53.5625 26.078125 56.59375 19.921875 
L 66.609375 0 
L 56 0 
L 46.6875 18.703125 
Q 43.0625 26.03125 39.671875 28.421875 
Q 36.28125 30.8125 30.421875 30.8125 
L 19.671875 30.8125 
L 19.671875 0 
L 9.8125 0 
L 9.8125 72.90625 
L 32.078125 72.90625 
Q 44.578125 72.90625 50.734375 67.671875 
Q 56.890625 62.453125 56.890625 51.90625 
Q 56.890625 45.015625 53.6875 40.46875 
Q 50.484375 35.9375 44.390625 34.1875 
z
M 19.671875 64.796875 
L 19.671875 38.921875 
L 32.078125 38.921875 
Q 39.203125 38.921875 42.84375 42.21875 
Q 46.484375 45.515625 46.484375 51.90625 
Q 46.484375 58.296875 42.84375 61.546875 
Q 39.203125 64.796875 32.078125 64.796875 
z
" id="DejaVuSans-82"/>
      </defs>
      <g transform="translate(-386.121875 245.127219)scale(0.1 -0.1)">
       <use xlink:href="#DejaVuSans-65"/>
       <use x="68.408203" xlink:href="#DejaVuSans-110"/>
       <use x="131.787109" xlink:href="#DejaVuSans-116"/>
       <use x="170.996094" xlink:href="#DejaVuSans-111"/>
       <use x="232.177734" xlink:href="#DejaVuSans-110"/>
       <use x="295.556641" xlink:href="#DejaVuSans-237"/>
       <use x="323.339844" xlink:href="#DejaVuSans-110"/>
       <use x="386.71875" xlink:href="#DejaVuSans-32"/>
       <use x="418.505859" xlink:href="#DejaVuSans-68"/>
       <use x="495.507812" xlink:href="#DejaVuSans-118"/>
       <use x="554.6875" xlink:href="#DejaVuSans-111"/>
       <use x="615.869141" xlink:href="#DejaVuSans-345"/>
       <use x="656.982422" xlink:href="#DejaVuSans-225"/>
       <use x="718.261719" xlink:href="#DejaVuSans-107"/>
       <use x="776.171875" xlink:href="#DejaVuSans-58"/>
       <use x="809.863281" xlink:href="#DejaVuSans-32"/>
       <use x="841.650391" xlink:href="#DejaVuSans-68"/>
       <use x="918.652344" xlink:href="#DejaVuSans-118"/>
       <use x="977.832031" xlink:href="#DejaVuSans-111"/>
       <use x="1039.013672" xlink:href="#DejaVuSans-114"/>
       <use x="1080.126953" xlink:href="#DejaVuSans-97"/>
       <use x="1141.40625" xlink:href="#DejaVuSans-107"/>
       <use x="1199.316406" xlink:href="#DejaVuSans-58"/>
       <use x="1233.007812" xlink:href="#DejaVuSans-32"/>
       <use x="1264.794922" xlink:href="#DejaVuSans-67"/>
       <use x="1334.619141" xlink:href="#DejaVuSans-122"/>
       <use x="1387.109375" xlink:href="#DejaVuSans-101"/>
       <use x="1448.632812" xlink:href="#DejaVuSans-99"/>
       <use x="1503.613281" xlink:href="#DejaVuSans-104"/>
       <use x="1566.992188" xlink:href="#DejaVuSans-32"/>
       <use x="1598.779297" xlink:href="#DejaVuSans-83"/>
       <use x="1662.255859" xlink:href="#DejaVuSans-117"/>
       <use x="1725.634766" xlink:href="#DejaVuSans-105"/>
       <use x="1753.417969" xlink:href="#DejaVuSans-116"/>
       <use x="1792.626953" xlink:href="#DejaVuSans-101"/>
       <use x="1854.150391" xlink:href="#DejaVuSans-44"/>
       <use x="1885.9375" xlink:href="#DejaVuSans-32"/>
       <use x="1917.724609" xlink:href="#DejaVuSans-79"/>
       <use x="1996.435547" xlink:href="#DejaVuSans-112"/>
       <use x="2059.912109" xlink:href="#DejaVuSans-46"/>
       <use x="2091.699219" xlink:href="#DejaVuSans-32"/>
       <use x="2123.486328" xlink:href="#DejaVuSans-51"/>
       <use x="2187.109375" xlink:href="#DejaVuSans-57"/>
       <use x="2250.732422" xlink:href="#DejaVuSans-44"/>
       <use x="2282.519531" xlink:href="#DejaVuSans-32"/>
       <use x="2314.306641" xlink:href="#DejaVuSans-66"/>
       <use x="2382.910156" xlink:href="#DejaVuSans-46"/>
       <use x="2414.697266" xlink:href="#DejaVuSans-32"/>
       <use x="2446.484375" xlink:href="#DejaVuSans-57"/>
       <use x="2510.107422" xlink:href="#DejaVuSans-51"/>
       <use x="2573.730469" xlink:href="#DejaVuSans-32"/>
       <use x="2605.517578" xlink:href="#DejaVuSans-58"/>
       <use x="2639.208984" xlink:href="#DejaVuSans-32"/>
       <use x="2670.996094" xlink:href="#DejaVuSans-73"/>
       <use x="2700.488281" xlink:href="#DejaVuSans-86"/>
       <use x="2768.708984" xlink:href="#DejaVuSans-46"/>
       <use x="2800.496094" xlink:href="#DejaVuSans-32"/>
       <use x="2832.283203" xlink:href="#DejaVuSans-82"/>
       <use x="2901.703125" xlink:href="#DejaVuSans-111"/>
       <use x="2962.884766" xlink:href="#DejaVuSans-109"/>
       <use x="3060.296875" xlink:href="#DejaVuSans-97"/>
       <use x="3121.576172" xlink:href="#DejaVuSans-110"/>
       <use x="3184.955078" xlink:href="#DejaVuSans-122"/>
       <use x="3237.445312" xlink:href="#DejaVuSans-97"/>
       <use x="3298.724609" xlink:href="#DejaVuSans-32"/>
       <use x="3330.511719" xlink:href="#DejaVuSans-40"/>
       <use x="3369.525391" xlink:href="#DejaVuSans-65"/>
       <use x="3437.933594" xlink:href="#DejaVuSans-110"/>
       <use x="3501.3125" xlink:href="#DejaVuSans-100"/>
       <use x="3564.789062" xlink:href="#DejaVuSans-97"/>
       <use x="3626.068359" xlink:href="#DejaVuSans-110"/>
       <use x="3689.447266" xlink:href="#DejaVuSans-116"/>
       <use x="3728.65625" xlink:href="#DejaVuSans-101"/>
       <use x="3790.179688" xlink:href="#DejaVuSans-32"/>
       <use x="3821.966797" xlink:href="#DejaVuSans-99"/>
       <use x="3876.947266" xlink:href="#DejaVuSans-111"/>
       <use x="3938.128906" xlink:href="#DejaVuSans-110"/>
       <use x="4001.507812" xlink:href="#DejaVuSans-32"/>
       <use x="4033.294922" xlink:href="#DejaVuSans-109"/>
       <use x="4130.707031" xlink:href="#DejaVuSans-111"/>
       <use x="4191.888672" xlink:href="#DejaVuSans-116"/>
       <use x="4231.097656" xlink:href="#DejaVuSans-111"/>
       <use x="4292.279297" xlink:href="#DejaVuSans-41"/>
      </g>
     </g>
    </g>
    <g id="text_21">
     <!-- artist_track -->
     <defs>
      <path d="M 50.984375 -16.609375 
L 50.984375 -23.578125 
L -0.984375 -23.578125 
L -0.984375 -16.609375 
z
" id="DejaVuSans-95"/>
     </defs>
     <g transform="translate(-430.592188 171.537813)rotate(-90)scale(0.1 -0.1)">
      <use xlink:href="#DejaVuSans-97"/>
      <use x="61.279297" xlink:href="#DejaVuSans-114"/>
      <use x="102.392578" xlink:href="#DejaVuSans-116"/>
      <use x="141.601562" xlink:href="#DejaVuSans-105"/>
      <use x="169.384766" xlink:href="#DejaVuSans-115"/>
      <use x="221.484375" xlink:href="#DejaVuSans-116"/>
      <use x="260.693359" xlink:href="#DejaVuSans-95"/>
      <use x="310.693359" xlink:href="#DejaVuSans-116"/>
      <use x="349.902344" xlink:href="#DejaVuSans-114"/>
      <use x="391.015625" xlink:href="#DejaVuSans-97"/>
      <use x="452.294922" xlink:href="#DejaVuSans-99"/>
      <use x="507.275391" xlink:href="#DejaVuSans-107"/>
     </g>
    </g>
   </g>
   <g id="line2d_20">
    <path clip-path="url(#p3aba551e4d)" d="M 0 0 
" style="fill:none;stroke:#424242;stroke-linecap:square;stroke-width:2.7;"/>
   </g>
   <g id="line2d_21">
    <path clip-path="url(#p3aba551e4d)" d="M 0 0 
" style="fill:none;stroke:#424242;stroke-linecap:square;stroke-width:2.7;"/>
   </g>
   <g id="line2d_22">
    <path clip-path="url(#p3aba551e4d)" d="M 0 0 
" style="fill:none;stroke:#424242;stroke-linecap:square;stroke-width:2.7;"/>
   </g>
   <g id="line2d_23">
    <path clip-path="url(#p3aba551e4d)" d="M 0 0 
" style="fill:none;stroke:#424242;stroke-linecap:square;stroke-width:2.7;"/>
   </g>
   <g id="line2d_24">
    <path clip-path="url(#p3aba551e4d)" d="M 0 0 
" style="fill:none;stroke:#424242;stroke-linecap:square;stroke-width:2.7;"/>
   </g>
   <g id="line2d_25">
    <path clip-path="url(#p3aba551e4d)" d="M 0 0 
" style="fill:none;stroke:#424242;stroke-linecap:square;stroke-width:2.7;"/>
   </g>
   <g id="line2d_26">
    <path clip-path="url(#p3aba551e4d)" d="M 0 0 
" style="fill:none;stroke:#424242;stroke-linecap:square;stroke-width:2.7;"/>
   </g>
   <g id="line2d_27">
    <path clip-path="url(#p3aba551e4d)" d="M 0 0 
" style="fill:none;stroke:#424242;stroke-linecap:square;stroke-width:2.7;"/>
   </g>
   <g id="line2d_28">
    <path clip-path="url(#p3aba551e4d)" d="M 0 0 
" style="fill:none;stroke:#424242;stroke-linecap:square;stroke-width:2.7;"/>
   </g>
   <g id="line2d_29">
    <path clip-path="url(#p3aba551e4d)" d="M 0 0 
" style="fill:none;stroke:#424242;stroke-linecap:square;stroke-width:2.7;"/>
   </g>
   <g id="patch_13">
    <path d="M 54 252 
L 54 34.56 
" style="fill:none;stroke:#000000;stroke-linecap:square;stroke-linejoin:miter;stroke-width:0.8;"/>
   </g>
   <g id="patch_14">
    <path d="M 388.8 252 
L 388.8 34.56 
" style="fill:none;stroke:#000000;stroke-linecap:square;stroke-linejoin:miter;stroke-width:0.8;"/>
   </g>
   <g id="patch_15">
    <path d="M 54 252 
L 388.8 252 
" style="fill:none;stroke:#000000;stroke-linecap:square;stroke-linejoin:miter;stroke-width:0.8;"/>
   </g>
   <g id="patch_16">
    <path d="M 54 34.56 
L 388.8 34.56 
" style="fill:none;stroke:#000000;stroke-linecap:square;stroke-linejoin:miter;stroke-width:0.8;"/>
   </g>
   <g id="text_22">
    <!-- Mozart: Piano Concerto No.21 in C Major -->
    <g transform="translate(99.848438 28.56)scale(0.12 -0.12)">
     <use xlink:href="#DejaVuSans-77"/>
     <use x="86.279297" xlink:href="#DejaVuSans-111"/>
     <use x="147.460938" xlink:href="#DejaVuSans-122"/>
     <use x="199.951172" xlink:href="#DejaVuSans-97"/>
     <use x="261.230469" xlink:href="#DejaVuSans-114"/>
     <use x="302.34375" xlink:href="#DejaVuSans-116"/>
     <use x="341.552734" xlink:href="#DejaVuSans-58"/>
     <use x="375.244141" xlink:href="#DejaVuSans-32"/>
     <use x="407.03125" xlink:href="#DejaVuSans-80"/>
     <use x="467.302734" xlink:href="#DejaVuSans-105"/>
     <use x="495.085938" xlink:href="#DejaVuSans-97"/>
     <use x="556.365234" xlink:href="#DejaVuSans-110"/>
     <use x="619.744141" xlink:href="#DejaVuSans-111"/>
     <use x="680.925781" xlink:href="#DejaVuSans-32"/>
     <use x="712.712891" xlink:href="#DejaVuSans-67"/>
     <use x="782.537109" xlink:href="#DejaVuSans-111"/>
     <use x="843.71875" xlink:href="#DejaVuSans-110"/>
     <use x="907.097656" xlink:href="#DejaVuSans-99"/>
     <use x="962.078125" xlink:href="#DejaVuSans-101"/>
     <use x="1023.601562" xlink:href="#DejaVuSans-114"/>
     <use x="1064.714844" xlink:href="#DejaVuSans-116"/>
     <use x="1103.923828" xlink:href="#DejaVuSans-111"/>
     <use x="1165.105469" xlink:href="#DejaVuSans-32"/>
     <use x="1196.892578" xlink:href="#DejaVuSans-78"/>
     <use x="1271.697266" xlink:href="#DejaVuSans-111"/>
     <use x="1332.863281" xlink:href="#DejaVuSans-46"/>
     <use x="1364.650391" xlink:href="#DejaVuSans-50"/>
     <use x="1428.273438" xlink:href="#DejaVuSans-49"/>
     <use x="1491.896484" xlink:href="#DejaVuSans-32"/>
     <use x="1523.683594" xlink:href="#DejaVuSans-105"/>
     <use x="1551.466797" xlink:href="#DejaVuSans-110"/>
     <use x="1614.845703" xlink:href="#DejaVuSans-32"/>
     <use x="1646.632812" xlink:href="#DejaVuSans-67"/>
     <use x="1716.457031" xlink:href="#DejaVuSans-32"/>
     <use x="1748.244141" xlink:href="#DejaVuSans-77"/>
     <use x="1834.523438" xlink:href="#DejaVuSans-97"/>
     <use x="1895.802734" xlink:href="#DejaVuSans-106"/>
     <use x="1923.585938" xlink:href="#DejaVuSans-111"/>
     <use x="1984.767578" xlink:href="#DejaVuSans-114"/>
    </g>
   </g>
  </g>
 </g>
 <defs>
  <clipPath id="p3aba551e4d">
   <rect height="217.44" width="334.8" x="54" y="34.56"/>
  </clipPath>
 </defs>
</svg>
