<?xml version="1.0" encoding="utf-8" standalone="no"?>
<!DOCTYPE svg PUBLIC "-//W3C//DTD SVG 1.1//EN"
  "http://www.w3.org/Graphics/SVG/1.1/DTD/svg11.dtd">
<!-- Created with matplotlib (https://matplotlib.org/) -->
<svg height="288pt" version="1.1" viewBox="0 0 1152 288" width="1152pt" xmlns="http://www.w3.org/2000/svg" xmlns:xlink="http://www.w3.org/1999/xlink">
 <defs>
  <style type="text/css">
*{stroke-linecap:butt;stroke-linejoin:round;white-space:pre;}
  </style>
 </defs>
 <g id="figure_1">
  <g id="patch_1">
   <path d="M 0 288 
L 1152 288 
L 1152 0 
L 0 0 
z
" style="fill:#ffffff;"/>
  </g>
  <g id="axes_1">
   <g id="patch_2">
    <path d="M 144 252 
L 549.818182 252 
L 549.818182 34.56 
L 144 34.56 
z
" style="fill:#ffffff;"/>
   </g>
   <g id="matplotlib.axis_1">
    <g id="xtick_1">
     <g id="line2d_1">
      <defs>
       <path d="M 0 0 
L 0 3.5 
" id="m9d307081e2" style="stroke:#000000;stroke-width:0.8;"/>
      </defs>
      <g>
       <use style="stroke:#000000;stroke-width:0.8;" x="162.446281" xlink:href="#m9d307081e2" y="252"/>
      </g>
     </g>
     <g id="text_1">
      <!-- 0 -->
      <defs>
       <path d="M 31.78125 66.40625 
Q 24.171875 66.40625 20.328125 58.90625 
Q 16.5 51.421875 16.5 36.375 
Q 16.5 21.390625 20.328125 13.890625 
Q 24.171875 6.390625 31.78125 6.390625 
Q 39.453125 6.390625 43.28125 13.890625 
Q 47.125 21.390625 47.125 36.375 
Q 47.125 51.421875 43.28125 58.90625 
Q 39.453125 66.40625 31.78125 66.40625 
z
M 31.78125 74.21875 
Q 44.046875 74.21875 50.515625 64.515625 
Q 56.984375 54.828125 56.984375 36.375 
Q 56.984375 17.96875 50.515625 8.265625 
Q 44.046875 -1.421875 31.78125 -1.421875 
Q 19.53125 -1.421875 13.0625 8.265625 
Q 6.59375 17.96875 6.59375 36.375 
Q 6.59375 54.828125 13.0625 64.515625 
Q 19.53125 74.21875 31.78125 74.21875 
z
" id="DejaVuSans-48"/>
      </defs>
      <g transform="translate(159.265031 266.598437)scale(0.1 -0.1)">
       <use xlink:href="#DejaVuSans-48"/>
      </g>
     </g>
    </g>
    <g id="xtick_2">
     <g id="line2d_2">
      <g>
       <use style="stroke:#000000;stroke-width:0.8;" x="235.500859" xlink:href="#m9d307081e2" y="252"/>
      </g>
     </g>
     <g id="text_2">
      <!-- 100 -->
      <defs>
       <path d="M 12.40625 8.296875 
L 28.515625 8.296875 
L 28.515625 63.921875 
L 10.984375 60.40625 
L 10.984375 69.390625 
L 28.421875 72.90625 
L 38.28125 72.90625 
L 38.28125 8.296875 
L 54.390625 8.296875 
L 54.390625 0 
L 12.40625 0 
z
" id="DejaVuSans-49"/>
      </defs>
      <g transform="translate(225.957109 266.598437)scale(0.1 -0.1)">
       <use xlink:href="#DejaVuSans-49"/>
       <use x="63.623047" xlink:href="#DejaVuSans-48"/>
       <use x="127.246094" xlink:href="#DejaVuSans-48"/>
      </g>
     </g>
    </g>
    <g id="xtick_3">
     <g id="line2d_3">
      <g>
       <use style="stroke:#000000;stroke-width:0.8;" x="308.555437" xlink:href="#m9d307081e2" y="252"/>
      </g>
     </g>
     <g id="text_3">
      <!-- 200 -->
      <defs>
       <path d="M 19.1875 8.296875 
L 53.609375 8.296875 
L 53.609375 0 
L 7.328125 0 
L 7.328125 8.296875 
Q 12.9375 14.109375 22.625 23.890625 
Q 32.328125 33.6875 34.8125 36.53125 
Q 39.546875 41.84375 41.421875 45.53125 
Q 43.3125 49.21875 43.3125 52.78125 
Q 43.3125 58.59375 39.234375 62.25 
Q 35.15625 65.921875 28.609375 65.921875 
Q 23.96875 65.921875 18.8125 64.3125 
Q 13.671875 62.703125 7.8125 59.421875 
L 7.8125 69.390625 
Q 13.765625 71.78125 18.9375 73 
Q 24.125 74.21875 28.421875 74.21875 
Q 39.75 74.21875 46.484375 68.546875 
Q 53.21875 62.890625 53.21875 53.421875 
Q 53.21875 48.921875 51.53125 44.890625 
Q 49.859375 40.875 45.40625 35.40625 
Q 44.1875 33.984375 37.640625 27.21875 
Q 31.109375 20.453125 19.1875 8.296875 
z
" id="DejaVuSans-50"/>
      </defs>
      <g transform="translate(299.011687 266.598437)scale(0.1 -0.1)">
       <use xlink:href="#DejaVuSans-50"/>
       <use x="63.623047" xlink:href="#DejaVuSans-48"/>
       <use x="127.246094" xlink:href="#DejaVuSans-48"/>
      </g>
     </g>
    </g>
    <g id="xtick_4">
     <g id="line2d_4">
      <g>
       <use style="stroke:#000000;stroke-width:0.8;" x="381.610016" xlink:href="#m9d307081e2" y="252"/>
      </g>
     </g>
     <g id="text_4">
      <!-- 300 -->
      <defs>
       <path d="M 40.578125 39.3125 
Q 47.65625 37.796875 51.625 33 
Q 55.609375 28.21875 55.609375 21.1875 
Q 55.609375 10.40625 48.1875 4.484375 
Q 40.765625 -1.421875 27.09375 -1.421875 
Q 22.515625 -1.421875 17.65625 -0.515625 
Q 12.796875 0.390625 7.625 2.203125 
L 7.625 11.71875 
Q 11.71875 9.328125 16.59375 8.109375 
Q 21.484375 6.890625 26.8125 6.890625 
Q 36.078125 6.890625 40.9375 10.546875 
Q 45.796875 14.203125 45.796875 21.1875 
Q 45.796875 27.640625 41.28125 31.265625 
Q 36.765625 34.90625 28.71875 34.90625 
L 20.21875 34.90625 
L 20.21875 43.015625 
L 29.109375 43.015625 
Q 36.375 43.015625 40.234375 45.921875 
Q 44.09375 48.828125 44.09375 54.296875 
Q 44.09375 59.90625 40.109375 62.90625 
Q 36.140625 65.921875 28.71875 65.921875 
Q 24.65625 65.921875 20.015625 65.03125 
Q 15.375 64.15625 9.8125 62.3125 
L 9.8125 71.09375 
Q 15.4375 72.65625 20.34375 73.4375 
Q 25.25 74.21875 29.59375 74.21875 
Q 40.828125 74.21875 47.359375 69.109375 
Q 53.90625 64.015625 53.90625 55.328125 
Q 53.90625 49.265625 50.4375 45.09375 
Q 46.96875 40.921875 40.578125 39.3125 
z
" id="DejaVuSans-51"/>
      </defs>
      <g transform="translate(372.066266 266.598437)scale(0.1 -0.1)">
       <use xlink:href="#DejaVuSans-51"/>
       <use x="63.623047" xlink:href="#DejaVuSans-48"/>
       <use x="127.246094" xlink:href="#DejaVuSans-48"/>
      </g>
     </g>
    </g>
    <g id="xtick_5">
     <g id="line2d_5">
      <g>
       <use style="stroke:#000000;stroke-width:0.8;" x="454.664594" xlink:href="#m9d307081e2" y="252"/>
      </g>
     </g>
     <g id="text_5">
      <!-- 400 -->
      <defs>
       <path d="M 37.796875 64.3125 
L 12.890625 25.390625 
L 37.796875 25.390625 
z
M 35.203125 72.90625 
L 47.609375 72.90625 
L 47.609375 25.390625 
L 58.015625 25.390625 
L 58.015625 17.1875 
L 47.609375 17.1875 
L 47.609375 0 
L 37.796875 0 
L 37.796875 17.1875 
L 4.890625 17.1875 
L 4.890625 26.703125 
z
" id="DejaVuSans-52"/>
      </defs>
      <g transform="translate(445.120844 266.598437)scale(0.1 -0.1)">
       <use xlink:href="#DejaVuSans-52"/>
       <use x="63.623047" xlink:href="#DejaVuSans-48"/>
       <use x="127.246094" xlink:href="#DejaVuSans-48"/>
      </g>
     </g>
    </g>
    <g id="xtick_6">
     <g id="line2d_6">
      <g>
       <use style="stroke:#000000;stroke-width:0.8;" x="527.719172" xlink:href="#m9d307081e2" y="252"/>
      </g>
     </g>
     <g id="text_6">
      <!-- 500 -->
      <defs>
       <path d="M 10.796875 72.90625 
L 49.515625 72.90625 
L 49.515625 64.59375 
L 19.828125 64.59375 
L 19.828125 46.734375 
Q 21.96875 47.46875 24.109375 47.828125 
Q 26.265625 48.1875 28.421875 48.1875 
Q 40.625 48.1875 47.75 41.5 
Q 54.890625 34.8125 54.890625 23.390625 
Q 54.890625 11.625 47.5625 5.09375 
Q 40.234375 -1.421875 26.90625 -1.421875 
Q 22.3125 -1.421875 17.546875 -0.640625 
Q 12.796875 0.140625 7.71875 1.703125 
L 7.71875 11.625 
Q 12.109375 9.234375 16.796875 8.0625 
Q 21.484375 6.890625 26.703125 6.890625 
Q 35.15625 6.890625 40.078125 11.328125 
Q 45.015625 15.765625 45.015625 23.390625 
Q 45.015625 31 40.078125 35.4375 
Q 35.15625 39.890625 26.703125 39.890625 
Q 22.75 39.890625 18.8125 39.015625 
Q 14.890625 38.140625 10.796875 36.28125 
z
" id="DejaVuSans-53"/>
      </defs>
      <g transform="translate(518.175422 266.598437)scale(0.1 -0.1)">
       <use xlink:href="#DejaVuSans-53"/>
       <use x="63.623047" xlink:href="#DejaVuSans-48"/>
       <use x="127.246094" xlink:href="#DejaVuSans-48"/>
      </g>
     </g>
    </g>
    <g id="text_7">
     <!-- Playlist Model -->
     <defs>
      <path d="M 19.671875 64.796875 
L 19.671875 37.40625 
L 32.078125 37.40625 
Q 38.96875 37.40625 42.71875 40.96875 
Q 46.484375 44.53125 46.484375 51.125 
Q 46.484375 57.671875 42.71875 61.234375 
Q 38.96875 64.796875 32.078125 64.796875 
z
M 9.8125 72.90625 
L 32.078125 72.90625 
Q 44.34375 72.90625 50.609375 67.359375 
Q 56.890625 61.8125 56.890625 51.125 
Q 56.890625 40.328125 50.609375 34.8125 
Q 44.34375 29.296875 32.078125 29.296875 
L 19.671875 29.296875 
L 19.671875 0 
L 9.8125 0 
z
" id="DejaVuSans-80"/>
      <path d="M 9.421875 75.984375 
L 18.40625 75.984375 
L 18.40625 0 
L 9.421875 0 
z
" id="DejaVuSans-108"/>
      <path d="M 34.28125 27.484375 
Q 23.390625 27.484375 19.1875 25 
Q 14.984375 22.515625 14.984375 16.5 
Q 14.984375 11.71875 18.140625 8.90625 
Q 21.296875 6.109375 26.703125 6.109375 
Q 34.1875 6.109375 38.703125 11.40625 
Q 43.21875 16.703125 43.21875 25.484375 
L 43.21875 27.484375 
z
M 52.203125 31.203125 
L 52.203125 0 
L 43.21875 0 
L 43.21875 8.296875 
Q 40.140625 3.328125 35.546875 0.953125 
Q 30.953125 -1.421875 24.3125 -1.421875 
Q 15.921875 -1.421875 10.953125 3.296875 
Q 6 8.015625 6 15.921875 
Q 6 25.140625 12.171875 29.828125 
Q 18.359375 34.515625 30.609375 34.515625 
L 43.21875 34.515625 
L 43.21875 35.40625 
Q 43.21875 41.609375 39.140625 45 
Q 35.0625 48.390625 27.6875 48.390625 
Q 23 48.390625 18.546875 47.265625 
Q 14.109375 46.140625 10.015625 43.890625 
L 10.015625 52.203125 
Q 14.9375 54.109375 19.578125 55.046875 
Q 24.21875 56 28.609375 56 
Q 40.484375 56 46.34375 49.84375 
Q 52.203125 43.703125 52.203125 31.203125 
z
" id="DejaVuSans-97"/>
      <path d="M 32.171875 -5.078125 
Q 28.375 -14.84375 24.75 -17.8125 
Q 21.140625 -20.796875 15.09375 -20.796875 
L 7.90625 -20.796875 
L 7.90625 -13.28125 
L 13.1875 -13.28125 
Q 16.890625 -13.28125 18.9375 -11.515625 
Q 21 -9.765625 23.484375 -3.21875 
L 25.09375 0.875 
L 2.984375 54.6875 
L 12.5 54.6875 
L 29.59375 11.921875 
L 46.6875 54.6875 
L 56.203125 54.6875 
z
" id="DejaVuSans-121"/>
      <path d="M 9.421875 54.6875 
L 18.40625 54.6875 
L 18.40625 0 
L 9.421875 0 
z
M 9.421875 75.984375 
L 18.40625 75.984375 
L 18.40625 64.59375 
L 9.421875 64.59375 
z
" id="DejaVuSans-105"/>
      <path d="M 44.28125 53.078125 
L 44.28125 44.578125 
Q 40.484375 46.53125 36.375 47.5 
Q 32.28125 48.484375 27.875 48.484375 
Q 21.1875 48.484375 17.84375 46.4375 
Q 14.5 44.390625 14.5 40.28125 
Q 14.5 37.15625 16.890625 35.375 
Q 19.28125 33.59375 26.515625 31.984375 
L 29.59375 31.296875 
Q 39.15625 29.25 43.1875 25.515625 
Q 47.21875 21.78125 47.21875 15.09375 
Q 47.21875 7.46875 41.1875 3.015625 
Q 35.15625 -1.421875 24.609375 -1.421875 
Q 20.21875 -1.421875 15.453125 -0.5625 
Q 10.6875 0.296875 5.421875 2 
L 5.421875 11.28125 
Q 10.40625 8.6875 15.234375 7.390625 
Q 20.0625 6.109375 24.8125 6.109375 
Q 31.15625 6.109375 34.5625 8.28125 
Q 37.984375 10.453125 37.984375 14.40625 
Q 37.984375 18.0625 35.515625 20.015625 
Q 33.0625 21.96875 24.703125 23.78125 
L 21.578125 24.515625 
Q 13.234375 26.265625 9.515625 29.90625 
Q 5.8125 33.546875 5.8125 39.890625 
Q 5.8125 47.609375 11.28125 51.796875 
Q 16.75 56 26.8125 56 
Q 31.78125 56 36.171875 55.265625 
Q 40.578125 54.546875 44.28125 53.078125 
z
" id="DejaVuSans-115"/>
      <path d="M 18.3125 70.21875 
L 18.3125 54.6875 
L 36.8125 54.6875 
L 36.8125 47.703125 
L 18.3125 47.703125 
L 18.3125 18.015625 
Q 18.3125 11.328125 20.140625 9.421875 
Q 21.96875 7.515625 27.59375 7.515625 
L 36.8125 7.515625 
L 36.8125 0 
L 27.59375 0 
Q 17.1875 0 13.234375 3.875 
Q 9.28125 7.765625 9.28125 18.015625 
L 9.28125 47.703125 
L 2.6875 47.703125 
L 2.6875 54.6875 
L 9.28125 54.6875 
L 9.28125 70.21875 
z
" id="DejaVuSans-116"/>
      <path id="DejaVuSans-32"/>
      <path d="M 9.8125 72.90625 
L 24.515625 72.90625 
L 43.109375 23.296875 
L 61.8125 72.90625 
L 76.515625 72.90625 
L 76.515625 0 
L 66.890625 0 
L 66.890625 64.015625 
L 48.09375 14.015625 
L 38.1875 14.015625 
L 19.390625 64.015625 
L 19.390625 0 
L 9.8125 0 
z
" id="DejaVuSans-77"/>
      <path d="M 30.609375 48.390625 
Q 23.390625 48.390625 19.1875 42.75 
Q 14.984375 37.109375 14.984375 27.296875 
Q 14.984375 17.484375 19.15625 11.84375 
Q 23.34375 6.203125 30.609375 6.203125 
Q 37.796875 6.203125 41.984375 11.859375 
Q 46.1875 17.53125 46.1875 27.296875 
Q 46.1875 37.015625 41.984375 42.703125 
Q 37.796875 48.390625 30.609375 48.390625 
z
M 30.609375 56 
Q 42.328125 56 49.015625 48.375 
Q 55.71875 40.765625 55.71875 27.296875 
Q 55.71875 13.875 49.015625 6.21875 
Q 42.328125 -1.421875 30.609375 -1.421875 
Q 18.84375 -1.421875 12.171875 6.21875 
Q 5.515625 13.875 5.515625 27.296875 
Q 5.515625 40.765625 12.171875 48.375 
Q 18.84375 56 30.609375 56 
z
" id="DejaVuSans-111"/>
      <path d="M 45.40625 46.390625 
L 45.40625 75.984375 
L 54.390625 75.984375 
L 54.390625 0 
L 45.40625 0 
L 45.40625 8.203125 
Q 42.578125 3.328125 38.25 0.953125 
Q 33.9375 -1.421875 27.875 -1.421875 
Q 17.96875 -1.421875 11.734375 6.484375 
Q 5.515625 14.40625 5.515625 27.296875 
Q 5.515625 40.1875 11.734375 48.09375 
Q 17.96875 56 27.875 56 
Q 33.9375 56 38.25 53.625 
Q 42.578125 51.265625 45.40625 46.390625 
z
M 14.796875 27.296875 
Q 14.796875 17.390625 18.875 11.75 
Q 22.953125 6.109375 30.078125 6.109375 
Q 37.203125 6.109375 41.296875 11.75 
Q 45.40625 17.390625 45.40625 27.296875 
Q 45.40625 37.203125 41.296875 42.84375 
Q 37.203125 48.484375 30.078125 48.484375 
Q 22.953125 48.484375 18.875 42.84375 
Q 14.796875 37.203125 14.796875 27.296875 
z
" id="DejaVuSans-100"/>
      <path d="M 56.203125 29.59375 
L 56.203125 25.203125 
L 14.890625 25.203125 
Q 15.484375 15.921875 20.484375 11.0625 
Q 25.484375 6.203125 34.421875 6.203125 
Q 39.59375 6.203125 44.453125 7.46875 
Q 49.3125 8.734375 54.109375 11.28125 
L 54.109375 2.78125 
Q 49.265625 0.734375 44.1875 -0.34375 
Q 39.109375 -1.421875 33.890625 -1.421875 
Q 20.796875 -1.421875 13.15625 6.1875 
Q 5.515625 13.8125 5.515625 26.8125 
Q 5.515625 40.234375 12.765625 48.109375 
Q 20.015625 56 32.328125 56 
Q 43.359375 56 49.78125 48.890625 
Q 56.203125 41.796875 56.203125 29.59375 
z
M 47.21875 32.234375 
Q 47.125 39.59375 43.09375 43.984375 
Q 39.0625 48.390625 32.421875 48.390625 
Q 24.90625 48.390625 20.390625 44.140625 
Q 15.875 39.890625 15.1875 32.171875 
z
" id="DejaVuSans-101"/>
     </defs>
     <g transform="translate(312.536435 280.276563)scale(0.1 -0.1)">
      <use xlink:href="#DejaVuSans-80"/>
      <use x="60.302734" xlink:href="#DejaVuSans-108"/>
      <use x="88.085938" xlink:href="#DejaVuSans-97"/>
      <use x="149.365234" xlink:href="#DejaVuSans-121"/>
      <use x="208.544922" xlink:href="#DejaVuSans-108"/>
      <use x="236.328125" xlink:href="#DejaVuSans-105"/>
      <use x="264.111328" xlink:href="#DejaVuSans-115"/>
      <use x="316.210938" xlink:href="#DejaVuSans-116"/>
      <use x="355.419922" xlink:href="#DejaVuSans-32"/>
      <use x="387.207031" xlink:href="#DejaVuSans-77"/>
      <use x="473.486328" xlink:href="#DejaVuSans-111"/>
      <use x="534.667969" xlink:href="#DejaVuSans-100"/>
      <use x="598.144531" xlink:href="#DejaVuSans-101"/>
      <use x="659.667969" xlink:href="#DejaVuSans-108"/>
     </g>
    </g>
   </g>
   <g id="matplotlib.axis_2">
    <g id="ytick_1">
     <g id="line2d_7">
      <defs>
       <path d="M 0 0 
L -3.5 0 
" id="maf4ceeec3b" style="stroke:#000000;stroke-width:0.8;"/>
      </defs>
      <g>
       <use style="stroke:#000000;stroke-width:0.8;" x="144" xlink:href="#maf4ceeec3b" y="243.35338"/>
      </g>
     </g>
     <g id="text_8">
      <!-- 0.4 -->
      <defs>
       <path d="M 10.6875 12.40625 
L 21 12.40625 
L 21 0 
L 10.6875 0 
z
" id="DejaVuSans-46"/>
      </defs>
      <g transform="translate(121.096875 247.152599)scale(0.1 -0.1)">
       <use xlink:href="#DejaVuSans-48"/>
       <use x="63.623047" xlink:href="#DejaVuSans-46"/>
       <use x="95.410156" xlink:href="#DejaVuSans-52"/>
      </g>
     </g>
    </g>
    <g id="ytick_2">
     <g id="line2d_8">
      <g>
       <use style="stroke:#000000;stroke-width:0.8;" x="144" xlink:href="#maf4ceeec3b" y="210.201756"/>
      </g>
     </g>
     <g id="text_9">
      <!-- 0.5 -->
      <g transform="translate(121.096875 214.000975)scale(0.1 -0.1)">
       <use xlink:href="#DejaVuSans-48"/>
       <use x="63.623047" xlink:href="#DejaVuSans-46"/>
       <use x="95.410156" xlink:href="#DejaVuSans-53"/>
      </g>
     </g>
    </g>
    <g id="ytick_3">
     <g id="line2d_9">
      <g>
       <use style="stroke:#000000;stroke-width:0.8;" x="144" xlink:href="#maf4ceeec3b" y="177.050132"/>
      </g>
     </g>
     <g id="text_10">
      <!-- 0.6 -->
      <defs>
       <path d="M 33.015625 40.375 
Q 26.375 40.375 22.484375 35.828125 
Q 18.609375 31.296875 18.609375 23.390625 
Q 18.609375 15.53125 22.484375 10.953125 
Q 26.375 6.390625 33.015625 6.390625 
Q 39.65625 6.390625 43.53125 10.953125 
Q 47.40625 15.53125 47.40625 23.390625 
Q 47.40625 31.296875 43.53125 35.828125 
Q 39.65625 40.375 33.015625 40.375 
z
M 52.59375 71.296875 
L 52.59375 62.3125 
Q 48.875 64.0625 45.09375 64.984375 
Q 41.3125 65.921875 37.59375 65.921875 
Q 27.828125 65.921875 22.671875 59.328125 
Q 17.53125 52.734375 16.796875 39.40625 
Q 19.671875 43.65625 24.015625 45.921875 
Q 28.375 48.1875 33.59375 48.1875 
Q 44.578125 48.1875 50.953125 41.515625 
Q 57.328125 34.859375 57.328125 23.390625 
Q 57.328125 12.15625 50.6875 5.359375 
Q 44.046875 -1.421875 33.015625 -1.421875 
Q 20.359375 -1.421875 13.671875 8.265625 
Q 6.984375 17.96875 6.984375 36.375 
Q 6.984375 53.65625 15.1875 63.9375 
Q 23.390625 74.21875 37.203125 74.21875 
Q 40.921875 74.21875 44.703125 73.484375 
Q 48.484375 72.75 52.59375 71.296875 
z
" id="DejaVuSans-54"/>
      </defs>
      <g transform="translate(121.096875 180.849351)scale(0.1 -0.1)">
       <use xlink:href="#DejaVuSans-48"/>
       <use x="63.623047" xlink:href="#DejaVuSans-46"/>
       <use x="95.410156" xlink:href="#DejaVuSans-54"/>
      </g>
     </g>
    </g>
    <g id="ytick_4">
     <g id="line2d_10">
      <g>
       <use style="stroke:#000000;stroke-width:0.8;" x="144" xlink:href="#maf4ceeec3b" y="143.898508"/>
      </g>
     </g>
     <g id="text_11">
      <!-- 0.7 -->
      <defs>
       <path d="M 8.203125 72.90625 
L 55.078125 72.90625 
L 55.078125 68.703125 
L 28.609375 0 
L 18.3125 0 
L 43.21875 64.59375 
L 8.203125 64.59375 
z
" id="DejaVuSans-55"/>
      </defs>
      <g transform="translate(121.096875 147.697727)scale(0.1 -0.1)">
       <use xlink:href="#DejaVuSans-48"/>
       <use x="63.623047" xlink:href="#DejaVuSans-46"/>
       <use x="95.410156" xlink:href="#DejaVuSans-55"/>
      </g>
     </g>
    </g>
    <g id="ytick_5">
     <g id="line2d_11">
      <g>
       <use style="stroke:#000000;stroke-width:0.8;" x="144" xlink:href="#maf4ceeec3b" y="110.746884"/>
      </g>
     </g>
     <g id="text_12">
      <!-- 0.8 -->
      <defs>
       <path d="M 31.78125 34.625 
Q 24.75 34.625 20.71875 30.859375 
Q 16.703125 27.09375 16.703125 20.515625 
Q 16.703125 13.921875 20.71875 10.15625 
Q 24.75 6.390625 31.78125 6.390625 
Q 38.8125 6.390625 42.859375 10.171875 
Q 46.921875 13.96875 46.921875 20.515625 
Q 46.921875 27.09375 42.890625 30.859375 
Q 38.875 34.625 31.78125 34.625 
z
M 21.921875 38.8125 
Q 15.578125 40.375 12.03125 44.71875 
Q 8.5 49.078125 8.5 55.328125 
Q 8.5 64.0625 14.71875 69.140625 
Q 20.953125 74.21875 31.78125 74.21875 
Q 42.671875 74.21875 48.875 69.140625 
Q 55.078125 64.0625 55.078125 55.328125 
Q 55.078125 49.078125 51.53125 44.71875 
Q 48 40.375 41.703125 38.8125 
Q 48.828125 37.15625 52.796875 32.3125 
Q 56.78125 27.484375 56.78125 20.515625 
Q 56.78125 9.90625 50.3125 4.234375 
Q 43.84375 -1.421875 31.78125 -1.421875 
Q 19.734375 -1.421875 13.25 4.234375 
Q 6.78125 9.90625 6.78125 20.515625 
Q 6.78125 27.484375 10.78125 32.3125 
Q 14.796875 37.15625 21.921875 38.8125 
z
M 18.3125 54.390625 
Q 18.3125 48.734375 21.84375 45.5625 
Q 25.390625 42.390625 31.78125 42.390625 
Q 38.140625 42.390625 41.71875 45.5625 
Q 45.3125 48.734375 45.3125 54.390625 
Q 45.3125 60.0625 41.71875 63.234375 
Q 38.140625 66.40625 31.78125 66.40625 
Q 25.390625 66.40625 21.84375 63.234375 
Q 18.3125 60.0625 18.3125 54.390625 
z
" id="DejaVuSans-56"/>
      </defs>
      <g transform="translate(121.096875 114.546103)scale(0.1 -0.1)">
       <use xlink:href="#DejaVuSans-48"/>
       <use x="63.623047" xlink:href="#DejaVuSans-46"/>
       <use x="95.410156" xlink:href="#DejaVuSans-56"/>
      </g>
     </g>
    </g>
    <g id="ytick_6">
     <g id="line2d_12">
      <g>
       <use style="stroke:#000000;stroke-width:0.8;" x="144" xlink:href="#maf4ceeec3b" y="77.59526"/>
      </g>
     </g>
     <g id="text_13">
      <!-- 0.9 -->
      <defs>
       <path d="M 10.984375 1.515625 
L 10.984375 10.5 
Q 14.703125 8.734375 18.5 7.8125 
Q 22.3125 6.890625 25.984375 6.890625 
Q 35.75 6.890625 40.890625 13.453125 
Q 46.046875 20.015625 46.78125 33.40625 
Q 43.953125 29.203125 39.59375 26.953125 
Q 35.25 24.703125 29.984375 24.703125 
Q 19.046875 24.703125 12.671875 31.3125 
Q 6.296875 37.9375 6.296875 49.421875 
Q 6.296875 60.640625 12.9375 67.421875 
Q 19.578125 74.21875 30.609375 74.21875 
Q 43.265625 74.21875 49.921875 64.515625 
Q 56.59375 54.828125 56.59375 36.375 
Q 56.59375 19.140625 48.40625 8.859375 
Q 40.234375 -1.421875 26.421875 -1.421875 
Q 22.703125 -1.421875 18.890625 -0.6875 
Q 15.09375 0.046875 10.984375 1.515625 
z
M 30.609375 32.421875 
Q 37.25 32.421875 41.125 36.953125 
Q 45.015625 41.5 45.015625 49.421875 
Q 45.015625 57.28125 41.125 61.84375 
Q 37.25 66.40625 30.609375 66.40625 
Q 23.96875 66.40625 20.09375 61.84375 
Q 16.21875 57.28125 16.21875 49.421875 
Q 16.21875 41.5 20.09375 36.953125 
Q 23.96875 32.421875 30.609375 32.421875 
z
" id="DejaVuSans-57"/>
      </defs>
      <g transform="translate(121.096875 81.394479)scale(0.1 -0.1)">
       <use xlink:href="#DejaVuSans-48"/>
       <use x="63.623047" xlink:href="#DejaVuSans-46"/>
       <use x="95.410156" xlink:href="#DejaVuSans-57"/>
      </g>
     </g>
    </g>
    <g id="ytick_7">
     <g id="line2d_13">
      <g>
       <use style="stroke:#000000;stroke-width:0.8;" x="144" xlink:href="#maf4ceeec3b" y="44.443636"/>
      </g>
     </g>
     <g id="text_14">
      <!-- 1.0 -->
      <g transform="translate(121.096875 48.242855)scale(0.1 -0.1)">
       <use xlink:href="#DejaVuSans-49"/>
       <use x="63.623047" xlink:href="#DejaVuSans-46"/>
       <use x="95.410156" xlink:href="#DejaVuSans-48"/>
      </g>
     </g>
    </g>
    <g id="text_15">
     <!-- Accuracy Score -->
     <defs>
      <path d="M 34.1875 63.1875 
L 20.796875 26.90625 
L 47.609375 26.90625 
z
M 28.609375 72.90625 
L 39.796875 72.90625 
L 67.578125 0 
L 57.328125 0 
L 50.6875 18.703125 
L 17.828125 18.703125 
L 11.1875 0 
L 0.78125 0 
z
" id="DejaVuSans-65"/>
      <path d="M 48.78125 52.59375 
L 48.78125 44.1875 
Q 44.96875 46.296875 41.140625 47.34375 
Q 37.3125 48.390625 33.40625 48.390625 
Q 24.65625 48.390625 19.8125 42.84375 
Q 14.984375 37.3125 14.984375 27.296875 
Q 14.984375 17.28125 19.8125 11.734375 
Q 24.65625 6.203125 33.40625 6.203125 
Q 37.3125 6.203125 41.140625 7.25 
Q 44.96875 8.296875 48.78125 10.40625 
L 48.78125 2.09375 
Q 45.015625 0.34375 40.984375 -0.53125 
Q 36.96875 -1.421875 32.421875 -1.421875 
Q 20.0625 -1.421875 12.78125 6.34375 
Q 5.515625 14.109375 5.515625 27.296875 
Q 5.515625 40.671875 12.859375 48.328125 
Q 20.21875 56 33.015625 56 
Q 37.15625 56 41.109375 55.140625 
Q 45.0625 54.296875 48.78125 52.59375 
z
" id="DejaVuSans-99"/>
      <path d="M 8.5 21.578125 
L 8.5 54.6875 
L 17.484375 54.6875 
L 17.484375 21.921875 
Q 17.484375 14.15625 20.5 10.265625 
Q 23.53125 6.390625 29.59375 6.390625 
Q 36.859375 6.390625 41.078125 11.03125 
Q 45.3125 15.671875 45.3125 23.6875 
L 45.3125 54.6875 
L 54.296875 54.6875 
L 54.296875 0 
L 45.3125 0 
L 45.3125 8.40625 
Q 42.046875 3.421875 37.71875 1 
Q 33.40625 -1.421875 27.6875 -1.421875 
Q 18.265625 -1.421875 13.375 4.4375 
Q 8.5 10.296875 8.5 21.578125 
z
M 31.109375 56 
z
" id="DejaVuSans-117"/>
      <path d="M 41.109375 46.296875 
Q 39.59375 47.171875 37.8125 47.578125 
Q 36.03125 48 33.890625 48 
Q 26.265625 48 22.1875 43.046875 
Q 18.109375 38.09375 18.109375 28.8125 
L 18.109375 0 
L 9.078125 0 
L 9.078125 54.6875 
L 18.109375 54.6875 
L 18.109375 46.1875 
Q 20.953125 51.171875 25.484375 53.578125 
Q 30.03125 56 36.53125 56 
Q 37.453125 56 38.578125 55.875 
Q 39.703125 55.765625 41.0625 55.515625 
z
" id="DejaVuSans-114"/>
      <path d="M 53.515625 70.515625 
L 53.515625 60.890625 
Q 47.90625 63.578125 42.921875 64.890625 
Q 37.9375 66.21875 33.296875 66.21875 
Q 25.25 66.21875 20.875 63.09375 
Q 16.5 59.96875 16.5 54.203125 
Q 16.5 49.359375 19.40625 46.890625 
Q 22.3125 44.4375 30.421875 42.921875 
L 36.375 41.703125 
Q 47.40625 39.59375 52.65625 34.296875 
Q 57.90625 29 57.90625 20.125 
Q 57.90625 9.515625 50.796875 4.046875 
Q 43.703125 -1.421875 29.984375 -1.421875 
Q 24.8125 -1.421875 18.96875 -0.25 
Q 13.140625 0.921875 6.890625 3.21875 
L 6.890625 13.375 
Q 12.890625 10.015625 18.65625 8.296875 
Q 24.421875 6.59375 29.984375 6.59375 
Q 38.421875 6.59375 43.015625 9.90625 
Q 47.609375 13.234375 47.609375 19.390625 
Q 47.609375 24.75 44.3125 27.78125 
Q 41.015625 30.8125 33.5 32.328125 
L 27.484375 33.5 
Q 16.453125 35.6875 11.515625 40.375 
Q 6.59375 45.0625 6.59375 53.421875 
Q 6.59375 63.09375 13.40625 68.65625 
Q 20.21875 74.21875 32.171875 74.21875 
Q 37.3125 74.21875 42.625 73.28125 
Q 47.953125 72.359375 53.515625 70.515625 
z
" id="DejaVuSans-83"/>
     </defs>
     <g transform="translate(115.017187 181.897188)rotate(-90)scale(0.1 -0.1)">
      <use xlink:href="#DejaVuSans-65"/>
      <use x="68.392578" xlink:href="#DejaVuSans-99"/>
      <use x="123.373047" xlink:href="#DejaVuSans-99"/>
      <use x="178.353516" xlink:href="#DejaVuSans-117"/>
      <use x="241.732422" xlink:href="#DejaVuSans-114"/>
      <use x="282.845703" xlink:href="#DejaVuSans-97"/>
      <use x="344.125" xlink:href="#DejaVuSans-99"/>
      <use x="399.105469" xlink:href="#DejaVuSans-121"/>
      <use x="458.285156" xlink:href="#DejaVuSans-32"/>
      <use x="490.072266" xlink:href="#DejaVuSans-83"/>
      <use x="553.548828" xlink:href="#DejaVuSans-99"/>
      <use x="608.529297" xlink:href="#DejaVuSans-111"/>
      <use x="669.710938" xlink:href="#DejaVuSans-114"/>
      <use x="710.792969" xlink:href="#DejaVuSans-101"/>
     </g>
    </g>
   </g>
   <g id="line2d_14">
    <path clip-path="url(#p8f5f82d2e2)" d="M 162.446281 134.798062 
L 163.176827 181.352998 
L 163.907373 137.779804 
L 164.637918 133.598134 
L 165.368464 159.369266 
L 166.09901 141.135873 
L 166.829556 139.510793 
L 167.560101 127.140544 
L 168.290647 158.112962 
L 169.021193 142.013633 
L 169.751739 167.956706 
L 170.482285 153.804763 
L 171.21283 144.038536 
L 171.943376 129.85782 
L 172.673922 133.242629 
L 173.404468 135.250258 
L 174.135014 145.610564 
L 174.865559 119.542213 
L 175.596105 108.196759 
L 176.326651 98.591289 
L 177.057197 130.392291 
L 177.787742 103.06541 
L 179.248834 145.157431 
L 179.97938 162.609854 
L 180.709926 152.949774 
L 181.440471 123.376074 
L 182.171017 112.908947 
L 182.901563 134.299048 
L 183.632109 134.857156 
L 184.362654 108.905127 
L 185.0932 169.019615 
L 185.823746 139.979104 
L 186.554292 141.882531 
L 187.284838 163.449466 
L 188.015383 171.422396 
L 188.745929 120.721709 
L 189.476475 100.871932 
L 190.207021 145.198572 
L 190.937566 135.588263 
L 191.668112 135.666226 
L 192.398658 123.820764 
L 193.129204 123.589405 
L 193.85975 102.946502 
L 194.590295 126.380889 
L 195.320841 142.338432 
L 196.051387 139.478292 
L 196.781933 169.737274 
L 197.512479 170.425998 
L 198.243024 157.682771 
L 198.97357 131.111453 
L 199.704116 147.527044 
L 200.434662 152.52241 
L 201.165207 158.663517 
L 201.895753 150.73932 
L 202.626299 160.922315 
L 203.356845 128.702481 
L 204.087391 150.477732 
L 204.817936 136.272078 
L 205.548482 131.269318 
L 206.279028 57.194261 
L 207.009574 116.315321 
L 207.740119 125.082722 
L 208.470665 44.443636 
L 209.201211 147.100654 
L 209.931757 73.695069 
L 210.662303 132.955254 
L 211.392848 91.803099 
L 212.123394 62.861205 
L 212.85394 170.869321 
L 213.584486 105.97506 
L 214.315032 180.063916 
L 215.045577 144.130338 
L 215.776123 123.962734 
L 216.506669 160.47432 
L 217.237215 99.888861 
L 217.96776 79.60445 
L 218.698306 116.122823 
L 219.428852 139.063896 
L 220.159398 173.247603 
L 220.889944 120.856954 
L 221.620489 99.209535 
L 222.351035 70.754449 
L 223.081581 115.009236 
L 223.812127 121.956426 
L 224.542672 145.452491 
L 225.273218 120.634211 
L 226.003764 112.846699 
L 226.73431 143.898508 
L 227.464856 102.60438 
L 228.195401 107.431722 
L 228.925947 149.490348 
L 229.656493 148.818067 
L 230.387039 90.291627 
L 231.117584 118.442797 
L 231.84813 160.372628 
L 232.578676 105.307946 
L 233.309222 111.241685 
L 234.039768 173.887256 
L 234.770313 171.524862 
L 235.500859 159.930851 
L 236.231405 125.728868 
L 236.961951 125.831299 
L 237.692497 151.002428 
L 238.423042 99.696343 
L 239.153588 166.11715 
L 239.884134 122.768902 
L 240.61468 116.084858 
L 241.345225 136.653451 
L 242.075771 141.812042 
L 242.806317 145.87771 
L 243.536863 70.44491 
L 244.267409 141.396499 
L 244.997954 190.196466 
L 245.7285 117.215494 
L 246.459046 127.322696 
L 247.189592 156.233996 
L 247.920137 106.602931 
L 248.650683 94.58895 
L 249.381229 102.327424 
L 250.111775 160.516073 
L 250.842321 146.375354 
L 251.572866 99.696343 
L 252.303412 109.918094 
L 253.033958 104.719316 
L 253.764504 154.099008 
L 254.49505 132.456797 
L 255.225595 162.842293 
L 255.956141 170.633689 
L 256.686687 125.917966 
L 257.417233 147.055806 
L 258.147778 147.537101 
L 258.878324 177.674653 
L 259.60887 56.875495 
L 260.339416 127.322696 
L 261.069962 109.531903 
L 261.800507 100.338816 
L 262.531053 101.470512 
L 263.261599 98.315025 
L 263.992145 132.686477 
L 264.72269 144.87617 
L 265.453236 81.278774 
L 266.183782 114.308629 
L 266.914328 140.478103 
L 267.644874 111.127937 
L 268.375419 138.205805 
L 269.105965 157.559892 
L 269.836511 156.112264 
L 270.567057 138.669234 
L 271.297602 153.906546 
L 272.028148 100.185305 
L 272.758694 157.089989 
L 273.48924 153.906546 
L 274.219786 99.696343 
L 274.950331 92.686671 
L 275.680877 118.505775 
L 276.411423 96.397674 
L 277.141969 110.746884 
L 277.872515 119.788236 
L 278.60306 180.365295 
L 279.333606 78.779247 
L 280.064152 102.458978 
L 280.794698 148.042461 
L 281.525243 116.272155 
L 282.255789 109.477923 
L 282.986335 99.363495 
L 283.716881 49.179583 
L 284.447427 106.602931 
L 285.177972 140.290168 
L 285.908518 129.206311 
L 286.639064 93.283082 
L 287.36961 123.072488 
L 288.100155 144.70557 
L 288.830701 113.803417 
L 289.561247 137.828493 
L 290.291793 139.478292 
L 291.022339 118.914676 
L 291.752884 121.021949 
L 292.48343 125.697617 
L 293.213976 100.27795 
L 293.944522 108.397557 
L 294.675068 125.439081 
L 295.405613 109.975916 
L 296.136159 143.898508 
L 296.866705 123.299441 
L 297.597251 168.116176 
L 298.327796 83.909855 
L 299.058342 118.865649 
L 299.788888 143.290222 
L 300.519434 69.944886 
L 301.24998 129.232352 
L 301.980525 120.022468 
L 302.711071 82.69551 
L 303.441617 128.980277 
L 304.172163 97.184856 
L 304.902708 142.446612 
L 305.633254 82.115936 
L 306.3638 146.127189 
L 307.094346 122.96064 
L 307.824892 110.746884 
L 308.555437 126.236944 
L 309.285983 133.104956 
L 310.016529 143.898508 
L 311.47762 91.313174 
L 312.208166 107.7331 
L 312.938712 121.028084 
L 313.669258 138.577877 
L 314.399804 103.74592 
L 315.130349 131.200079 
L 316.591441 116.655094 
L 317.321987 50.363569 
L 318.052533 114.137391 
L 318.783078 86.777545 
L 319.513624 133.623443 
L 320.24417 146.596896 
L 320.974716 112.253776 
L 321.705261 142.805598 
L 322.435807 116.774452 
L 323.166353 171.836375 
L 323.896899 138.285535 
L 324.627445 124.81121 
L 325.35799 147.380186 
L 326.088536 92.42625 
L 326.819082 78.271824 
L 327.549628 152.10516 
L 328.280173 154.078928 
L 329.010719 82.69551 
L 329.741265 74.978027 
L 330.471811 169.85274 
L 331.932902 72.06999 
L 332.663448 122.718304 
L 333.393994 136.002023 
L 334.12454 122.477459 
L 335.585631 101.641861 
L 336.316177 149.745194 
L 337.046723 143.766954 
L 337.777269 118.303004 
L 338.507814 139.162562 
L 339.23836 145.082495 
L 339.968906 131.19555 
L 340.699452 141.396499 
L 341.429998 140.769151 
L 342.160543 93.980546 
L 342.891089 147.482468 
L 343.621635 149.686887 
L 344.352181 101.446429 
L 345.082726 117.215494 
L 345.813272 160.47432 
L 346.543818 154.209883 
L 348.00491 125.233308 
L 348.735455 175.768025 
L 349.466001 122.032543 
L 350.196547 85.883166 
L 350.927093 141.882531 
L 351.657638 125.301256 
L 352.388184 122.96064 
L 353.11873 90.85591 
L 353.849276 93.653078 
L 354.579822 91.063108 
L 355.310367 131.177536 
L 356.040913 135.224691 
L 356.771459 119.03479 
L 357.502005 110.220668 
L 358.963096 152.337103 
L 359.693642 113.059788 
L 360.424188 158.69834 
L 361.154734 154.94905 
L 361.885279 101.761865 
L 362.615825 98.568737 
L 363.346371 161.869154 
L 364.076917 152.709075 
L 364.807463 99.696343 
L 365.538008 111.001245 
L 366.268554 140.303754 
L 366.9991 135.831193 
L 367.729646 158.059301 
L 368.460191 113.50952 
L 369.190737 168.762226 
L 369.921283 155.559095 
L 370.651829 83.445547 
L 372.11292 157.976595 
L 372.843466 85.883166 
L 373.574012 131.239866 
L 374.304558 124.159373 
L 375.035104 113.50952 
L 375.765649 140.583346 
L 376.496195 106.010938 
L 377.226741 80.703225 
L 377.957287 67.306825 
L 378.687832 113.50952 
L 379.418378 118.749 
L 380.148924 137.682579 
L 380.87947 116.962814 
L 381.610016 116.58157 
L 382.340561 58.59372 
L 383.071107 128.233455 
L 384.532199 81.278774 
L 385.262744 99.696343 
L 386.723836 164.331585 
L 387.454382 148.829288 
L 388.184928 147.582022 
L 388.915473 142.072359 
L 389.646019 104.908862 
L 390.376565 134.254399 
L 391.107111 132.532237 
L 391.837656 142.83482 
L 392.568202 103.642965 
L 393.298748 110.945397 
L 394.029294 124.954723 
L 394.75984 112.344553 
L 395.490385 136.139618 
L 396.220931 127.322696 
L 396.951477 132.127279 
L 397.682023 152.738941 
L 398.412569 132.727852 
L 399.143114 62.203435 
L 399.87366 142.391616 
L 400.604206 110.613208 
L 401.334752 136.1129 
L 402.065297 127.322696 
L 402.795843 163.27024 
L 403.526389 73.524008 
L 404.256935 116.272155 
L 404.987481 124.59042 
L 405.718026 155.569866 
L 406.448572 121.486143 
L 407.179118 147.537101 
L 407.909664 138.644972 
L 408.640209 169.95074 
L 409.370755 137.548035 
L 410.101301 153.222402 
L 410.831847 84.962288 
L 411.562393 151.605733 
L 412.292938 147.252155 
L 413.023484 101.951555 
L 413.75403 155.475266 
L 414.484576 169.345882 
L 415.215122 74.195094 
L 415.945667 77.59526 
L 417.406759 144.470088 
L 418.137305 133.953021 
L 418.86785 116.862232 
L 419.598396 132.847967 
L 420.328942 106.808077 
L 421.059488 150.500738 
L 421.790034 139.2727 
L 422.520579 102.85364 
L 423.251125 118.598585 
L 423.981671 138.624386 
L 424.712217 108.196759 
L 425.442762 130.56016 
L 426.173308 147.773373 
L 426.903854 132.612849 
L 427.6344 148.243624 
L 428.364946 154.085726 
L 429.095491 92.152615 
L 429.826037 135.519526 
L 430.556583 104.116559 
L 431.287129 108.60807 
L 432.017674 134.56694 
L 433.478766 85.883166 
L 434.209312 140.911434 
L 434.939858 160.327632 
L 435.670403 138.490797 
L 436.400949 130.16102 
L 437.131495 152.100972 
L 437.862041 140.293159 
L 438.592587 162.607841 
L 439.323132 121.333767 
L 440.053678 144.395162 
L 440.784224 84.454217 
L 441.51477 173.580776 
L 442.245315 193.424618 
L 442.975861 125.797315 
L 443.706407 135.34325 
L 444.436953 103.331389 
L 445.167499 116.154596 
L 445.898044 145.183455 
L 446.62859 158.976215 
L 447.359136 98.648898 
L 448.089682 66.253915 
L 448.820227 114.529284 
L 449.550773 145.452491 
L 450.281319 117.27675 
L 451.011865 110.746884 
L 451.742411 122.17202 
L 452.472956 123.246677 
L 453.203502 139.88013 
L 453.934048 138.133008 
L 454.664594 99.696343 
L 456.856231 136.443358 
L 457.586777 153.450671 
L 458.317323 155.826077 
L 459.047868 102.85364 
L 459.778414 120.864588 
L 460.50896 144.717067 
L 461.970052 84.763179 
L 462.700597 118.113912 
L 463.431143 108.196759 
L 464.161689 123.555466 
L 464.892235 145.422721 
L 465.62278 115.860699 
L 466.353326 97.001089 
L 467.083872 112.69698 
L 467.814418 151.69889 
L 468.544964 85.883166 
L 469.275509 107.162925 
L 470.006055 121.797426 
L 470.736601 95.446135 
L 472.197692 113.50952 
L 472.928238 106.010938 
L 473.658784 166.939373 
L 474.38933 119.083258 
L 475.119876 122.718304 
L 475.850421 92.958208 
L 476.580967 108.005021 
L 477.311513 77.59526 
L 478.042059 187.250632 
L 478.772605 74.581476 
L 479.50315 158.830438 
L 480.233696 157.460536 
L 480.964242 136.419178 
L 481.694788 98.718419 
L 482.425333 128.727426 
L 483.155879 99.143816 
L 483.886425 112.54581 
L 484.616971 123.666267 
L 485.347517 85.883166 
L 486.078062 117.759728 
L 486.808608 88.645802 
L 487.539154 116.710953 
L 488.2697 113.882849 
L 489.000245 125.773555 
L 489.730791 62.861205 
L 490.461337 110.598222 
L 491.191883 113.791421 
L 491.922429 132.847967 
L 492.652974 161.36231 
L 494.114066 119.65547 
L 494.844612 130.040042 
L 495.575158 135.610602 
L 496.305703 127.831157 
L 497.036249 163.854913 
L 497.766795 110.746884 
L 498.497341 162.842293 
L 499.227886 114.430398 
L 499.958432 135.041824 
L 500.688978 150.657577 
L 501.419524 124.649178 
L 502.15007 156.90623 
L 502.880615 122.447457 
L 503.611161 74.889005 
L 504.341707 119.516452 
L 505.072253 67.614126 
L 505.802798 129.344137 
L 506.533344 150.266617 
L 507.26389 73.695069 
L 507.994436 154.94905 
L 508.724982 69.944886 
L 509.455527 140.073321 
L 510.186073 113.50952 
L 510.916619 95.885811 
L 511.647165 131.177536 
L 512.37771 124.397553 
L 513.108256 109.129732 
L 513.838802 131.772579 
L 514.569348 97.486235 
L 515.299894 165.865238 
L 516.030439 116.328535 
L 516.760985 132.847967 
L 517.491531 51.650511 
L 518.222077 137.903002 
L 518.952623 112.377292 
L 519.683168 149.618547 
L 520.413714 115.482831 
L 521.14426 73.563306 
L 521.874806 111.642874 
L 522.605351 122.510364 
L 523.335897 113.578933 
L 524.066443 115.482831 
L 524.796989 132.552928 
L 525.527535 114.890837 
L 526.25808 130.728685 
L 526.988626 120.796786 
L 527.719172 108.236174 
L 528.449718 65.755395 
L 529.180263 129.953778 
L 529.910809 47.318055 
L 530.641355 142.774724 
L 531.371901 147.055806 
L 531.371901 147.055806 
" style="fill:none;stroke:#1f77b4;stroke-linecap:square;stroke-width:1.5;"/>
   </g>
   <g id="line2d_15">
    <path clip-path="url(#p8f5f82d2e2)" d="M 162.446281 187.07538 
L 163.176827 169.727994 
L 163.907373 146.507905 
L 164.637918 158.503216 
L 165.368464 183.118593 
L 166.09901 186.159071 
L 166.829556 162.918157 
L 167.560101 147.65329 
L 168.290647 191.365369 
L 169.021193 171.43566 
L 169.751739 159.731902 
L 170.482285 188.824696 
L 172.673922 126.765622 
L 174.135014 179.328408 
L 174.865559 149.340131 
L 175.596105 166.250187 
L 176.326651 138.719283 
L 177.057197 142.613594 
L 177.787742 131.742843 
L 179.97938 177.828994 
L 180.709926 187.866737 
L 182.171017 114.957738 
L 183.632109 181.431753 
L 184.362654 109.980517 
L 185.0932 186.367323 
L 185.823746 137.927926 
L 186.554292 165.333879 
L 187.284838 156.295745 
L 188.015383 177.058462 
L 188.745929 94.236672 
L 189.476475 161.856072 
L 190.207021 144.092183 
L 190.937566 147.09101 
L 191.668112 168.082804 
L 192.398658 155.462738 
L 193.129204 114.478759 
L 193.85975 153.442694 
L 194.590295 123.558543 
L 195.320841 190.136683 
L 196.051387 176.412881 
L 196.781933 191.302894 
L 197.512479 185.221938 
L 198.243024 183.82665 
L 198.97357 108.127075 
L 199.704116 156.79555 
L 200.434662 166.520915 
L 201.165207 179.619961 
L 201.895753 166.520915 
L 202.626299 150.256439 
L 203.356845 148.590424 
L 204.087391 186.950429 
L 204.817936 189.220375 
L 205.548482 114.478759 
L 206.279028 112.729443 
L 207.009574 160.60656 
L 207.740119 149.340131 
L 208.470665 234.140315 
L 209.201211 165.41718 
L 209.931757 158.232488 
L 210.662303 161.64782 
L 211.392848 76.74351 
L 212.123394 76.327006 
L 212.85394 180.765347 
L 213.584486 148.215571 
L 214.315032 168.436833 
L 215.045577 153.442694 
L 215.776123 177.079287 
L 216.506669 212.315513 
L 217.237215 128.389987 
L 217.96776 133.512985 
L 218.698306 134.991573 
L 219.428852 152.276483 
L 220.159398 189.428627 
L 220.889944 148.986103 
L 221.620489 149.423432 
L 222.351035 89.925857 
L 223.081581 149.048578 
L 224.542672 179.224282 
L 225.273218 163.459612 
L 226.003764 141.384907 
L 226.73431 166.770817 
L 227.464856 165.708732 
L 228.195401 141.822237 
L 228.925947 175.704825 
L 229.656493 184.139028 
L 230.387039 87.281057 
L 231.117584 151.547601 
L 231.84813 161.12719 
L 232.578676 108.66853 
L 233.309222 92.549831 
L 234.039768 190.761439 
L 234.770313 159.52365 
L 235.500859 188.845521 
L 236.231405 120.955394 
L 236.961951 141.135005 
L 237.692497 134.970748 
L 238.423042 86.468875 
L 239.153588 187.887562 
L 239.884134 138.552681 
L 240.61468 61.686896 
L 241.345225 153.359393 
L 242.075771 195.530408 
L 242.806317 115.353417 
L 243.536863 67.747027 
L 244.267409 162.897331 
L 244.997954 215.335166 
L 245.7285 159.502825 
L 246.459046 125.162083 
L 247.189592 168.770036 
L 247.920137 146.028925 
L 248.650683 141.822237 
L 249.381229 61.561945 
L 250.111775 171.185758 
L 250.842321 163.063933 
L 251.572866 150.193964 
L 252.303412 145.862324 
L 253.033958 111.563232 
L 253.764504 183.680873 
L 254.49505 116.311376 
L 255.225595 138.406905 
L 255.956141 189.616053 
L 256.686687 130.514157 
L 257.417233 166.937419 
L 258.147778 136.241085 
L 258.878324 242.116364 
L 259.60887 54.481379 
L 260.339416 156.483172 
L 261.069962 127.786057 
L 261.800507 151.381 
L 262.531053 100.942384 
L 263.261599 97.381276 
L 263.992145 149.631684 
L 265.453236 119.351854 
L 266.183782 128.889792 
L 266.914328 165.771208 
L 267.644874 152.047406 
L 268.375419 161.481218 
L 269.105965 176.371231 
L 269.836511 159.086321 
L 270.567057 183.493447 
L 271.297602 151.047797 
L 272.028148 152.047406 
L 272.758694 183.993251 
L 273.48924 147.09101 
L 274.219786 137.761324 
L 274.950331 102.462623 
L 275.680877 165.083977 
L 276.411423 147.528339 
L 277.141969 151.714203 
L 277.872515 139.739717 
L 278.60306 175.788126 
L 279.333606 112.500365 
L 280.064152 149.673334 
L 280.794698 93.237062 
L 281.525243 104.607618 
L 282.255789 94.528224 
L 282.986335 97.83943 
L 283.716881 63.915191 
L 284.447427 135.13735 
L 285.177972 184.90956 
L 285.908518 169.332316 
L 286.639064 99.880299 
L 287.36961 127.119651 
L 288.100155 178.432925 
L 288.830701 178.058071 
L 289.561247 162.105974 
L 290.291793 108.855957 
L 291.022339 142.092964 
L 291.752884 132.40925 
L 292.48343 129.660324 
L 293.213976 118.789574 
L 293.944522 160.252532 
L 294.675068 149.131879 
L 295.405613 98.839039 
L 296.136159 167.374748 
L 296.866705 136.678414 
L 297.597251 177.953946 
L 298.327796 108.397803 
L 299.058342 101.879517 
L 299.788888 163.709514 
L 300.519434 78.930155 
L 301.24998 141.738936 
L 301.980525 164.480046 
L 302.711071 200.403503 
L 303.441617 101.171461 
L 304.172163 118.456371 
L 304.902708 179.01603 
L 305.633254 89.342751 
L 306.3638 133.263082 
L 307.094346 147.424213 
L 307.824892 120.455589 
L 308.555437 125.245383 
L 309.285983 190.948866 
L 310.016529 160.544085 
L 310.747075 178.224673 
L 311.47762 123.725144 
L 312.208166 124.204124 
L 312.938712 179.474185 
L 313.669258 167.812077 
L 314.399804 136.303561 
L 315.130349 151.360175 
L 315.860895 151.360175 
L 316.591441 142.634419 
L 317.321987 52.086482 
L 318.052533 138.677632 
L 318.783078 129.931052 
L 320.24417 179.036856 
L 320.974716 167.395573 
L 321.705261 164.271794 
L 322.435807 135.303951 
L 323.166353 195.093079 
L 323.896899 194.739051 
L 324.627445 154.525604 
L 325.35799 161.918547 
L 326.088536 122.371507 
L 326.819082 118.352245 
L 327.549628 188.741395 
L 328.280173 157.128753 
L 329.010719 56.334821 
L 329.741265 105.773828 
L 330.471811 193.906043 
L 331.932902 126.828098 
L 332.663448 140.156221 
L 333.393994 164.33427 
L 334.12454 139.573116 
L 334.855086 105.294849 
L 335.585631 136.928316 
L 336.316177 188.366542 
L 337.046723 141.239131 
L 337.777269 159.669427 
L 338.507814 148.111445 
L 339.23836 185.742568 
L 339.968906 172.289493 
L 340.699452 161.397917 
L 341.429998 166.854118 
L 342.160543 96.423317 
L 342.891089 172.393619 
L 343.621635 133.908663 
L 344.352181 126.140867 
L 345.082726 146.466254 
L 345.813272 126.994699 
L 346.543818 167.416398 
L 347.274364 98.839039 
L 348.00491 163.792815 
L 348.735455 200.674231 
L 349.466001 167.395573 
L 350.196547 109.439062 
L 350.927093 172.935074 
L 351.657638 166.250187 
L 352.388184 88.738821 
L 353.11873 148.111445 
L 354.579822 70.308525 
L 355.310367 160.669036 
L 356.040913 177.079287 
L 356.771459 157.35783 
L 357.502005 144.737763 
L 358.232551 142.509468 
L 358.963096 161.814421 
L 359.693642 132.555026 
L 360.424188 184.243154 
L 361.154734 191.323719 
L 361.885279 125.349509 
L 362.615825 128.785666 
L 363.346371 186.325673 
L 364.076917 163.063933 
L 364.807463 172.414444 
L 365.538008 130.451681 
L 366.268554 179.619961 
L 366.9991 145.279218 
L 367.729646 187.346107 
L 368.460191 132.825753 
L 369.190737 172.247843 
L 369.921283 187.845912 
L 370.651829 105.440625 
L 371.382375 105.94043 
L 372.11292 174.955118 
L 372.843466 126.432419 
L 373.574012 152.401434 
L 374.304558 139.031661 
L 375.035104 147.507514 
L 375.765649 137.136568 
L 376.496195 95.861037 
L 377.226741 133.158956 
L 377.957287 118.227293 
L 378.687832 137.782149 
L 379.418378 123.912571 
L 380.148924 190.532362 
L 380.87947 117.644188 
L 381.610016 136.595113 
L 382.340561 56.668024 
L 383.071107 143.342476 
L 383.801653 132.076046 
L 384.532199 78.180448 
L 385.262744 74.494389 
L 385.99329 139.531465 
L 386.723836 184.638832 
L 387.454382 171.352359 
L 388.184928 218.95875 
L 388.915473 163.917766 
L 389.646019 145.195918 
L 390.376565 167.728776 
L 391.107111 156.358221 
L 391.837656 132.055221 
L 392.568202 165.042326 
L 393.298748 135.803756 
L 394.029294 139.614766 
L 394.75984 144.92519 
L 395.490385 158.898894 
L 396.220931 216.022397 
L 396.951477 188.866346 
L 397.682023 185.763393 
L 398.412569 146.0081 
L 399.143114 96.569093 
L 399.87366 166.666691 
L 400.604206 150.86037 
L 401.334752 166.312663 
L 402.065297 112.625317 
L 402.795843 161.814421 
L 403.526389 94.278322 
L 404.256935 121.205296 
L 404.987481 165.083977 
L 405.718026 120.143211 
L 406.448572 127.411203 
L 407.179118 113.250072 
L 407.909664 160.398308 
L 408.640209 185.909169 
L 409.370755 193.239637 
L 410.101301 182.160634 
L 410.831847 114.811962 
L 411.562393 177.245889 
L 412.292938 156.129144 
L 413.023484 118.081517 
L 413.75403 112.646142 
L 414.484576 171.602262 
L 415.215122 107.793872 
L 415.945667 131.722018 
L 416.676213 147.153486 
L 417.406759 197.987781 
L 418.137305 187.221156 
L 418.86785 131.846969 
L 419.598396 167.832902 
L 420.328942 83.990677 
L 421.059488 179.911514 
L 421.790034 167.895378 
L 422.520579 123.058738 
L 423.251125 139.219087 
L 423.981671 184.38893 
L 424.712217 135.158175 
L 425.442762 151.485126 
L 426.173308 143.779805 
L 426.903854 172.830948 
L 427.6344 129.577023 
L 428.364946 189.345326 
L 429.095491 120.434764 
L 429.826037 169.998722 
L 430.556583 126.807273 
L 431.287129 117.123558 
L 432.017674 130.618283 
L 432.74822 95.15298 
L 433.478766 165.396354 
L 434.939858 179.328408 
L 435.670403 195.238855 
L 436.400949 150.069013 
L 437.131495 183.410146 
L 437.862041 125.328684 
L 438.592587 153.963324 
L 439.323132 134.221041 
L 440.053678 170.498527 
L 440.784224 111.375805 
L 441.51477 161.960198 
L 442.245315 199.54967 
L 442.975861 136.511812 
L 443.706407 173.726431 
L 444.436953 141.468208 
L 445.167499 144.92519 
L 445.898044 174.372012 
L 446.62859 188.012514 
L 447.359136 85.698343 
L 448.089682 67.184747 
L 448.820227 102.275196 
L 449.550773 158.773943 
L 450.281319 121.309422 
L 451.011865 165.667082 
L 452.472956 112.750268 
L 453.203502 173.663956 
L 453.934048 137.115743 
L 454.664594 183.951601 
L 455.39514 129.077219 
L 456.125685 124.370725 
L 456.856231 149.465082 
L 457.586777 199.237292 
L 458.317323 167.6663 
L 459.047868 106.46106 
L 459.778414 179.265933 
L 460.50896 195.072254 
L 461.970052 137.532247 
L 462.700597 118.310594 
L 463.431143 133.221432 
L 464.161689 91.737649 
L 464.892235 159.586126 
L 465.62278 137.136568 
L 466.353326 141.63481 
L 467.083872 155.941717 
L 467.814418 173.289102 
L 468.544964 123.641843 
L 469.275509 125.682712 
L 470.736601 62.853107 
L 471.467147 74.077885 
L 472.197692 110.709399 
L 472.928238 161.564519 
L 473.658784 191.157118 
L 474.38933 151.630902 
L 475.119876 143.425776 
L 475.850421 99.338844 
L 476.580967 108.10625 
L 477.311513 91.925075 
L 478.042059 174.101285 
L 478.772605 128.702365 
L 479.50315 174.101285 
L 480.233696 155.608514 
L 480.964242 167.6663 
L 481.694788 141.468208 
L 482.425333 125.932615 
L 483.155879 97.631178 
L 483.886425 156.79555 
L 484.616971 131.763669 
L 485.347517 135.803756 
L 486.078062 130.014352 
L 486.808608 140.197872 
L 487.539154 140.197872 
L 488.2697 133.783712 
L 489.000245 150.922846 
L 489.730791 142.051314 
L 490.461337 137.469771 
L 491.191883 121.809227 
L 491.922429 92.237453 
L 492.652974 195.25968 
L 493.38352 192.843958 
L 494.114066 141.301607 
L 494.844612 152.443085 
L 495.575158 84.802859 
L 496.305703 129.701974 
L 497.766795 194.010169 
L 498.497341 207.046739 
L 499.227886 142.363692 
L 499.958432 162.126799 
L 500.688978 188.72057 
L 501.419524 151.318524 
L 502.15007 171.789689 
L 502.880615 155.004583 
L 503.611161 143.404951 
L 504.341707 155.087884 
L 505.072253 59.750153 
L 505.802798 129.910226 
L 506.533344 181.640005 
L 507.26389 67.851153 
L 507.994436 159.565301 
L 508.724982 111.084252 
L 509.455527 142.967622 
L 510.186073 161.272966 
L 510.916619 184.888735 
L 511.647165 160.544085 
L 512.37771 106.315283 
L 513.108256 133.263082 
L 513.838802 149.048578 
L 514.569348 105.336499 
L 515.299894 196.030213 
L 516.030439 149.298481 
L 516.760985 126.703147 
L 517.491531 55.022834 
L 518.222077 131.513766 
L 518.952623 152.838763 
L 519.683168 183.555922 
L 520.413714 148.715375 
L 521.14426 141.780586 
L 521.874806 172.51857 
L 522.605351 154.400653 
L 523.335897 151.94328 
L 524.066443 129.556198 
L 524.796989 167.957853 
L 525.527535 108.62688 
L 526.25808 159.211272 
L 526.988626 152.651337 
L 527.719172 133.471334 
L 528.449718 108.335327 
L 529.180263 101.900342 
L 529.910809 50.524593 
L 530.641355 162.626604 
L 531.371901 98.776564 
L 531.371901 98.776564 
" style="fill:none;stroke:#ff7f0e;stroke-linecap:square;stroke-width:1.5;"/>
   </g>
   <g id="patch_3">
    <path d="M 144 252 
L 144 34.56 
" style="fill:none;stroke:#000000;stroke-linecap:square;stroke-linejoin:miter;stroke-width:0.8;"/>
   </g>
   <g id="patch_4">
    <path d="M 549.818182 252 
L 549.818182 34.56 
" style="fill:none;stroke:#000000;stroke-linecap:square;stroke-linejoin:miter;stroke-width:0.8;"/>
   </g>
   <g id="patch_5">
    <path d="M 144 252 
L 549.818182 252 
" style="fill:none;stroke:#000000;stroke-linecap:square;stroke-linejoin:miter;stroke-width:0.8;"/>
   </g>
   <g id="patch_6">
    <path d="M 144 34.56 
L 549.818182 34.56 
" style="fill:none;stroke:#000000;stroke-linecap:square;stroke-linejoin:miter;stroke-width:0.8;"/>
   </g>
   <g id="text_16">
    <!-- Accuracies for Playlist Models -->
    <defs>
     <path d="M 37.109375 75.984375 
L 37.109375 68.5 
L 28.515625 68.5 
Q 23.6875 68.5 21.796875 66.546875 
Q 19.921875 64.59375 19.921875 59.515625 
L 19.921875 54.6875 
L 34.71875 54.6875 
L 34.71875 47.703125 
L 19.921875 47.703125 
L 19.921875 0 
L 10.890625 0 
L 10.890625 47.703125 
L 2.296875 47.703125 
L 2.296875 54.6875 
L 10.890625 54.6875 
L 10.890625 58.5 
Q 10.890625 67.625 15.140625 71.796875 
Q 19.390625 75.984375 28.609375 75.984375 
z
" id="DejaVuSans-102"/>
    </defs>
    <g transform="translate(258.041591 28.56)scale(0.12 -0.12)">
     <use xlink:href="#DejaVuSans-65"/>
     <use x="68.392578" xlink:href="#DejaVuSans-99"/>
     <use x="123.373047" xlink:href="#DejaVuSans-99"/>
     <use x="178.353516" xlink:href="#DejaVuSans-117"/>
     <use x="241.732422" xlink:href="#DejaVuSans-114"/>
     <use x="282.845703" xlink:href="#DejaVuSans-97"/>
     <use x="344.125" xlink:href="#DejaVuSans-99"/>
     <use x="399.105469" xlink:href="#DejaVuSans-105"/>
     <use x="426.888672" xlink:href="#DejaVuSans-101"/>
     <use x="488.412109" xlink:href="#DejaVuSans-115"/>
     <use x="540.511719" xlink:href="#DejaVuSans-32"/>
     <use x="572.298828" xlink:href="#DejaVuSans-102"/>
     <use x="607.503906" xlink:href="#DejaVuSans-111"/>
     <use x="668.685547" xlink:href="#DejaVuSans-114"/>
     <use x="709.798828" xlink:href="#DejaVuSans-32"/>
     <use x="741.585938" xlink:href="#DejaVuSans-80"/>
     <use x="801.888672" xlink:href="#DejaVuSans-108"/>
     <use x="829.671875" xlink:href="#DejaVuSans-97"/>
     <use x="890.951172" xlink:href="#DejaVuSans-121"/>
     <use x="950.130859" xlink:href="#DejaVuSans-108"/>
     <use x="977.914062" xlink:href="#DejaVuSans-105"/>
     <use x="1005.697266" xlink:href="#DejaVuSans-115"/>
     <use x="1057.796875" xlink:href="#DejaVuSans-116"/>
     <use x="1097.005859" xlink:href="#DejaVuSans-32"/>
     <use x="1128.792969" xlink:href="#DejaVuSans-77"/>
     <use x="1215.072266" xlink:href="#DejaVuSans-111"/>
     <use x="1276.253906" xlink:href="#DejaVuSans-100"/>
     <use x="1339.730469" xlink:href="#DejaVuSans-101"/>
     <use x="1401.253906" xlink:href="#DejaVuSans-108"/>
     <use x="1429.037109" xlink:href="#DejaVuSans-115"/>
    </g>
   </g>
   <g id="legend_1">
    <g id="patch_7">
     <path d="M 485.377557 247 
L 542.818182 247 
Q 544.818182 247 544.818182 245 
L 544.818182 216.64375 
Q 544.818182 214.64375 542.818182 214.64375 
L 485.377557 214.64375 
Q 483.377557 214.64375 483.377557 216.64375 
L 483.377557 245 
Q 483.377557 247 485.377557 247 
z
" style="fill:#ffffff;opacity:0.8;stroke:#cccccc;stroke-linejoin:miter;"/>
    </g>
    <g id="line2d_16">
     <path d="M 487.377557 222.742188 
L 507.377557 222.742188 
" style="fill:none;stroke:#1f77b4;stroke-linecap:square;stroke-width:1.5;"/>
    </g>
    <g id="line2d_17"/>
    <g id="text_17">
     <!-- Train -->
     <defs>
      <path d="M -0.296875 72.90625 
L 61.375 72.90625 
L 61.375 64.59375 
L 35.5 64.59375 
L 35.5 0 
L 25.59375 0 
L 25.59375 64.59375 
L -0.296875 64.59375 
z
" id="DejaVuSans-84"/>
      <path d="M 54.890625 33.015625 
L 54.890625 0 
L 45.90625 0 
L 45.90625 32.71875 
Q 45.90625 40.484375 42.875 44.328125 
Q 39.84375 48.1875 33.796875 48.1875 
Q 26.515625 48.1875 22.3125 43.546875 
Q 18.109375 38.921875 18.109375 30.90625 
L 18.109375 0 
L 9.078125 0 
L 9.078125 54.6875 
L 18.109375 54.6875 
L 18.109375 46.1875 
Q 21.34375 51.125 25.703125 53.5625 
Q 30.078125 56 35.796875 56 
Q 45.21875 56 50.046875 50.171875 
Q 54.890625 44.34375 54.890625 33.015625 
z
" id="DejaVuSans-110"/>
     </defs>
     <g transform="translate(515.377557 226.242188)scale(0.1 -0.1)">
      <use xlink:href="#DejaVuSans-84"/>
      <use x="60.865234" xlink:href="#DejaVuSans-114"/>
      <use x="101.978516" xlink:href="#DejaVuSans-97"/>
      <use x="163.257812" xlink:href="#DejaVuSans-105"/>
      <use x="191.041016" xlink:href="#DejaVuSans-110"/>
     </g>
    </g>
    <g id="line2d_18">
     <path d="M 487.377557 237.420312 
L 507.377557 237.420312 
" style="fill:none;stroke:#ff7f0e;stroke-linecap:square;stroke-width:1.5;"/>
    </g>
    <g id="line2d_19"/>
    <g id="text_18">
     <!-- Test -->
     <g transform="translate(515.377557 240.920312)scale(0.1 -0.1)">
      <use xlink:href="#DejaVuSans-84"/>
      <use x="60.818359" xlink:href="#DejaVuSans-101"/>
      <use x="122.341797" xlink:href="#DejaVuSans-115"/>
      <use x="174.441406" xlink:href="#DejaVuSans-116"/>
     </g>
    </g>
   </g>
  </g>
  <g id="axes_2">
   <g id="patch_8">
    <path d="M 630.981818 252 
L 1036.8 252 
L 1036.8 34.56 
L 630.981818 34.56 
z
" style="fill:#ffffff;"/>
   </g>
   <g id="matplotlib.axis_3">
    <g id="xtick_7">
     <g id="line2d_20">
      <g>
       <use style="stroke:#000000;stroke-width:0.8;" x="649.428099" xlink:href="#m9d307081e2" y="252"/>
      </g>
     </g>
     <g id="text_19">
      <!-- 0 -->
      <g transform="translate(646.246849 266.598437)scale(0.1 -0.1)">
       <use xlink:href="#DejaVuSans-48"/>
      </g>
     </g>
    </g>
    <g id="xtick_8">
     <g id="line2d_21">
      <g>
       <use style="stroke:#000000;stroke-width:0.8;" x="722.482677" xlink:href="#m9d307081e2" y="252"/>
      </g>
     </g>
     <g id="text_20">
      <!-- 100 -->
      <g transform="translate(712.938927 266.598437)scale(0.1 -0.1)">
       <use xlink:href="#DejaVuSans-49"/>
       <use x="63.623047" xlink:href="#DejaVuSans-48"/>
       <use x="127.246094" xlink:href="#DejaVuSans-48"/>
      </g>
     </g>
    </g>
    <g id="xtick_9">
     <g id="line2d_22">
      <g>
       <use style="stroke:#000000;stroke-width:0.8;" x="795.537256" xlink:href="#m9d307081e2" y="252"/>
      </g>
     </g>
     <g id="text_21">
      <!-- 200 -->
      <g transform="translate(785.993506 266.598437)scale(0.1 -0.1)">
       <use xlink:href="#DejaVuSans-50"/>
       <use x="63.623047" xlink:href="#DejaVuSans-48"/>
       <use x="127.246094" xlink:href="#DejaVuSans-48"/>
      </g>
     </g>
    </g>
    <g id="xtick_10">
     <g id="line2d_23">
      <g>
       <use style="stroke:#000000;stroke-width:0.8;" x="868.591834" xlink:href="#m9d307081e2" y="252"/>
      </g>
     </g>
     <g id="text_22">
      <!-- 300 -->
      <g transform="translate(859.048084 266.598437)scale(0.1 -0.1)">
       <use xlink:href="#DejaVuSans-51"/>
       <use x="63.623047" xlink:href="#DejaVuSans-48"/>
       <use x="127.246094" xlink:href="#DejaVuSans-48"/>
      </g>
     </g>
    </g>
    <g id="xtick_11">
     <g id="line2d_24">
      <g>
       <use style="stroke:#000000;stroke-width:0.8;" x="941.646412" xlink:href="#m9d307081e2" y="252"/>
      </g>
     </g>
     <g id="text_23">
      <!-- 400 -->
      <g transform="translate(932.102662 266.598437)scale(0.1 -0.1)">
       <use xlink:href="#DejaVuSans-52"/>
       <use x="63.623047" xlink:href="#DejaVuSans-48"/>
       <use x="127.246094" xlink:href="#DejaVuSans-48"/>
      </g>
     </g>
    </g>
    <g id="xtick_12">
     <g id="line2d_25">
      <g>
       <use style="stroke:#000000;stroke-width:0.8;" x="1014.70099" xlink:href="#m9d307081e2" y="252"/>
      </g>
     </g>
     <g id="text_24">
      <!-- 500 -->
      <g transform="translate(1005.15724 266.598437)scale(0.1 -0.1)">
       <use xlink:href="#DejaVuSans-53"/>
       <use x="63.623047" xlink:href="#DejaVuSans-48"/>
       <use x="127.246094" xlink:href="#DejaVuSans-48"/>
      </g>
     </g>
    </g>
    <g id="text_25">
     <!-- Playlist Model -->
     <g transform="translate(799.518253 280.276563)scale(0.1 -0.1)">
      <use xlink:href="#DejaVuSans-80"/>
      <use x="60.302734" xlink:href="#DejaVuSans-108"/>
      <use x="88.085938" xlink:href="#DejaVuSans-97"/>
      <use x="149.365234" xlink:href="#DejaVuSans-121"/>
      <use x="208.544922" xlink:href="#DejaVuSans-108"/>
      <use x="236.328125" xlink:href="#DejaVuSans-105"/>
      <use x="264.111328" xlink:href="#DejaVuSans-115"/>
      <use x="316.210938" xlink:href="#DejaVuSans-116"/>
      <use x="355.419922" xlink:href="#DejaVuSans-32"/>
      <use x="387.207031" xlink:href="#DejaVuSans-77"/>
      <use x="473.486328" xlink:href="#DejaVuSans-111"/>
      <use x="534.667969" xlink:href="#DejaVuSans-100"/>
      <use x="598.144531" xlink:href="#DejaVuSans-101"/>
      <use x="659.667969" xlink:href="#DejaVuSans-108"/>
     </g>
    </g>
   </g>
   <g id="matplotlib.axis_4">
    <g id="ytick_8">
     <g id="line2d_26">
      <g>
       <use style="stroke:#000000;stroke-width:0.8;" x="630.981818" xlink:href="#maf4ceeec3b" y="242.116364"/>
      </g>
     </g>
     <g id="text_26">
      <!-- 0.0 -->
      <g transform="translate(608.078693 245.915582)scale(0.1 -0.1)">
       <use xlink:href="#DejaVuSans-48"/>
       <use x="63.623047" xlink:href="#DejaVuSans-46"/>
       <use x="95.410156" xlink:href="#DejaVuSans-48"/>
      </g>
     </g>
    </g>
    <g id="ytick_9">
     <g id="line2d_27">
      <g>
       <use style="stroke:#000000;stroke-width:0.8;" x="630.981818" xlink:href="#maf4ceeec3b" y="202.581818"/>
      </g>
     </g>
     <g id="text_27">
      <!-- 0.2 -->
      <g transform="translate(608.078693 206.381037)scale(0.1 -0.1)">
       <use xlink:href="#DejaVuSans-48"/>
       <use x="63.623047" xlink:href="#DejaVuSans-46"/>
       <use x="95.410156" xlink:href="#DejaVuSans-50"/>
      </g>
     </g>
    </g>
    <g id="ytick_10">
     <g id="line2d_28">
      <g>
       <use style="stroke:#000000;stroke-width:0.8;" x="630.981818" xlink:href="#maf4ceeec3b" y="163.047273"/>
      </g>
     </g>
     <g id="text_28">
      <!-- 0.4 -->
      <g transform="translate(608.078693 166.846491)scale(0.1 -0.1)">
       <use xlink:href="#DejaVuSans-48"/>
       <use x="63.623047" xlink:href="#DejaVuSans-46"/>
       <use x="95.410156" xlink:href="#DejaVuSans-52"/>
      </g>
     </g>
    </g>
    <g id="ytick_11">
     <g id="line2d_29">
      <g>
       <use style="stroke:#000000;stroke-width:0.8;" x="630.981818" xlink:href="#maf4ceeec3b" y="123.512727"/>
      </g>
     </g>
     <g id="text_29">
      <!-- 0.6 -->
      <g transform="translate(608.078693 127.311946)scale(0.1 -0.1)">
       <use xlink:href="#DejaVuSans-48"/>
       <use x="63.623047" xlink:href="#DejaVuSans-46"/>
       <use x="95.410156" xlink:href="#DejaVuSans-54"/>
      </g>
     </g>
    </g>
    <g id="ytick_12">
     <g id="line2d_30">
      <g>
       <use style="stroke:#000000;stroke-width:0.8;" x="630.981818" xlink:href="#maf4ceeec3b" y="83.978182"/>
      </g>
     </g>
     <g id="text_30">
      <!-- 0.8 -->
      <g transform="translate(608.078693 87.777401)scale(0.1 -0.1)">
       <use xlink:href="#DejaVuSans-48"/>
       <use x="63.623047" xlink:href="#DejaVuSans-46"/>
       <use x="95.410156" xlink:href="#DejaVuSans-56"/>
      </g>
     </g>
    </g>
    <g id="ytick_13">
     <g id="line2d_31">
      <g>
       <use style="stroke:#000000;stroke-width:0.8;" x="630.981818" xlink:href="#maf4ceeec3b" y="44.443636"/>
      </g>
     </g>
     <g id="text_31">
      <!-- 1.0 -->
      <g transform="translate(608.078693 48.242855)scale(0.1 -0.1)">
       <use xlink:href="#DejaVuSans-49"/>
       <use x="63.623047" xlink:href="#DejaVuSans-46"/>
       <use x="95.410156" xlink:href="#DejaVuSans-48"/>
      </g>
     </g>
    </g>
    <g id="text_32">
     <!-- F1 Score -->
     <defs>
      <path d="M 9.8125 72.90625 
L 51.703125 72.90625 
L 51.703125 64.59375 
L 19.671875 64.59375 
L 19.671875 43.109375 
L 48.578125 43.109375 
L 48.578125 34.8125 
L 19.671875 34.8125 
L 19.671875 0 
L 9.8125 0 
z
" id="DejaVuSans-70"/>
     </defs>
     <g transform="translate(601.999006 165.039375)rotate(-90)scale(0.1 -0.1)">
      <use xlink:href="#DejaVuSans-70"/>
      <use x="57.519531" xlink:href="#DejaVuSans-49"/>
      <use x="121.142578" xlink:href="#DejaVuSans-32"/>
      <use x="152.929688" xlink:href="#DejaVuSans-83"/>
      <use x="216.40625" xlink:href="#DejaVuSans-99"/>
      <use x="271.386719" xlink:href="#DejaVuSans-111"/>
      <use x="332.568359" xlink:href="#DejaVuSans-114"/>
      <use x="373.650391" xlink:href="#DejaVuSans-101"/>
     </g>
    </g>
   </g>
   <g id="line2d_32">
    <path clip-path="url(#p431735691e)" d="M 649.428099 94.12991 
L 650.158645 126.078391 
L 650.889191 101.343035 
L 651.619737 94.71596 
L 652.350282 113.709012 
L 653.080828 98.418104 
L 653.811374 96.533071 
L 654.54192 93.058706 
L 655.272465 106.699768 
L 656.003011 102.234998 
L 656.733557 116.154563 
L 657.464103 105.923439 
L 658.194649 102.034922 
L 658.925194 93.581352 
L 659.65574 100.388748 
L 660.386286 95.692121 
L 661.116832 103.654361 
L 661.847377 87.382331 
L 663.308469 75.389207 
L 664.039015 93.337951 
L 664.769561 79.684471 
L 666.961198 110.334545 
L 667.691744 105.368065 
L 669.152835 83.978182 
L 669.883381 95.5276 
L 670.613927 95.162297 
L 671.344473 80.857033 
L 672.075018 117.58859 
L 672.805564 100.442932 
L 673.53611 98.694511 
L 674.266656 114.887008 
L 674.997202 116.409911 
L 675.727747 93.391169 
L 676.458293 77.389091 
L 677.188839 105.115464 
L 677.919385 100.141477 
L 678.64993 96.065177 
L 679.380476 88.952727 
L 680.111022 92.72315 
L 680.841568 78.33039 
L 681.572114 94.004234 
L 682.302659 98.198625 
L 683.033205 96.272461 
L 683.763751 116.708062 
L 684.494297 122.857671 
L 685.224842 106.098292 
L 685.955388 96.194865 
L 686.685934 103.698051 
L 687.41648 107.50287 
L 688.147026 109.540679 
L 688.877571 107.029672 
L 689.608117 116.830832 
L 690.338663 94.352186 
L 691.069209 105.892462 
L 691.799755 97.455868 
L 692.5303 95.011078 
L 693.260846 51.764848 
L 693.991392 85.151749 
L 694.721938 88.698725 
L 695.452483 44.443636 
L 696.183029 102.834767 
L 696.913575 61.387013 
L 697.644121 94.087472 
L 698.374667 72.682597 
L 699.105212 55.225785 
L 699.835758 120.471608 
L 700.566304 78.913258 
L 701.29685 122.931337 
L 702.027395 103.063824 
L 702.757941 86.844735 
L 703.488487 107.91653 
L 704.219033 75.966198 
L 704.949579 64.792299 
L 705.680124 86.613818 
L 706.41067 101.456612 
L 707.141216 119.016642 
L 707.871762 90.386642 
L 709.332853 59.649231 
L 710.063399 86.340132 
L 710.793945 87.705344 
L 711.524491 99.565858 
L 712.255036 88.111642 
L 712.985582 84.727652 
L 713.716128 102.40782 
L 714.446674 75.33 
L 715.17722 78.279509 
L 715.907765 104.754457 
L 716.638311 100.028027 
L 717.368857 70.935858 
L 718.099403 85.97152 
L 718.829948 113.995152 
L 719.560494 79.502573 
L 720.29104 85.185344 
L 721.021586 118.865566 
L 721.752132 117.943195 
L 722.482677 111.118961 
L 723.213223 94.599403 
L 723.943769 92.174978 
L 724.674315 107.981299 
L 725.40486 76.168889 
L 726.135406 112.301438 
L 726.865952 89.416797 
L 727.596498 94.599403 
L 728.327044 97.834341 
L 729.057589 98.006569 
L 729.788135 110.334545 
L 730.518681 59.94738 
L 731.249227 101.713305 
L 731.979773 130.608671 
L 732.710318 83.978182 
L 733.440864 89.625974 
L 734.17141 111.360085 
L 734.901956 79.704177 
L 735.632501 72.133201 
L 736.363047 80.683636 
L 737.093593 108.342495 
L 737.824139 102.233204 
L 738.554685 75.65512 
L 739.28523 82.255127 
L 740.015776 79.742338 
L 740.746322 109.328577 
L 741.476868 97.391688 
L 742.207413 120.471608 
L 742.937959 121.171866 
L 743.668505 94.291542 
L 744.399051 102.758586 
L 745.129597 107.060463 
L 745.860142 117.465596 
L 746.590688 51.764848 
L 747.321234 93.220024 
L 748.05178 82.653571 
L 748.782326 75.430172 
L 749.512871 77.610201 
L 750.243417 74.675936 
L 750.973963 96.678398 
L 751.704509 103.070981 
L 752.435054 67.252028 
L 753.896146 102.865131 
L 754.626692 82.457622 
L 755.357238 99.792 
L 756.087783 107.233797 
L 756.818329 112.460059 
L 757.548875 95.811651 
L 758.279421 109.10294 
L 759.009966 75.483156 
L 759.740512 105.804265 
L 760.471058 114.801726 
L 761.201604 74.524269 
L 761.93215 71.588835 
L 762.662695 85.140963 
L 763.393241 73.884255 
L 764.123787 82.513939 
L 764.854333 89.011758 
L 765.584878 131.589677 
L 766.315424 64.628528 
L 767.04597 76.622918 
L 767.776516 110.334545 
L 768.507062 87.998644 
L 769.237607 86.876002 
L 769.968153 76.704764 
L 770.698699 47.227759 
L 771.429245 81.976433 
L 772.159791 98.124728 
L 772.890336 94.417079 
L 773.620882 73.435636 
L 774.351428 94.197996 
L 775.081974 103.837395 
L 775.812519 83.190118 
L 776.543065 98.232134 
L 777.273611 103.063824 
L 778.004157 88.528921 
L 778.734703 90.966413 
L 779.465248 94.699414 
L 780.195794 75.758128 
L 780.92634 79.411014 
L 781.656886 91.929264 
L 782.387431 86.980806 
L 783.117977 103.745455 
L 783.848523 88.271526 
L 784.579069 114.890832 
L 785.309615 66.407273 
L 786.04016 96.215065 
L 786.770706 100.551616 
L 787.501252 58.563117 
L 788.231798 94.653414 
L 788.962344 84.158705 
L 789.692889 66.407273 
L 790.423435 96.678398 
L 791.153981 75.192727 
L 791.884527 98.173472 
L 792.615072 67.428837 
L 793.345618 109.152646 
L 794.076164 88.92 
L 794.80671 83.102878 
L 795.537256 92.27451 
L 796.267801 93.33044 
L 796.998347 98.35438 
L 797.728893 85.816998 
L 798.459439 71.369157 
L 799.189984 81.841179 
L 799.92053 86.028965 
L 800.651076 97.931551 
L 801.381622 79.114614 
L 802.112168 96.098261 
L 802.842713 91.085516 
L 803.573259 84.340884 
L 804.303805 47.911579 
L 805.034351 85.765054 
L 805.764896 68.434685 
L 806.495442 94.680904 
L 807.225988 102.070999 
L 807.956534 83.978182 
L 808.68708 101.832493 
L 809.417625 85.697075 
L 810.148171 119.184127 
L 810.878717 95.409858 
L 811.609263 92.075619 
L 812.339809 106.387164 
L 813.070354 71.79458 
L 813.8009 64.210909 
L 814.531446 104.037803 
L 815.261992 107.339504 
L 815.992537 66.407273 
L 816.723083 61.24982 
L 817.453629 118.011156 
L 818.184175 87.357203 
L 818.914721 62.413884 
L 819.645266 90.008875 
L 820.375812 96.219648 
L 821.106358 88.085667 
L 821.836904 85.208829 
L 822.567449 77.959081 
L 823.297995 102.217144 
L 824.028541 103.549739 
L 824.759087 86.53881 
L 825.489633 100.921558 
L 826.220178 104.451429 
L 826.950724 90.954866 
L 827.68127 102.527566 
L 828.411816 99.368216 
L 829.142362 73.317181 
L 829.872907 101.993924 
L 830.603453 107.196883 
L 831.333999 77.461499 
L 832.064545 83.978182 
L 832.79509 113.629091 
L 833.525636 108.188262 
L 834.256182 107.438242 
L 834.986728 86.906667 
L 835.717274 117.23837 
L 836.447819 87.07893 
L 837.178365 68.064906 
L 837.908911 100.279764 
L 838.639457 85.2009 
L 839.370002 97.286841 
L 840.100548 72.682597 
L 840.831094 72.682597 
L 841.56164 71.813706 
L 842.292186 94.137897 
L 843.022731 93.81185 
L 844.483823 81.600164 
L 845.214369 92.959661 
L 845.944914 108.660366 
L 846.67546 83.978182 
L 847.406006 110.334545 
L 848.136552 107.698909 
L 848.867098 76.105502 
L 849.597643 76.071273 
L 850.328189 110.334545 
L 851.058735 112.525692 
L 851.789281 78.821502 
L 852.519827 83.579347 
L 853.250372 98.765913 
L 853.980918 96.939141 
L 854.711464 106.53507 
L 855.44201 83.978182 
L 856.172555 118.570909 
L 856.903101 107.657262 
L 857.633647 69.152727 
L 859.094739 110.188446 
L 859.825284 68.164364 
L 860.55583 96.423785 
L 861.286376 89.401693 
L 862.016922 81.049697 
L 862.747467 100.644706 
L 863.478013 79.645629 
L 864.208559 64.497391 
L 864.939105 58.563117 
L 865.669651 87.415968 
L 866.400196 88.749592 
L 867.130742 105.790345 
L 867.861288 89.079413 
L 868.591834 87.048218 
L 869.32238 52.829752 
L 870.052925 90.678952 
L 870.783471 78.461734 
L 871.514017 68.403967 
L 872.244563 79.327059 
L 873.705654 116.154563 
L 874.4362 103.596828 
L 875.166746 99.063732 
L 875.897292 99.068903 
L 876.627837 77.772178 
L 877.358383 95.312784 
L 878.088929 95.367635 
L 878.819475 103.906164 
L 879.55002 77.027053 
L 880.280566 82.176037 
L 881.011112 90.477011 
L 881.741658 83.978182 
L 882.472204 96.887421 
L 883.202749 91.508571 
L 883.933295 92.225455 
L 884.663841 106.933724 
L 885.394387 96.800197 
L 886.124932 54.494792 
L 886.855478 104.205159 
L 887.586024 82.369218 
L 888.31657 97.301179 
L 889.047116 93.600346 
L 889.777661 117.045657 
L 890.508207 62.092987 
L 891.238753 91.166281 
L 891.969299 89.743636 
L 892.699845 110.829036 
L 893.43039 89.743636 
L 894.160936 107.060463 
L 894.891482 98.543541 
L 895.622028 112.51181 
L 896.352573 92.676897 
L 897.083119 105.310605 
L 897.813665 68.338142 
L 898.544211 104.127668 
L 899.274757 105.341165 
L 900.005302 77.880814 
L 900.735848 112.931232 
L 901.466394 116.14188 
L 902.19694 61.11483 
L 902.927485 62.413884 
L 904.388577 100.691973 
L 905.119123 93.861818 
L 905.849669 88.15505 
L 906.580214 97.156364 
L 907.31076 84.828387 
L 908.041306 102.177837 
L 908.771852 99.327938 
L 909.502398 77.840399 
L 910.232943 88.292747 
L 910.963489 97.067063 
L 911.694035 81.600164 
L 913.155126 106.866603 
L 913.885672 93.615957 
L 914.616218 107.718529 
L 915.346764 104.216104 
L 916.07731 72.075308 
L 916.807855 95.920909 
L 917.538401 78.010703 
L 918.268947 81.277064 
L 918.999493 95.281682 
L 920.460584 69.152727 
L 921.19113 97.497488 
L 921.921676 112.636411 
L 922.652222 93.861818 
L 923.382767 95.293009 
L 924.113313 105.790345 
L 924.843859 98.716501 
L 925.574405 111.895941 
L 926.30495 88.791858 
L 927.035496 101.580637 
L 927.766042 67.699251 
L 928.496588 127.739691 
L 929.227134 134.001484 
L 929.957679 90.682871 
L 930.688225 95.359339 
L 931.418771 76.790083 
L 932.149317 86.166946 
L 932.879863 100.839349 
L 933.610408 106.330606 
L 934.340954 75.798621 
L 935.0715 56.645657 
L 935.802046 86.374215 
L 936.532591 101.129198 
L 937.263137 87.871736 
L 937.993683 81.219958 
L 938.724229 92.276979 
L 939.454775 95.173805 
L 940.915866 104.205159 
L 941.646412 75.65512 
L 942.376958 82.457622 
L 943.107503 93.51784 
L 943.838049 98.523911 
L 944.568595 102.371898 
L 945.299141 109.649965 
L 946.029687 78.781152 
L 946.760232 86.089819 
L 947.490778 101.086699 
L 948.221324 87.214928 
L 948.95187 66.963314 
L 949.682416 90.954866 
L 950.412961 80.167623 
L 951.874053 104.310234 
L 952.604599 85.604281 
L 953.335144 73.98094 
L 954.06569 85.543906 
L 954.796236 104.318419 
L 955.526782 67.699251 
L 956.257328 80.053797 
L 956.987873 95.692121 
L 957.718419 76.498673 
L 958.448965 84.828387 
L 959.179511 87.415968 
L 959.910056 80.637234 
L 960.640602 117.270431 
L 961.371148 86.606517 
L 962.101694 89.249455 
L 962.83224 72.682597 
L 963.562785 83.36761 
L 964.293331 63.823316 
L 965.023877 125.838289 
L 965.754423 61.632569 
L 966.484968 110.598637 
L 967.215514 114.210481 
L 967.94606 97.040766 
L 968.676606 74.296252 
L 969.407152 98.35438 
L 970.137697 77.895944 
L 970.868243 82.540562 
L 971.598789 88.295948 
L 972.329335 69.152727 
L 973.059881 86.154395 
L 973.790426 68.772587 
L 974.520972 86.544954 
L 975.251518 86.415243 
L 975.982064 92.157743 
L 976.712609 55.425455 
L 977.443155 83.452223 
L 978.173701 85.583646 
L 978.904247 103.013333 
L 979.634793 108.183006 
L 981.095884 86.597448 
L 982.556976 100.197483 
L 983.287521 91.29093 
L 984.018067 112.510189 
L 984.748613 80.384132 
L 985.479159 106.216364 
L 986.209705 86.643432 
L 986.94025 95.581709 
L 987.670796 110.334545 
L 988.401342 90.06042 
L 989.131888 107.627859 
L 989.862434 90.954866 
L 990.592979 61.716011 
L 991.323525 89.117673 
L 992.054071 58.334152 
L 992.784617 95.692121 
L 993.515162 100.993049 
L 994.245708 62.413884 
L 994.976254 111.511169 
L 995.7068 59.086061 
L 996.437346 98.35438 
L 997.167891 82.457622 
L 997.898437 70.996689 
L 998.628983 94.137897 
L 999.359529 93.562314 
L 1000.090074 81.219958 
L 1000.82062 96.254351 
L 1001.551166 77.389091 
L 1002.281712 113.385933 
L 1003.012258 85.930505 
L 1003.742803 97.156364 
L 1004.473349 48.649439 
L 1005.203895 104.310234 
L 1005.934441 84.62102 
L 1006.664986 103.849676 
L 1007.395532 98.35438 
L 1008.126078 60.404788 
L 1008.856624 82.457622 
L 1009.58717 88.843972 
L 1010.317715 84.362946 
L 1011.048261 86.893962 
L 1011.778807 92.490614 
L 1012.509353 86.136395 
L 1013.239899 95.892702 
L 1014.70099 82.68801 
L 1015.431536 56.546048 
L 1016.162082 96.462775 
L 1016.892627 46.142829 
L 1017.623173 103.576503 
L 1018.353719 104.205159 
L 1018.353719 104.205159 
" style="fill:none;stroke:#1f77b4;stroke-linecap:square;stroke-width:1.5;"/>
   </g>
   <g id="line2d_33">
    <path clip-path="url(#p431735691e)" d="M 649.428099 239.665051 
L 650.158645 235.817812 
L 650.889191 230.356904 
L 651.619737 238.571936 
L 652.350282 240.176379 
L 653.080828 238.859435 
L 653.811374 240.942002 
L 654.54192 235.114332 
L 655.272465 234.934156 
L 656.003011 237.679977 
L 656.733557 238.059386 
L 657.464103 239.084315 
L 658.194649 234.001143 
L 658.925194 235.813315 
L 659.65574 241.518111 
L 661.116832 238.815316 
L 661.847377 240.868479 
L 662.577923 242.048795 
L 663.308469 238.768161 
L 664.039015 236.970338 
L 664.769561 233.028997 
L 665.500106 238.048702 
L 666.230652 241.170399 
L 666.961198 234.348214 
L 667.691744 234.60596 
L 668.42229 241.813475 
L 669.152835 241.302417 
L 669.883381 238.880248 
L 670.613927 240.211658 
L 671.344473 240.249766 
L 672.075018 240.448239 
L 672.805564 239.938872 
L 673.53611 240.696447 
L 674.266656 240.655098 
L 674.997202 235.863942 
L 675.727747 238.226125 
L 676.458293 242.116364 
L 677.188839 239.587849 
L 677.919385 230.846711 
L 678.64993 240.334637 
L 679.380476 241.598605 
L 680.111022 241.413527 
L 680.841568 242.116364 
L 681.572114 239.34597 
L 682.302659 237.534728 
L 683.033205 239.530394 
L 683.763751 239.953885 
L 684.494297 233.235334 
L 685.224842 233.258188 
L 685.955388 236.343065 
L 686.685934 236.838434 
L 688.147026 241.086345 
L 688.877571 239.258285 
L 689.608117 241.341328 
L 690.338663 234.150278 
L 691.069209 236.885587 
L 691.799755 240.817 
L 692.5303 241.881528 
L 693.260846 241.87552 
L 693.991392 234.353811 
L 694.721938 241.023602 
L 695.452483 242.029598 
L 696.183029 240.96612 
L 696.913575 242.116364 
L 697.644121 239.14124 
L 698.374667 240.598723 
L 699.105212 240.833607 
L 699.835758 240.736973 
L 700.566304 240.776744 
L 701.29685 234.457104 
L 702.027395 242.116364 
L 702.757941 240.33248 
L 703.488487 241.578346 
L 704.219033 237.051508 
L 704.949579 241.196314 
L 705.680124 241.301405 
L 706.41067 239.479723 
L 707.141216 236.114601 
L 707.871762 235.420752 
L 708.602308 238.800613 
L 709.332853 239.614177 
L 710.063399 231.045799 
L 710.793945 239.789192 
L 711.524491 232.360483 
L 712.255036 240.742444 
L 712.985582 231.812104 
L 713.716128 241.245263 
L 714.446674 241.237668 
L 715.17722 239.859635 
L 715.907765 235.566692 
L 716.638311 234.740516 
L 717.368857 240.59067 
L 718.099403 241.809359 
L 718.829948 240.437317 
L 719.560494 240.969327 
L 720.29104 240.083739 
L 721.021586 241.220143 
L 721.752132 239.713477 
L 722.482677 240.532719 
L 723.213223 240.198246 
L 723.943769 236.330417 
L 724.674315 241.662674 
L 725.40486 240.947855 
L 726.135406 241.316069 
L 726.865952 241.418952 
L 727.596498 232.573542 
L 728.327044 238.407682 
L 729.057589 241.194307 
L 729.788135 240.275943 
L 730.518681 234.31126 
L 731.249227 241.631022 
L 731.979773 241.971936 
L 732.710318 241.332372 
L 733.440864 241.912577 
L 734.17141 240.735416 
L 734.901956 240.428914 
L 735.632501 238.709646 
L 736.363047 235.604791 
L 737.824139 238.974365 
L 738.554685 241.883076 
L 739.28523 238.451331 
L 740.015776 240.77621 
L 740.746322 241.526824 
L 741.476868 235.473763 
L 742.207413 241.417873 
L 742.937959 240.318062 
L 743.668505 240.880612 
L 744.399051 239.137371 
L 745.129597 240.515054 
L 745.860142 239.526765 
L 746.590688 235.000145 
L 747.321234 241.530232 
L 748.05178 237.579929 
L 748.782326 241.578897 
L 749.512871 235.769398 
L 750.243417 239.356 
L 750.973963 236.120531 
L 751.704509 236.545587 
L 752.435054 240.589512 
L 753.1656 239.708657 
L 753.896146 240.835401 
L 754.626692 239.176712 
L 755.357238 241.625164 
L 756.087783 231.654987 
L 756.818329 240.407685 
L 757.548875 238.626482 
L 758.279421 241.884942 
L 759.009966 241.430132 
L 759.740512 229.057566 
L 760.471058 238.881647 
L 761.201604 242.116364 
L 761.93215 232.529776 
L 762.662695 240.693527 
L 763.393241 240.610437 
L 764.123787 239.466088 
L 764.854333 237.393807 
L 765.584878 241.242672 
L 766.315424 236.247221 
L 767.04597 240.872405 
L 767.776516 241.611452 
L 768.507062 240.622444 
L 769.237607 237.618325 
L 769.968153 236.863102 
L 770.698699 238.382776 
L 771.429245 241.392785 
L 772.159791 241.357319 
L 772.890336 239.321714 
L 773.620882 241.082201 
L 774.351428 241.322896 
L 775.081974 235.695716 
L 775.812519 239.802265 
L 777.273611 237.49755 
L 778.004157 240.693354 
L 778.734703 233.179984 
L 779.465248 239.730165 
L 780.195794 239.170909 
L 780.92634 241.055698 
L 781.656886 241.489204 
L 782.387431 241.512783 
L 783.117977 241.116839 
L 783.848523 241.937999 
L 784.579069 231.330505 
L 785.309615 240.837342 
L 786.04016 240.976218 
L 786.770706 241.565647 
L 787.501252 241.166014 
L 788.962344 239.677632 
L 789.692889 242.01084 
L 790.423435 239.82118 
L 791.153981 241.894135 
L 791.884527 238.394618 
L 792.615072 241.203747 
L 793.345618 240.644284 
L 794.076164 240.530223 
L 794.80671 238.396716 
L 795.537256 238.515039 
L 796.267801 241.779756 
L 796.998347 241.198761 
L 797.728893 241.93191 
L 798.459439 239.452725 
L 799.189984 241.704331 
L 799.92053 240.124547 
L 800.651076 241.982981 
L 801.381622 229.607026 
L 802.112168 234.348536 
L 802.842713 240.360969 
L 803.573259 241.032312 
L 804.303805 234.852799 
L 805.034351 240.127095 
L 805.764896 234.611564 
L 806.495442 239.514918 
L 807.225988 239.52057 
L 807.956534 241.782118 
L 808.68708 241.499921 
L 809.417625 241.935303 
L 810.148171 239.740619 
L 811.609263 240.631777 
L 812.339809 239.76188 
L 813.070354 239.612857 
L 813.8009 241.229193 
L 814.531446 236.624684 
L 815.261992 241.315922 
L 816.723083 238.816318 
L 817.453629 238.334188 
L 818.184175 238.970935 
L 818.914721 242.016478 
L 819.645266 237.331928 
L 820.375812 236.058705 
L 821.106358 237.138689 
L 821.836904 239.446914 
L 822.567449 239.568016 
L 823.297995 234.41947 
L 824.028541 238.279678 
L 824.759087 235.087387 
L 825.489633 241.720067 
L 826.220178 241.593343 
L 826.950724 241.155076 
L 827.68127 240.0268 
L 828.411816 236.750868 
L 829.142362 240.389279 
L 829.872907 241.795153 
L 830.603453 241.200364 
L 831.333999 233.076599 
L 832.064545 241.71369 
L 832.79509 241.519766 
L 833.525636 239.474122 
L 834.256182 241.814112 
L 834.986728 240.610286 
L 835.717274 234.175059 
L 836.447819 240.456364 
L 837.178365 240.11017 
L 837.908911 240.906382 
L 838.639457 242.048795 
L 839.370002 240.823782 
L 840.100548 241.957654 
L 840.831094 241.336846 
L 841.56164 240.224759 
L 842.292186 241.410516 
L 843.022731 238.341311 
L 843.753277 241.317539 
L 844.483823 241.136168 
L 845.214369 238.247691 
L 845.944914 240.171586 
L 846.67546 239.261551 
L 847.406006 240.36524 
L 848.136552 241.057054 
L 848.867098 240.902717 
L 849.597643 241.532397 
L 850.328189 238.63892 
L 851.058735 240.123834 
L 851.789281 242.052048 
L 852.519827 230.578694 
L 853.250372 242.055476 
L 853.980918 234.049687 
L 855.44201 241.189193 
L 856.172555 240.518879 
L 856.903101 235.619816 
L 857.633647 241.846779 
L 858.364193 240.391123 
L 859.094739 239.686344 
L 859.825284 241.815568 
L 860.55583 230.759167 
L 861.286376 240.476284 
L 862.016922 241.63822 
L 862.747467 240.70536 
L 863.478013 240.68568 
L 864.939105 241.782175 
L 867.130742 241.947437 
L 867.861288 241.66749 
L 868.591834 230.828 
L 869.32238 230.097862 
L 870.052925 240.056844 
L 871.514017 240.183134 
L 872.244563 241.569929 
L 872.975108 239.215685 
L 873.705654 240.543371 
L 874.4362 239.93497 
L 875.166746 240.943928 
L 875.897292 239.397811 
L 876.627837 239.535569 
L 877.358383 240.002217 
L 878.088929 239.216874 
L 878.819475 239.245502 
L 879.55002 241.165197 
L 880.280566 241.487548 
L 881.011112 237.140813 
L 881.741658 241.381673 
L 882.472204 241.399639 
L 883.202749 242.020441 
L 883.933295 239.140464 
L 884.663841 239.642578 
L 885.394387 239.476995 
L 886.124932 241.80097 
L 886.855478 241.981732 
L 887.586024 233.178247 
L 888.31657 240.841056 
L 889.047116 241.155037 
L 889.777661 240.931025 
L 891.238753 241.581535 
L 891.969299 241.504058 
L 892.699845 239.540124 
L 893.43039 241.030792 
L 894.160936 240.808847 
L 894.891482 241.620588 
L 895.622028 238.797499 
L 896.352573 239.065606 
L 897.083119 242.056599 
L 897.813665 241.068937 
L 898.544211 231.887351 
L 899.274757 238.214215 
L 900.005302 238.92632 
L 900.735848 237.864067 
L 901.466394 241.342441 
L 902.19694 241.210795 
L 902.927485 242.022077 
L 903.658031 242.036237 
L 904.388577 241.688327 
L 905.119123 239.386706 
L 905.849669 233.296911 
L 906.580214 241.983004 
L 907.31076 238.840586 
L 908.041306 241.329426 
L 908.771852 240.989079 
L 909.502398 240.146376 
L 910.232943 237.120565 
L 910.963489 237.18315 
L 911.694035 240.764293 
L 912.424581 238.640467 
L 913.155126 241.126763 
L 913.885672 240.274002 
L 914.616218 238.322261 
L 915.346764 237.890449 
L 916.07731 234.611783 
L 916.807855 241.007857 
L 917.538401 240.924068 
L 918.268947 238.884961 
L 918.999493 230.430391 
L 919.730038 241.630482 
L 920.460584 241.776603 
L 921.19113 232.533721 
L 921.921676 239.407281 
L 922.652222 240.653125 
L 923.382767 237.995002 
L 924.843859 238.51868 
L 925.574405 239.300407 
L 926.30495 238.869173 
L 927.035496 239.474283 
L 927.766042 238.969094 
L 928.496588 241.071029 
L 929.227134 240.850583 
L 929.957679 237.829591 
L 930.688225 241.355108 
L 931.418771 241.862122 
L 932.149317 240.330042 
L 932.879863 235.206227 
L 933.610408 240.410818 
L 934.340954 234.25928 
L 935.0715 238.91086 
L 935.802046 238.345849 
L 936.532591 240.473852 
L 937.263137 239.370176 
L 937.993683 241.980623 
L 938.724229 239.746492 
L 939.454775 240.443197 
L 940.18532 240.223249 
L 940.915866 241.850197 
L 941.646412 241.998403 
L 942.376958 241.824954 
L 943.107503 238.080167 
L 943.838049 240.406594 
L 944.568595 241.797751 
L 945.299141 239.479409 
L 946.029687 238.852283 
L 946.760232 241.994306 
L 947.490778 241.571285 
L 948.221324 239.982245 
L 948.95187 241.060702 
L 949.682416 241.67153 
L 950.412961 242.116364 
L 951.143507 238.359301 
L 951.874053 241.332937 
L 952.604599 239.487154 
L 953.335144 241.356895 
L 954.06569 242.116364 
L 954.796236 235.686977 
L 955.526782 241.701412 
L 956.257328 240.110043 
L 956.987873 241.477163 
L 957.718419 234.795152 
L 958.448965 236.711778 
L 959.179511 241.497088 
L 959.910056 241.625513 
L 960.640602 235.814306 
L 961.371148 241.503781 
L 962.101694 239.895784 
L 962.83224 240.923768 
L 963.562785 238.311306 
L 964.293331 240.057273 
L 965.023877 241.483406 
L 965.754423 241.629005 
L 966.484968 240.854489 
L 967.215514 236.015354 
L 967.94606 239.025158 
L 968.676606 240.517138 
L 969.407152 240.911348 
L 970.137697 235.822008 
L 970.868243 240.589372 
L 971.598789 240.06359 
L 972.329335 242.116364 
L 973.059881 241.924122 
L 973.790426 241.089937 
L 974.520972 233.797636 
L 975.251518 239.300254 
L 975.982064 239.521933 
L 976.712609 242.03205 
L 977.443155 239.668945 
L 978.173701 241.585699 
L 978.904247 241.088157 
L 979.634793 236.597447 
L 981.095884 238.691651 
L 981.82643 237.573019 
L 982.556976 241.303732 
L 983.287521 239.92 
L 984.018067 236.059725 
L 984.748613 242.006332 
L 986.209705 242.116364 
L 986.94025 232.593979 
L 987.670796 241.490637 
L 988.401342 241.043721 
L 989.131888 239.563689 
L 989.862434 241.596465 
L 990.592979 240.548188 
L 991.323525 237.041326 
L 992.054071 231.9139 
L 992.784617 241.635876 
L 993.515162 238.233506 
L 994.245708 239.34201 
L 994.976254 241.120173 
L 995.7068 240.523217 
L 996.437346 241.450098 
L 997.167891 241.834879 
L 997.898437 241.823689 
L 998.628983 239.319932 
L 999.359529 240.925962 
L 1000.090074 240.461814 
L 1000.82062 238.485088 
L 1001.551166 241.711573 
L 1002.281712 240.127001 
L 1003.012258 239.176992 
L 1003.742803 241.916391 
L 1004.473349 238.300288 
L 1005.203895 240.05776 
L 1005.934441 240.534078 
L 1006.664986 236.705404 
L 1007.395532 241.486707 
L 1008.126078 239.363959 
L 1008.856624 241.98788 
L 1009.58717 241.444769 
L 1010.317715 239.397136 
L 1011.048261 236.843836 
L 1011.778807 237.05033 
L 1012.509353 237.60386 
L 1013.239899 240.691952 
L 1013.970444 239.192876 
L 1014.70099 234.385401 
L 1015.431536 240.455248 
L 1016.162082 239.013403 
L 1016.892627 197.143203 
L 1017.623173 241.076893 
L 1018.353719 241.662812 
L 1018.353719 241.662812 
" style="fill:none;stroke:#ff7f0e;stroke-linecap:square;stroke-width:1.5;"/>
   </g>
   <g id="patch_9">
    <path d="M 630.981818 252 
L 630.981818 34.56 
" style="fill:none;stroke:#000000;stroke-linecap:square;stroke-linejoin:miter;stroke-width:0.8;"/>
   </g>
   <g id="patch_10">
    <path d="M 1036.8 252 
L 1036.8 34.56 
" style="fill:none;stroke:#000000;stroke-linecap:square;stroke-linejoin:miter;stroke-width:0.8;"/>
   </g>
   <g id="patch_11">
    <path d="M 630.981818 252 
L 1036.8 252 
" style="fill:none;stroke:#000000;stroke-linecap:square;stroke-linejoin:miter;stroke-width:0.8;"/>
   </g>
   <g id="patch_12">
    <path d="M 630.981818 34.56 
L 1036.8 34.56 
" style="fill:none;stroke:#000000;stroke-linecap:square;stroke-linejoin:miter;stroke-width:0.8;"/>
   </g>
   <g id="text_33">
    <!-- F1 Scores for Playlist Models -->
    <g transform="translate(748.217472 28.56)scale(0.12 -0.12)">
     <use xlink:href="#DejaVuSans-70"/>
     <use x="57.519531" xlink:href="#DejaVuSans-49"/>
     <use x="121.142578" xlink:href="#DejaVuSans-32"/>
     <use x="152.929688" xlink:href="#DejaVuSans-83"/>
     <use x="216.40625" xlink:href="#DejaVuSans-99"/>
     <use x="271.386719" xlink:href="#DejaVuSans-111"/>
     <use x="332.568359" xlink:href="#DejaVuSans-114"/>
     <use x="373.650391" xlink:href="#DejaVuSans-101"/>
     <use x="435.173828" xlink:href="#DejaVuSans-115"/>
     <use x="487.273438" xlink:href="#DejaVuSans-32"/>
     <use x="519.060547" xlink:href="#DejaVuSans-102"/>
     <use x="554.265625" xlink:href="#DejaVuSans-111"/>
     <use x="615.447266" xlink:href="#DejaVuSans-114"/>
     <use x="656.560547" xlink:href="#DejaVuSans-32"/>
     <use x="688.347656" xlink:href="#DejaVuSans-80"/>
     <use x="748.650391" xlink:href="#DejaVuSans-108"/>
     <use x="776.433594" xlink:href="#DejaVuSans-97"/>
     <use x="837.712891" xlink:href="#DejaVuSans-121"/>
     <use x="896.892578" xlink:href="#DejaVuSans-108"/>
     <use x="924.675781" xlink:href="#DejaVuSans-105"/>
     <use x="952.458984" xlink:href="#DejaVuSans-115"/>
     <use x="1004.558594" xlink:href="#DejaVuSans-116"/>
     <use x="1043.767578" xlink:href="#DejaVuSans-32"/>
     <use x="1075.554688" xlink:href="#DejaVuSans-77"/>
     <use x="1161.833984" xlink:href="#DejaVuSans-111"/>
     <use x="1223.015625" xlink:href="#DejaVuSans-100"/>
     <use x="1286.492188" xlink:href="#DejaVuSans-101"/>
     <use x="1348.015625" xlink:href="#DejaVuSans-108"/>
     <use x="1375.798828" xlink:href="#DejaVuSans-115"/>
    </g>
   </g>
   <g id="legend_2">
    <g id="patch_13">
     <path d="M 972.359375 159.458125 
L 1029.8 159.458125 
Q 1031.8 159.458125 1031.8 157.458125 
L 1031.8 129.101875 
Q 1031.8 127.101875 1029.8 127.101875 
L 972.359375 127.101875 
Q 970.359375 127.101875 970.359375 129.101875 
L 970.359375 157.458125 
Q 970.359375 159.458125 972.359375 159.458125 
z
" style="fill:#ffffff;opacity:0.8;stroke:#cccccc;stroke-linejoin:miter;"/>
    </g>
    <g id="line2d_34">
     <path d="M 974.359375 135.200312 
L 994.359375 135.200312 
" style="fill:none;stroke:#1f77b4;stroke-linecap:square;stroke-width:1.5;"/>
    </g>
    <g id="line2d_35"/>
    <g id="text_34">
     <!-- Train -->
     <g transform="translate(1002.359375 138.700312)scale(0.1 -0.1)">
      <use xlink:href="#DejaVuSans-84"/>
      <use x="60.865234" xlink:href="#DejaVuSans-114"/>
      <use x="101.978516" xlink:href="#DejaVuSans-97"/>
      <use x="163.257812" xlink:href="#DejaVuSans-105"/>
      <use x="191.041016" xlink:href="#DejaVuSans-110"/>
     </g>
    </g>
    <g id="line2d_36">
     <path d="M 974.359375 149.878437 
L 994.359375 149.878437 
" style="fill:none;stroke:#ff7f0e;stroke-linecap:square;stroke-width:1.5;"/>
    </g>
    <g id="line2d_37"/>
    <g id="text_35">
     <!-- Test -->
     <g transform="translate(1002.359375 153.378437)scale(0.1 -0.1)">
      <use xlink:href="#DejaVuSans-84"/>
      <use x="60.818359" xlink:href="#DejaVuSans-101"/>
      <use x="122.341797" xlink:href="#DejaVuSans-115"/>
      <use x="174.441406" xlink:href="#DejaVuSans-116"/>
     </g>
    </g>
   </g>
  </g>
 </g>
 <defs>
  <clipPath id="p8f5f82d2e2">
   <rect height="217.44" width="405.818182" x="144" y="34.56"/>
  </clipPath>
  <clipPath id="p431735691e">
   <rect height="217.44" width="405.818182" x="630.981818" y="34.56"/>
  </clipPath>
 </defs>
</svg>
